<svg width="7" height="12" viewBox="0 0 7 12" fill="none" xmlns="http://www.w3.org/2000/svg">
<path id="Vector" d="M0.29579 6.70711L4.53579 10.9471C4.62875 11.0408 4.73935 11.1152 4.86121 11.166C4.98307 11.2168 5.11378 11.2429 5.24579 11.2429C5.3778 11.2429 5.50851 11.2168 5.63037 11.166C5.75223 11.1152 5.86283 11.0408 5.95579 10.9471C6.14204 10.7597 6.24658 10.5063 6.24658 10.2421C6.24658 9.97792 6.14204 9.72447 5.95579 9.53711L2.41579 5.99711L5.95579 2.45711C6.14204 2.26974 6.24658 2.01629 6.24658 1.75211C6.24658 1.48792 6.14204 1.23447 5.95579 1.04711C5.86235 0.954425 5.75153 0.8811 5.6297 0.831335C5.50786 0.78157 5.3774 0.756346 5.24579 0.757107C5.11418 0.756346 4.98372 0.78157 4.86188 0.831335C4.74005 0.8811 4.62923 0.954425 4.53579 1.04711L0.29579 5.28711C0.202062 5.38007 0.127668 5.49067 0.0768991 5.61253C0.0261302 5.73439 -8.11293e-06 5.86509 -8.12447e-06 5.99711C-8.13601e-06 6.12912 0.0261302 6.25982 0.076899 6.38168C0.127668 6.50354 0.202062 6.61414 0.29579 6.70711Z" fill="#E3E4E5"/>
</svg>
