<svg xmlns="http://www.w3.org/2000/svg" width="119" height="121" fill="none"><path fill="url(#a)" d="M106.427.014C112.949-.28 117.931 4.2 118.31 10.71l.5 73.8c-.069.738.024.487-.103.795-.298 8.874-8.815 14.335-16.514 16.428-10.79 2.492-21.417-2.078-23.455-10.903-2.038-8.825 5.51-17.591 16.3-20.083l.127-.027c.388-.074 1.29-.251 1.422-.276.402-.076.668-.118.989-.15.18-.017 1.837-.122 2.998-.213.119-.01.239-.013.358-.01 3.765.112 7.569.869 10.799 2.878l-.304-44.99L38.91 44.68l1.499 57.764c-.056.752.033.487-.102.833-.257 8.941-8.747 14.447-16.518 16.558-10.79 2.492-21.418-2.077-23.456-10.903-2.037-8.825 5.51-17.591 16.3-20.083 3.326-.634 1.337-.335 5.998-.675 3.65.142 7.33.89 10.478 2.804L31.41 25.53c-.144-5.222 3.44-9.714 8.544-10.915L105.167.214l1.26-.2ZM22.257 95.17c-3.137.272-1.794.06-4.048.499-7.4 1.709-12.098 7.167-11.054 11.687 1.044 4.521 7.66 7.366 15.059 5.657 7.399-1.708 12.098-7.166 11.054-11.687-1.4-4.836-6.646-5.906-11.011-6.156Zm78.623-18.093c-.871.068-1.742.125-2.614.183-.084.009-.16.02-.375.06l-1.308.256c-5.27 1.302-11.977 5.356-11.024 11.679 1.044 4.52 7.66 7.366 15.059 5.657 5.153-1.277 12.018-5.293 11.074-11.558-1.636-4.703-6.333-5.954-10.812-6.277Zm6.67-70.114-.885.088-65.153 14.39c-1.873.44-3.155 2.046-3.103 3.902l.316 12.196 72.653-16.752-.068-10.053c-.291-2.683-1.392-3.197-3.76-3.771Z"/><defs><linearGradient id="a" x1="3.992" x2="131.498" y1="114.495" y2="-6.363" gradientUnits="userSpaceOnUse"><stop stop-color="#6258E4"/><stop offset="1" stop-color="#FE21AC"/></linearGradient></defs></svg>