<svg xmlns="http://www.w3.org/2000/svg" width="135" height="110" fill="none"><path fill="url(#a)" d="M93 0c3.022.112 5.724 1.957 6.423 5.002l5.093 15.078.091.32H121.1c7.433 0 13.5 6.067 13.5 13.5v62.2c0 7.533-6.067 13.6-13.6 13.6H13.6C6.067 109.7 0 103.633 0 96.1V33.9c0-7.533 6.067-13.6 13.6-13.6h16.821l.063-.22 5.1-15.1.009.003C36.364 1.902 39.007.267 42 0h51Zm-.279 7H42.282l-.001.005-.065.214-5.093 15.078c-.639 3.166-3.455 4.739-6.423 5.003H13.6A6.572 6.572 0 0 0 7 33.9v62.2c0 3.667 2.933 6.6 6.6 6.6H121c3.667 0 6.6-2.933 6.6-6.6V33.9c0-3.567-2.933-6.5-6.5-6.5h-16.8l-.219-.007c-2.938-.285-5.533-2.133-6.209-5.11L92.784 7.219 92.721 7Z"/><path fill="url(#b)" d="M67.3 35.3c15.795 0 28.6 12.804 28.6 28.6 0 15.795-12.805 28.6-28.6 28.6-15.796 0-28.6-12.805-28.6-28.6 0-15.796 12.804-28.6 28.6-28.6Zm0 7c-11.93 0-21.6 9.67-21.6 21.6 0 11.93 9.67 21.6 21.6 21.6 11.93 0 21.6-9.67 21.6-21.6 0-11.93-9.67-21.6-21.6-21.6Z"/><defs><linearGradient id="a" x1="0" x2="134.6" y1="54.85" y2="54.85" gradientUnits="userSpaceOnUse"><stop stop-color="#6457E3"/><stop offset="1" stop-color="#EB28B3"/></linearGradient><linearGradient id="b" x1="11.53" x2="97.792" y1="103.931" y2="11.253" gradientUnits="userSpaceOnUse"><stop stop-color="#6457E3"/><stop offset="1" stop-color="#EB28B3"/></linearGradient></defs></svg>