<svg xmlns="http://www.w3.org/2000/svg" width="132" height="101" fill="none"><path fill="url(#a)" d="M118.1 0c7.465.001 13.3 6.781 13.3 14.901V85.3c0 8.12-5.835 14.901-13.3 14.901H13.3c-7.465 0-13.3-6.781-13.3-14.9V14.9C0 6.781 5.835.001 13.3.001L118.1 0Zm6.3 23.701H7V85.3c0 4.468 2.954 7.901 6.3 7.901h104.8c3.346 0 6.3-3.433 6.3-7.9v-61.6ZM118.1 7H13.3C9.954 7.001 7 10.433 7 14.901v1.8h117.4V14.9c0-4.467-2.954-7.899-6.3-7.899V7Z"/><path fill="url(#b)" d="M50.362 32.571c1.646.367.966.115 2.086.622l39.4 20.6.025.013c3.971 2.118 3.971 7.76-.025 9.89l-39.457 20.63c-3.703 1.851-8.065-.804-8.065-4.932V38.095c.078-2.429 1.588-4.57 3.971-5.295.663-.202 1.377-.153 2.065-.229Zm.964 7.934v36.48l34.885-18.24-34.885-18.24Z"/><defs><linearGradient id="a" x1="0" x2="131.4" y1="50.101" y2="50.101" gradientUnits="userSpaceOnUse"><stop stop-color="#6357E3"/><stop offset="1" stop-color="#EB27B2"/></linearGradient><linearGradient id="b" x1="7.891" x2="117.993" y1="94.311" y2=".597" gradientUnits="userSpaceOnUse"><stop stop-color="#6357E3"/><stop offset="1" stop-color="#EB27B2"/></linearGradient></defs></svg>