<svg xmlns="http://www.w3.org/2000/svg" xml:space="preserve" id="Слой_1" x="0" y="0" style="enable-background:new 0 0 171.1 129" version="1.1" viewBox="0 0 171.1 129"><style>.st1{fill:#eb3148}.st2,.st3{fill:none;stroke:#40f2d0;stroke-width:7;stroke-linecap:round;stroke-linejoin:round;stroke-miterlimit:10}.st3{stroke-width:9}</style><circle cx="-344.1" cy="91.3" r="60.1" style="fill:none;stroke:#eb3148;stroke-width:7;stroke-linecap:round;stroke-linejoin:round;stroke-miterlimit:10"/><path d="M-352.1 100c0-2.1.3-3.9.8-5.4.6-1.5 1.5-2.9 2.9-4.1 2-1.9 3.8-3.6 5.4-5 1.7-1.4 3.1-2.7 4.3-4 1.2-1.2 2.1-2.4 2.8-3.5.7-1.1 1-2.2 1-3.4 0-2.3-.7-4.1-2.2-5.5-1.4-1.3-3.3-2-5.5-2-3.3 0-5.8.9-7.6 2.8-1.7 1.8-2.7 4.1-2.9 6.7l-16.3-1.1c.8-7.5 3.5-13.2 8.3-17.1 4.7-3.9 10.8-5.9 18.2-5.9 3.2 0 6.3.4 9.2 1.3 2.9.9 5.4 2.2 7.6 4s3.9 4 5.2 6.6c1.3 2.6 1.9 5.6 1.9 9 0 2-.2 3.9-.6 5.6s-1.1 3.3-2.2 4.9c-1 1.6-2.4 3.3-4 4.9-1.7 1.7-3.8 3.5-6.3 5.5-1.6 1.3-2.7 2.5-3.3 3.7s-.8 2.4-.8 3.6v3h-15.9V100zm-1.8 20.3c0-1.3.2-2.6.7-3.8.5-1.2 1.2-2.2 2.1-3.1s1.9-1.6 3.1-2.1 2.5-.7 3.8-.7 2.6.2 3.8.7c1.2.5 2.2 1.2 3.1 2.1s1.6 1.9 2.1 3.1.7 2.5.7 3.8-.2 2.6-.7 3.8c-.5 1.2-1.2 2.2-2.1 3.1s-1.9 1.6-3.1 2.1-2.5.7-3.8.7-2.6-.2-3.8-.7-2.2-1.2-3.1-2.1-1.6-1.9-2.1-3.1c-.4-1.2-.7-2.5-.7-3.8z" class="st1"/><path d="M-355.2 107.1c.4-.4.6-1 .6-1.6v-5.8c0-.6 0-1.2.1-1.7 0-.5-.6-.8-.9-.4l-33.7 34.8c-1.4 1.4 0 2.9 1.4 4.2.7.7.2 1.8 1.1 1.8s1.9-.4 2.5-1.1l28.9-30.2zM-334.4 78.5c-.9 1.4-1.9 2.7-3.1 3.9-1.2 1.3-2.7 2.7-4.5 4.2-1.5 1.4-3.4 3.1-5.4 5h-.1c-1 .9-1.8 2-2.4 3.3-.5 1.4-.7 3-.7 4.8v2.6h.4l29.1-30c0-3.2-.7-5.9-1.9-8.2h-.1l-10 10.5c-.1 1.4-.6 2.7-1.3 3.9zM-300.4 45.8c-1.4-1.3-3.6-1.2-4.9.1-4.1 4.2-12.2 12.6-14.3 14.7-.3.3-.3.7-.1 1s.4.7.6 1c.7 1.3 1.2 2.7 1.5 4.2.2.7 1 .9 1.5.4l16.9-17.4c1.3-1.3.3-2.7-1.2-4z" class="st1"/><path d="M130.3 8.7c-19.6-7.3-37.9 8.5-43.1 17.7-.7 1.2-2.4 1.2-3.1 0-5.4-9.2-23.8-25.2-43.3-17.7-14.1 5.2-23.1 19.8-21.9 34.9 2.8 35.1 66.7 78.7 66.7 78.7s63.8-43.6 66.7-78.7c1.1-15.1-7.9-29.7-22-34.9z" class="st2"/><path d="M104.3 64.5H66.8M85.6 45.8v37.4" class="st3"/></svg>