<svg xmlns="http://www.w3.org/2000/svg" width="774" height="866" fill="none"><path fill="url(#a)" d="M696.414 565.592v-264.88a81.659 81.659 0 0 0-40.684-70.636L427.978 97.948a81.667 81.667 0 0 0-81.956 0L118.27 230.076a81.656 81.656 0 0 0-40.684 70.636v264.88a81.665 81.665 0 0 0 40.754 70.676l227.752 131.824a81.661 81.661 0 0 0 81.816 0L655.66 636.268a81.665 81.665 0 0 0 40.754-70.676Z"/><path fill="url(#b)" d="M773.766 598.739a102.078 102.078 0 0 1-50.942 88.346l-284.69 164.78a102.075 102.075 0 0 1-102.27 0l-284.69-164.78A102.078 102.078 0 0 1 .232 598.739v-331.1a102.072 102.072 0 0 1 50.854-88.294l284.69-165.16a102.085 102.085 0 0 1 102.446 0l284.69 165.16a102.076 102.076 0 0 1 50.854 88.294v331.1Zm-77.353-33.147v-264.88a81.66 81.66 0 0 0-40.684-70.636L427.977 97.948a81.668 81.668 0 0 0-81.957 0L118.269 230.076a81.655 81.655 0 0 0-40.684 70.636v264.88a81.663 81.663 0 0 0 40.754 70.676l227.752 131.824a81.661 81.661 0 0 0 81.816 0l227.752-131.824a81.664 81.664 0 0 0 40.753-70.676h.001Z"/><path fill="#FFB056" d="M186.249 277.508c-1.562-2.213-2.343-4.817-2.343-7.812 0-2.994 2.149-6.315 6.445-9.961l47.656-41.016c6.902-6.119 16.472-9.244 28.711-9.375h28.711c5.339 0 9.831 1.823 13.477 5.469 3.646 3.646 5.468 8.008 5.468 13.086v243.164c0 5.078-1.888 9.408-5.664 12.988-3.776 3.581-8.203 5.371-13.281 5.371h-36.328c-5.078 0-9.407-1.725-12.988-5.175-3.58-3.45-5.371-7.715-5.371-12.793V282.586l-22.461 16.407c-2.604 1.823-5.599 2.409-8.985 1.757-3.385-.65-6.119-2.148-8.203-4.492l-14.844-18.75Z"/><path fill="#FF1672" d="M387.723 453.429c0-22.135 11.23-40.332 33.691-54.59 22.461-14.258 46.973-21.387 73.535-21.387h22.461c75 0 112.5 29.102 112.5 87.305 0 13.021-3.158 24.316-9.472 33.887-6.316 9.57-13.998 16.894-23.047 21.972-9.05 5.079-18.099 9.636-27.149 13.672-9.05 4.037-16.732 8.431-23.047 13.184-6.315 4.753-9.472 9.538-9.472 14.355 0 9.376-3.972 14.063-11.914 14.063h-43.946c-3.516 0-6.413-1.139-8.691-3.418-2.279-2.279-3.418-5.111-3.418-8.496 0-11.198 2.148-21.094 6.445-29.688 4.297-8.593 9.636-15.332 16.016-20.215 6.38-4.883 13.313-9.472 20.801-13.769 7.486-4.296 14.42-7.877 20.801-10.742 14.974-6.901 22.461-15.56 22.461-25.977s-3.549-18.164-10.645-23.242c-7.097-5.078-18.393-7.617-33.887-7.617h-9.961c-21.615 0-36.394 8.008-44.336 24.023-5.86 12.24-14.649 18.36-26.367 18.36H407.84c-6.38 0-11.328-2.279-14.844-6.836s-5.273-9.505-5.273-14.844Zm78.125 181.25v-12.305c0-8.593 2.343-15.169 7.031-19.726 4.687-4.557 11.132-6.836 19.336-6.836h24.023c8.203 0 14.648 2.279 19.336 6.836 4.688 4.557 7.032 11.133 7.032 19.726v12.305c0 8.334-2.344 14.811-7.032 19.434-4.688 4.622-11.133 6.933-19.336 6.933h-24.023c-8.204 0-14.649-2.311-19.336-6.933-4.688-4.623-7.031-11.1-7.031-19.434Z"/><path fill="#fff" d="m589.858 102.446 117.728 68.299H552.957l-116.849-67.789-.913-.51h154.663ZM216.589 693.18l117.729 68.299h-154.63L62.84 693.69l-.914-.51h154.663Z" opacity=".276"/><path fill="#fff" d="m232.763 702.47 40.086 23.255H118.22L78.135 702.47h154.628ZM649.35 136.81l40.086 23.255H534.807l-40.086-23.255H649.35Z" opacity=".799"/><defs><linearGradient id="a" x1="574.643" x2="162.961" y1="231.429" y2="615.749" gradientUnits="userSpaceOnUse"><stop stop-color="#19062D"/><stop offset="1" stop-color="#211940"/></linearGradient><linearGradient id="b" x1="45.018" x2="653.882" y1="205.667" y2="699.79" gradientUnits="userSpaceOnUse"><stop stop-color="#FF0075"/><stop offset="1" stop-color="#FEAA58"/></linearGradient></defs></svg>