<svg xmlns="http://www.w3.org/2000/svg" width="101" height="88" fill="none"><path stroke="#000" stroke-linecap="round" stroke-linejoin="round" stroke-miterlimit="10" stroke-width="7" d="M20.4 31.6C22.9 16 39.4 4 59 4c21.5 0 37.9 14.3 37.9 31.9 0 7.7-2.2 14.8-9.9 20.3-1.2 6.2 0 12.3 1.2 16.2.4 1.5-1 2.8-2.5 2.4l-21.1-7.5c-2.1.3-3.9.4-6.1.4"/><path stroke="#000" stroke-linecap="round" stroke-linejoin="round" stroke-miterlimit="10" stroke-width="7" d="M33.3 29C16.7 29 4 40.1 4 53.8c0 5.9 1.9 11.4 7.7 15.7 1 4.3.3 8.6-.6 11.6-.4 1.5 1 3 2.5 2.4l15.2-5.3c1.6.1 3 .3 4.6.3 16.6 0 30-11.1 30-24.8C63.4 40 49.9 29 33.3 29Z"/></svg>