<svg width="35" height="35" viewBox="0 0 35 35" fill="none" xmlns="http://www.w3.org/2000/svg">
<g clip-path="url(#clip0_550_38)">
<path d="M17.4967 0.0012207C7.84902 0.0012207 0.00317383 7.84706 0.00317383 17.4948C0.00317383 27.1425 7.84902 34.9991 17.4967 34.9991C27.1444 34.9991 35.001 27.1425 35.001 17.4948C35.001 7.84706 27.1444 0.0012207 17.4967 0.0012207ZM17.4967 2.9186C25.5681 2.9186 32.0836 9.42334 32.0836 17.4948C32.0836 25.5662 25.5681 32.0817 17.4967 32.0817C9.4253 32.0817 2.92056 25.5662 2.92056 17.4948C2.92056 9.42334 9.4253 2.9186 17.4967 2.9186Z" fill="#5F479B"/>
<path d="M25.2159 10.6375L14.5798 21.2735L9.77853 16.4722C9.5053 16.2007 9.1357 16.0482 8.75045 16.0482C8.3652 16.0482 7.9956 16.2007 7.72237 16.4722C7.45078 16.7455 7.29834 17.1151 7.29834 17.5003C7.29834 17.8856 7.45078 18.2552 7.72237 18.5284L13.5571 24.3632C13.8304 24.6347 14.2 24.7871 14.5852 24.7871C14.9705 24.7871 15.3401 24.6347 15.6133 24.3632L27.2828 12.6936C27.5544 12.4204 27.7069 12.0508 27.7069 11.6656C27.7069 11.2803 27.5544 10.9107 27.2828 10.6375C27.1473 10.5014 26.9863 10.3934 26.8089 10.3197C26.6316 10.246 26.4414 10.2081 26.2494 10.2081C26.0573 10.2081 25.8672 10.246 25.6898 10.3197C25.5125 10.3934 25.3514 10.5014 25.2159 10.6375Z" fill="#5F479B"/>
</g>
<defs>
<clipPath id="clip0_550_38">
<rect width="35" height="35" fill="white"/>
</clipPath>
</defs>
</svg>
