<svg width="20" height="20" viewBox="0 0 20 20" fill="none" xmlns="http://www.w3.org/2000/svg">
<path d="M3.31096 20H16.6889C17.243 20 17.6922 19.593 17.6922 19.0909V8.78785C17.6922 8.28585 17.243 7.87877 16.6889 7.87877H15.6855V5.15152C15.6855 2.31097 13.135 0 9.99992 0C6.86487 0 4.31431 2.31097 4.31431 5.15152V7.87877H3.31096C2.75685 7.87877 2.30762 8.28585 2.30762 8.78785V19.0909C2.30762 19.593 2.75685 20 3.31096 20ZM12.8415 13.2943L9.99862 15.8701C9.80277 16.0475 9.54592 16.1364 9.28923 16.1364C9.03246 16.1364 8.77562 16.0475 8.57977 15.8701L7.15839 14.5822C6.76655 14.2272 6.76655 13.6516 7.15839 13.2965C7.55016 12.9415 8.18546 12.9415 8.57731 13.2965L9.28931 13.9415L11.4227 12.0087C11.8145 11.6536 12.4498 11.6536 12.8416 12.0087C13.2334 12.3638 13.2334 12.9393 12.8415 13.2943ZM6.32099 5.15152C6.32099 3.31352 7.97139 1.81818 9.99992 1.81818C12.0285 1.81818 13.6788 3.31352 13.6788 5.15152V7.87877H6.32099V5.15152Z" fill="#939AB3"/>
</svg>
