<svg width="81" height="35" viewBox="0 0 81 35" fill="none" xmlns="http://www.w3.org/2000/svg">
<path d="M79.7079 31.3719L41.5178 0.451555C41.1544 0.159315 40.702 0 40.2357 0C39.7693 0 39.317 0.159315 38.9536 0.451555L0.763443 31.3719C0.431617 31.6336 0.190959 31.9935 0.0758339 32.4001C-0.0392909 32.8067 -0.0229951 33.2393 0.122394 33.6361C0.261361 34.0351 0.521272 34.381 0.86596 34.6254C1.21065 34.8699 1.62297 35.0008 2.04554 35H78.4258C78.8484 35.0008 79.2607 34.8699 79.6054 34.6254C79.9501 34.381 80.21 34.0351 80.349 33.6361C80.4944 33.2393 80.5107 32.8067 80.3955 32.4001C80.2804 31.9935 80.0397 31.6336 79.7079 31.3719Z" fill="#A87FFF"/>
</svg>
