<svg width="35" height="35" viewBox="0 0 35 35" fill="none" xmlns="http://www.w3.org/2000/svg">
<path d="M15.0679 19.3561L10.2058 16.8772C10.0657 16.8057 9.92172 16.7445 9.77539 16.6922V15.9506C9.77539 15.5856 9.97593 15.2556 10.2988 15.0879L14.6281 12.9094C15.3026 12.5701 15.5745 11.7481 15.2351 11.0736C14.8957 10.3991 14.0738 10.1273 13.3992 10.4669L9.06403 12.6483C9.06082 12.6499 9.05762 12.6515 9.05441 12.6531C7.81246 13.2905 7.04102 14.5538 7.04102 15.9506V16.7843C6.97186 16.8145 6.9035 16.8468 6.83567 16.8815L2.01313 19.3563C0.771446 19.9935 0 21.257 0 22.6539V28.8062C0 30.1998 0.769043 31.4621 2.00672 32.1003L6.82926 34.5874C7.35985 34.8611 7.9425 34.9978 8.52516 34.9978C9.10461 34.9978 9.6838 34.8624 10.2122 34.5916L15.0746 32.1005C16.3176 31.4637 17.0898 30.1998 17.0898 28.8019V22.6579C17.0898 21.2573 16.3152 19.9918 15.0679 19.3561ZM3.25989 29.67C2.93571 29.5029 2.73438 29.1718 2.73438 28.8062V23.5973L7.24609 25.8398V31.7256L3.25989 29.67ZM14.3555 28.8019C14.3555 29.1686 14.1533 29.5002 13.8276 29.6668L9.98047 31.638V25.7007L11.396 24.9148C12.0561 24.5482 12.2943 23.7158 11.9276 23.0557C11.5613 22.3959 10.729 22.1575 10.0686 22.5243L8.48644 23.4029L4.23481 21.2896L8.08403 19.3144C8.22208 19.2436 8.37349 19.2081 8.52516 19.2081C8.67577 19.2081 8.82637 19.2431 8.96389 19.3131L13.826 21.7922C14.1525 21.9585 14.3555 22.2904 14.3555 22.6579V28.8019ZM32.9781 2.88144L28.116 0.402616C27.0602 -0.135714 25.8003 -0.134112 24.7458 0.406888L19.9233 2.88171C18.6816 3.51884 17.9102 4.78242 17.9102 6.17898V12.3316C17.9102 13.725 18.6789 14.9875 19.9169 15.6257L24.7394 18.1125C24.8753 18.1827 25.0145 18.2433 25.1562 18.2954V19.6177C25.1562 19.982 24.9568 20.3115 24.635 20.4794L20.3089 22.6322C19.633 22.9684 19.3577 23.7893 19.6939 24.4651C19.9332 24.9455 20.4165 25.2235 20.919 25.2235C21.1236 25.2235 21.3316 25.1775 21.5271 25.0801L25.8623 22.9228C25.8673 22.9204 25.8724 22.9177 25.8775 22.9153C27.1192 22.2779 27.8906 21.0143 27.8906 19.6177V18.2247C27.9689 18.1913 28.0463 18.156 28.1224 18.1168L32.9847 15.6257C34.2278 14.9891 35 13.725 35 12.3273V6.18326C35 4.78269 34.2253 3.51724 32.9781 2.88144ZM21.17 13.1954C20.8459 13.0283 20.6445 12.6972 20.6445 12.3316V7.12266L25.1562 9.36517V15.251L21.17 13.1954ZM32.2656 12.3273C32.2656 12.6942 32.0635 13.0256 31.7377 13.1922L27.8906 15.1634V9.22605L29.3061 8.44018C29.9662 8.07355 30.2044 7.24122 29.8378 6.58113C29.4714 5.92103 28.6391 5.68311 27.9787 6.04947L26.3966 6.928L22.145 4.815L25.9945 2.83979C26.1325 2.76903 26.2839 2.73351 26.4353 2.73351C26.5859 2.73351 26.7365 2.76849 26.874 2.83845L31.7361 5.31755C32.0627 5.48391 32.2656 5.81582 32.2656 6.18326V12.3273Z" fill="#A87FFF"/>
</svg>
