<svg width="53" height="35" viewBox="0 0 53 35" fill="none" xmlns="http://www.w3.org/2000/svg">
<path d="M46.3203 17.0257C44.3758 18.6865 41.9026 19.5991 39.3454 19.5994C39.1571 19.5994 38.9827 19.5994 38.8083 19.5994C40.2926 21.7948 41.0847 24.3847 41.0822 27.0347V35H52.3117V27.0347C52.3118 24.9804 51.7546 22.9646 50.6995 21.202C49.6444 19.4394 48.1309 17.9961 46.3203 17.0257Z" fill="#A87FFF"/>
<path d="M34.5256 15.5819C34.414 15.7214 34.3094 15.847 34.1908 15.9725C35.6839 17.0538 37.4808 17.6349 39.3243 17.6325C40.5025 17.6657 41.6753 17.4622 42.7735 17.0343C43.8717 16.6063 44.873 15.9625 45.718 15.1408C46.5631 14.3192 47.2348 13.3365 47.6935 12.2508C48.1522 11.1651 48.3885 9.99839 48.3885 8.81975C48.3885 7.64111 48.1522 6.47444 47.6935 5.38872C47.2348 4.303 46.5631 3.32027 45.718 2.49865C44.873 1.67703 43.8717 1.0332 42.7735 0.605228C41.6753 0.177253 40.5025 -0.0261742 39.3243 0.0069743C37.481 0.0055401 35.6843 0.586531 34.1908 1.667C35.8972 3.57214 36.8683 6.02332 36.9296 8.58018C36.991 11.137 36.1386 13.632 34.5256 15.6168V15.5819Z" fill="#A87FFF"/>
<path d="M12.9663 19.5925C10.4091 19.5922 7.93591 18.6796 5.99143 17.0187C4.17975 17.9896 2.66558 19.4341 1.61041 21.198C0.555242 22.962 -0.00134873 24.9792 2.45426e-06 27.0347V35H11.2296V27.0347C11.2257 24.3823 12.0178 21.7898 13.5034 19.5925C13.329 19.5925 13.1546 19.5925 12.9663 19.5925Z" fill="#A87FFF"/>
<path d="M12.9662 17.6325C14.8097 17.6349 16.6066 17.0538 18.0997 15.9725C17.9811 15.8469 17.8765 15.7214 17.7649 15.5819C16.1612 13.5997 15.3144 11.1119 15.3757 8.56294C15.437 6.01396 16.4025 3.56979 18.0997 1.66699C16.7838 0.721494 15.2327 0.15722 13.617 0.0362367C12.0012 -0.0847465 10.3833 0.242249 8.94135 0.981256C7.49939 1.72026 6.28918 2.84265 5.44383 4.22496C4.59849 5.60727 4.15076 7.19595 4.1499 8.81626C4.15359 11.1533 5.08363 13.3937 6.7362 15.0462C8.38877 16.6988 10.6291 17.6288 12.9662 17.6325Z" fill="#A87FFF"/>
<path d="M33.1307 17.0187C31.186 18.6792 28.7128 19.5914 26.1558 19.5914C23.5987 19.5914 21.1255 18.6792 19.1809 17.0187C17.3722 17.9914 15.8604 19.4353 14.8056 21.1974C13.7508 22.9595 13.1924 24.9741 13.1895 27.0277V34.993H39.1221V27.0277C39.1192 24.9741 38.5607 22.9595 37.506 21.1974C36.4512 19.4353 34.9393 17.9914 33.1307 17.0187Z" fill="#A87FFF"/>
<path d="M26.1559 17.6325C27.899 17.6311 29.6025 17.1131 31.0513 16.1438C32.5001 15.1745 33.629 13.7976 34.2954 12.1869C34.9618 10.5762 35.1358 8.80413 34.7954 7.09459C34.455 5.38505 33.6155 3.81478 32.3829 2.58223C31.1504 1.34967 29.5801 0.510146 27.8706 0.169746C26.161 -0.170653 24.389 0.00335029 22.7783 0.669768C21.1676 1.33618 19.7906 2.46511 18.8214 3.91386C17.8521 5.36262 17.334 7.06619 17.3326 8.80929C17.3363 11.1482 18.2671 13.3903 19.921 15.0442C21.5749 16.6981 23.8169 17.6288 26.1559 17.6325Z" fill="#A87FFF"/>
</svg>
