<svg width="35" height="35" viewBox="0 0 35 35" fill="none" xmlns="http://www.w3.org/2000/svg">
<g clip-path="url(#clip0_75_35)">
<path d="M30.1146 22.5311C30.1147 26.7196 26.7197 30.1146 22.5312 30.1146C19.7635 30.1146 17.3378 28.6248 16.014 26.4052C15.8175 26.0757 15.9798 25.6514 16.3476 25.5421C20.7528 24.2333 24.2333 20.7529 25.5421 16.3476C25.6513 15.9799 26.0757 15.8175 26.4052 16.014C28.6248 17.3378 30.1145 19.7635 30.1146 22.5311Z" fill="#A87FFF"/>
<path d="M35 22.5312C35 29.3921 29.3922 35 22.5312 35C17.172 35 12.592 31.6019 10.8327 26.8471C10.6851 26.4482 11.0028 26.0325 11.4269 26.0647C12.2843 26.1299 13.1702 26.1158 14.0586 26.0121C14.3039 25.9834 14.5431 26.1092 14.6506 26.3315C16.0949 29.3157 19.1849 31.3598 22.7343 31.279C27.3865 31.173 31.173 27.3865 31.279 22.7343C31.3598 19.185 29.3157 16.095 26.3317 14.6507C26.1091 14.543 25.9836 14.3036 26.0122 14.058C26.1119 13.2035 26.1327 12.3171 26.0648 11.4254C26.0326 11.002 26.4489 10.6854 26.8472 10.8327C31.6018 12.592 35 17.172 35 22.5312Z" fill="#A87FFF"/>
<path d="M12.4687 4.88541C8.28723 4.88541 4.88538 8.28727 4.88538 12.4687C4.88538 16.6502 8.28723 20.0521 12.4687 20.0521C16.6502 20.0521 20.052 16.6502 20.052 12.4687C20.052 8.28727 16.6502 4.88541 12.4687 4.88541ZM14.347 16.378C14.2264 16.4151 14.1458 16.5289 14.1458 16.6551V17.2613C14.1458 17.572 13.9113 17.8433 13.6013 17.8633C13.2615 17.8853 12.9791 17.6163 12.9791 17.2812V16.7708C12.9791 16.6098 12.8485 16.4792 12.6875 16.4792H11.7395C11.5785 16.4792 11.4479 16.6098 11.4479 16.7708V17.2613C11.4479 17.572 11.2134 17.8433 10.9033 17.8633C10.5636 17.8853 10.2812 17.6163 10.2812 17.2812V16.7708C10.2812 16.6098 10.1506 16.4792 9.98954 16.4792H9.57202C9.26132 16.4792 8.99 16.2447 8.96995 15.9346C8.948 15.5949 9.21699 15.3125 9.55204 15.3125H9.98954C10.1506 15.3125 10.2812 15.1819 10.2812 15.0208V9.91666C10.2812 9.75559 10.1506 9.625 9.98954 9.625H9.57202C9.26132 9.625 8.99 9.3905 8.96995 9.08046C8.948 8.74074 9.21699 8.45833 9.55204 8.45833H9.98954C10.1506 8.45833 10.2812 8.32774 10.2812 8.16666V7.67623C10.2812 7.36553 10.5157 7.09428 10.8258 7.07415C11.1655 7.05221 11.4479 7.3212 11.4479 7.65625V8.16666C11.4479 8.32774 11.5785 8.45833 11.7395 8.45833H12.6875C12.8485 8.45833 12.9791 8.32774 12.9791 8.16666V7.67623C12.9791 7.36553 13.2136 7.09428 13.5237 7.07415C13.8634 7.05221 14.1458 7.3212 14.1458 7.65625V8.28238C14.1458 8.4086 14.2264 8.52235 14.347 8.55947C15.9408 9.04976 16.4967 11.0255 15.3927 12.2749C15.2945 12.3859 15.2945 12.5514 15.3927 12.6624C16.4945 13.9081 15.9435 15.8868 14.347 16.378Z" fill="#A87FFF"/>
<path d="M13.6732 9.625H11.7395C11.5785 9.625 11.4479 9.75559 11.4479 9.91667V11.5938C11.4479 11.7548 11.5785 11.8854 11.7395 11.8854H13.6732C15.168 11.8854 15.1654 9.625 13.6732 9.625Z" fill="#A87FFF"/>
<path d="M11.4479 15.0208C11.4479 15.1819 11.5785 15.3125 11.7395 15.3125H13.6732C15.168 15.3125 15.1654 13.0521 13.6732 13.0521H11.7395C11.5785 13.0521 11.4479 13.1827 11.4479 13.3438V15.0208Z" fill="#A87FFF"/>
<path d="M12.4687 0C5.59344 0 0 5.59344 0 12.4687C0 19.3441 5.59344 24.9375 12.4687 24.9375C19.3441 24.9375 24.9375 19.3441 24.9375 12.4687C24.9375 5.59344 19.3441 0 12.4687 0ZM12.4687 21.2187C7.644 21.2187 3.71875 17.2935 3.71875 12.4687C3.71875 7.644 7.644 3.71875 12.4687 3.71875C17.2935 3.71875 21.2187 7.644 21.2187 12.4687C21.2187 17.2935 17.2935 21.2187 12.4687 21.2187Z" fill="#A87FFF"/>
<path d="M10.1034 31.7005L7.69202 34.0339C7.579 34.1432 7.43244 34.1979 7.2866 34.1979C6.76547 34.1979 6.50479 33.5592 6.88046 33.1953L8.25567 31.8646H5.10421C3.81723 31.8646 2.77087 30.8182 2.77087 29.5312V26.0312C2.77087 25.709 3.03192 25.4479 3.35421 25.4479C3.6765 25.4479 3.93754 25.709 3.93754 26.0312V29.5312C3.93754 30.1744 4.46108 30.6979 5.10421 30.6979H8.25494L6.88119 29.3708C6.64931 29.147 6.64275 28.778 6.8666 28.5461C7.09046 28.3143 7.46022 28.3084 7.69202 28.5323C10.3418 31.0914 10.1616 30.8906 10.2346 31.053C10.3325 31.2812 10.2701 31.5421 10.1034 31.7005Z" fill="#A87FFF"/>
<path d="M32.2291 5.46875V8.96875C32.2291 9.29104 31.9681 9.55209 31.6458 9.55209C31.3235 9.55209 31.0624 9.29104 31.0624 8.96875V5.46875C31.0624 4.82563 30.5389 4.30208 29.8958 4.30208H26.745L28.1188 5.62917C28.3507 5.85302 28.3572 6.22198 28.1334 6.45386C27.91 6.68435 27.5408 6.69288 27.308 6.46771C24.6476 3.89506 24.8589 4.11564 24.7953 4.0075C24.7203 3.88755 24.6894 3.69491 24.7544 3.51823C24.8143 3.34848 24.6941 3.49256 27.308 0.966147C27.5397 0.742147 27.9088 0.748126 28.1327 0.980001C28.3565 1.21115 28.3507 1.58083 28.1195 1.80469L26.7443 3.13542H29.8958C31.182 3.13542 32.2291 4.18177 32.2291 5.46875Z" fill="#A87FFF"/>
</g>
<defs>
<clipPath id="clip0_75_35">
<rect width="35" height="35" fill="white"/>
</clipPath>
</defs>
</svg>
