<svg width="35" height="35" viewBox="0 0 35 35" fill="none" xmlns="http://www.w3.org/2000/svg">
<g clip-path="url(#clip0_75_48)">
<path d="M31.1818 0C29.0761 0 27.3636 1.71245 27.3636 3.81818C27.3636 4.47682 27.531 5.09664 27.8256 5.63818L21.5708 11.893C20.7085 11.2216 19.6293 10.8182 18.4545 10.8182C17.2798 10.8182 16.2005 11.2216 15.3376 11.8924L10.4574 7.01209C10.6814 6.63345 10.8182 6.19818 10.8182 5.72727C10.8182 4.32345 9.67655 3.18182 8.27273 3.18182C6.86891 3.18182 5.72727 4.32345 5.72727 5.72727C5.72727 7.13109 6.86891 8.27273 8.27273 8.27273C8.74364 8.27273 9.17891 8.13591 9.55755 7.91191L14.4378 12.7922C13.7671 13.6551 13.3636 14.7344 13.3636 15.9091C13.3636 17.0838 13.7671 18.1631 14.4378 19.0254L6.37891 27.0849C5.70055 26.4695 4.80391 26.0909 3.81818 26.0909C1.71245 26.0909 0 27.8034 0 29.9091C0 32.0148 1.71245 33.7273 3.81818 33.7273C5.92391 33.7273 7.63636 32.0148 7.63636 29.9091C7.63636 29.2505 7.469 28.6306 7.17436 28.0891L15.3383 19.9252C16.0421 20.4725 16.891 20.839 17.8188 20.9555V27.4209C16.016 27.7251 14.637 29.2931 14.637 31.1818C14.637 33.2875 16.3495 35 18.4552 35C20.5609 35 22.2734 33.2875 22.2734 31.1818C22.2734 29.2937 20.8944 27.7257 19.0915 27.4209V20.9555C20.0194 20.839 20.8683 20.4725 21.5721 19.9252L26.4524 24.8055C26.2277 25.1847 26.0909 25.62 26.0909 26.0909C26.0909 27.4947 27.2325 28.6364 28.6364 28.6364C30.0402 28.6364 31.1818 27.4947 31.1818 26.0909C31.1818 24.6871 30.0402 23.5455 28.6364 23.5455C28.1655 23.5455 27.7302 23.6823 27.3515 23.9063L22.4713 19.026C23.142 18.1631 23.5455 17.0838 23.5455 15.9091C23.5455 14.7344 23.142 13.6551 22.4713 12.7928L28.6217 6.64236C29.2995 7.25773 30.1961 7.63636 31.1818 7.63636C33.2875 7.63636 35 5.92391 35 3.81818C35 1.71245 33.2875 0 31.1818 0Z" fill="#A87FFF"/>
</g>
<defs>
<clipPath id="clip0_75_48">
<rect width="35" height="35" fill="white"/>
</clipPath>
</defs>
</svg>
