<svg width="35" height="35" viewBox="0 0 35 35" fill="none" xmlns="http://www.w3.org/2000/svg">
<path d="M8.12654 27.9672C8.04874 27.7087 7.90813 27.4736 7.71727 27.2827C7.52641 27.0918 7.29125 26.9512 7.03279 26.8734C6.95539 26.6083 6.81175 26.3673 6.61539 26.1731C6.41904 25.9789 6.17645 25.8379 5.91051 25.7634C5.64457 25.689 5.36404 25.6834 5.09538 25.7474C4.82673 25.8114 4.57879 25.9428 4.37497 26.1291C4.05404 25.8414 3.63247 25.692 3.20197 25.7135C2.77146 25.735 2.36685 25.9255 2.07614 26.2438C1.78543 26.562 1.63213 26.9822 1.6496 27.4129C1.66707 27.8436 1.85389 28.2499 2.16943 28.5436C1.91743 28.6343 1.69174 28.7859 1.51239 28.9848C1.33303 29.1837 1.20556 29.4239 1.14129 29.6839C1.07702 29.9439 1.07793 30.2158 1.14395 30.4753C1.20997 30.7349 1.33905 30.9742 1.51974 31.1719C1.23699 31.4826 1.08474 31.8902 1.09462 32.3102C1.10449 32.7301 1.27573 33.1302 1.57277 33.4272C1.86982 33.7242 2.26985 33.8955 2.68982 33.9054C3.10978 33.9152 3.51742 33.763 3.8281 33.4802C4.02581 33.6609 4.26507 33.79 4.52464 33.856C4.78422 33.922 5.05608 33.923 5.31609 33.8587C5.5761 33.7944 5.81622 33.6669 6.01514 33.4876C6.21406 33.3082 6.36563 33.0825 6.45638 32.8305C6.75004 33.1461 7.1564 33.3329 7.58709 33.3504C8.01777 33.3678 8.43794 33.2145 8.75618 32.9238C9.07443 32.6331 9.26502 32.2285 9.28649 31.798C9.30796 31.3675 9.15858 30.9459 8.87083 30.625C9.05719 30.4212 9.18856 30.1732 9.25254 29.9046C9.31653 29.6359 9.31102 29.3554 9.23655 29.0895C9.16207 28.8235 9.02108 28.5809 8.82687 28.3846C8.63267 28.1882 8.39164 28.0446 8.12654 27.9672Z" fill="#A87FFF"/>
<path d="M14.4922 22.9217L13.3508 24.0625L14.3642 25.0759C14.9198 24.8834 15.4689 24.6695 16.0119 24.4426L14.4922 22.9217Z" fill="#A87FFF"/>
<path d="M16.6901 32.8486L16.8476 32.6911C19.482 30.0697 21.0635 26.5731 21.2926 22.8637C19.2884 24.1769 17.1338 25.2446 14.875 26.0438L16.6901 32.8486Z" fill="#A87FFF"/>
<path d="M7.87915 24.0598L9.83981 22.0991L12.8939 25.1532L10.9332 27.1138L7.87915 24.0598Z" fill="#A87FFF"/>
<path d="M9.92358 20.6347L10.9375 21.6475L12.0772 20.5078L10.5569 18.9875C10.3299 19.53 10.1172 20.0785 9.92358 20.6347Z" fill="#A87FFF"/>
<path d="M17.9325 17.9331C17.9895 17.8762 18.0347 17.8087 18.0655 17.7343C18.0964 17.6599 18.1122 17.5802 18.1122 17.4997C18.1122 17.4192 18.0964 17.3395 18.0655 17.2651C18.0347 17.1908 17.9895 17.1232 17.9325 17.0663C17.8173 16.9515 17.6613 16.887 17.4986 16.887C17.3359 16.887 17.1799 16.9515 17.0647 17.0663L11.7102 22.4219L12.5781 23.2887L17.9325 17.9331Z" fill="#A87FFF"/>
<path d="M23.5156 8.20312C22.8667 8.20312 22.2323 8.39557 21.6927 8.75612C21.1531 9.11666 20.7325 9.62912 20.4841 10.2287C20.2358 10.8283 20.1708 11.488 20.2974 12.1245C20.424 12.761 20.7365 13.3457 21.1954 13.8046C21.6543 14.2635 22.239 14.576 22.8755 14.7026C23.512 14.8292 24.1717 14.7642 24.7713 14.5159C25.3709 14.2675 25.8833 13.8469 26.2439 13.3073C26.6044 12.7677 26.7969 12.1333 26.7969 11.4844C26.796 10.6144 26.45 9.78031 25.8349 9.16514C25.2197 8.54997 24.3856 8.20399 23.5156 8.20312ZM23.5156 13.6719C23.083 13.6719 22.66 13.5436 22.3003 13.3032C21.9406 13.0628 21.6602 12.7212 21.4946 12.3215C21.3291 11.9218 21.2858 11.4819 21.3702 11.0576C21.4546 10.6333 21.6629 10.2435 21.9688 9.93758C22.2748 9.63165 22.6645 9.42331 23.0889 9.33891C23.5132 9.2545 23.953 9.29782 24.3527 9.46339C24.7525 9.62896 25.0941 9.90933 25.3345 10.2691C25.5748 10.6288 25.7031 11.0517 25.7031 11.4844C25.7031 12.0645 25.4727 12.6209 25.0624 13.0312C24.6522 13.4414 24.0958 13.6719 23.5156 13.6719Z" fill="#A87FFF"/>
<path d="M28.0678 2.41062C27.8257 2.4777 27.5844 2.54916 27.3438 2.625C27.3489 3.95777 27.8807 5.23448 28.8231 6.1769C29.7655 7.11932 31.0422 7.65106 32.375 7.65625C32.451 7.41617 32.5221 7.17554 32.5899 6.93273C31.4938 6.66654 30.4914 6.1054 29.6915 5.31015C28.896 4.50979 28.3345 3.50711 28.0678 2.41062Z" fill="#A87FFF"/>
<path d="M32.6982 2.3007C32.5023 2.10356 32.2638 1.95409 32.0009 1.86382C31.7381 1.77354 31.458 1.74489 31.1823 1.78008C30.4905 1.86649 29.8053 1.99063 29.1277 2.1432C29.3458 3.04774 29.8081 3.87499 30.4642 4.53469C31.1241 5.19077 31.9513 5.65325 32.8557 5.8718C33.0083 5.19367 33.1325 4.50899 33.2189 3.81719C33.2543 3.54141 33.2258 3.26118 33.1355 2.9982C33.0452 2.73522 32.8956 2.49656 32.6982 2.3007Z" fill="#A87FFF"/>
<path d="M26.2685 2.99633C23.3483 4.08635 20.6951 5.78859 18.4871 7.98875L16.7617 9.71414C14.3897 12.0945 12.4513 14.8705 11.0337 17.9173L12.8515 19.7334L16.2924 16.2925C16.4499 16.1294 16.6384 15.9994 16.8467 15.9099C17.055 15.8204 17.2791 15.7733 17.5058 15.7713C17.7325 15.7694 17.9573 15.8126 18.1672 15.8985C18.377 15.9843 18.5676 16.1112 18.7279 16.2715C18.8882 16.4318 19.015 16.6225 19.1008 16.8323C19.1866 17.0422 19.2298 17.267 19.2278 17.4937C19.2258 17.7205 19.1786 17.9445 19.0891 18.1528C18.9996 18.3611 18.8695 18.5495 18.7063 18.707L15.2649 22.1484L17.0827 23.9657C20.1294 22.548 22.9054 20.6096 25.2858 18.2377L27.0112 16.5129C29.2114 14.3047 30.9136 11.6513 32.0036 8.73086C30.5126 8.63933 29.1065 8.00579 28.0502 6.94956C26.9939 5.89333 26.3602 4.48732 26.2685 2.99633ZM23.5156 15.8594C22.6503 15.8594 21.8044 15.6028 21.0849 15.1221C20.3655 14.6413 19.8047 13.958 19.4736 13.1586C19.1425 12.3592 19.0558 11.4795 19.2246 10.6309C19.3934 9.78219 19.8101 9.00264 20.422 8.39078C21.0338 7.77893 21.8134 7.36225 22.662 7.19344C23.5107 7.02463 24.3904 7.11127 25.1898 7.4424C25.9892 7.77354 26.6725 8.33429 27.1532 9.05376C27.634 9.77322 27.8906 10.6191 27.8906 11.4844C27.8894 12.6443 27.4281 13.7565 26.6079 14.5767C25.7877 15.3969 24.6755 15.8582 23.5156 15.8594Z" fill="#A87FFF"/>
<path d="M12.1352 13.7069C8.42601 13.9355 4.92965 15.5171 2.30893 18.1519L2.15088 18.3094L8.9551 20.125C9.75428 17.866 10.822 15.7112 12.1352 13.7069Z" fill="#A87FFF"/>
<path d="M23.5156 10.3906C23.2993 10.3906 23.0878 10.4548 22.908 10.575C22.7281 10.6951 22.5879 10.866 22.5051 11.0658C22.4223 11.2657 22.4007 11.4856 22.4429 11.6978C22.4851 11.9099 22.5893 12.1048 22.7422 12.2578C22.8952 12.4107 23.0901 12.5149 23.3022 12.5571C23.5144 12.5993 23.7343 12.5777 23.9342 12.4949C24.134 12.4121 24.3049 12.2719 24.425 12.092C24.5452 11.9122 24.6094 11.7007 24.6094 11.4844C24.6094 11.1943 24.4941 10.9161 24.289 10.711C24.0839 10.5059 23.8057 10.3906 23.5156 10.3906Z" fill="#A87FFF"/>
</svg>
