<svg width="50" height="35" viewBox="0 0 50 35" fill="none" xmlns="http://www.w3.org/2000/svg">
<path d="M42.208 22.0037L40.9269 14.6085L25.2496 23.9559L9.87456 14.6067L8.59706 22.5884C8.60246 22.5776 8.61505 22.5668 8.62765 22.5542C8.44412 22.8601 8.34336 23.175 8.34336 23.4971C8.34336 26.3166 20.1774 35 24.1196 35C28.0655 35 42.4653 26.3184 42.4653 23.4971C42.4653 23.1948 42.3645 22.8979 42.208 22.0037ZM25.3719 22.3041L1.2793 7.70461L25.4385 0L49.533 7.59665L25.3719 22.3041ZM1.44484 8.9965L0 24.9941L1.44484 29.791L2.78352 24.9941L1.44484 8.9965Z" fill="#A87FFF"/>
</svg>
