<svg width="39" height="35" viewBox="0 0 39 35" fill="none" xmlns="http://www.w3.org/2000/svg">
<path d="M3.94968 4.61377H5.95975C5.01349 6.23006 4.4375 8.0932 4.3611 10.0974V10.1738H3.94968C2.41567 10.1738 1.17554 8.92779 1.17554 7.39379C1.17554 6.62385 1.48704 5.93031 1.98662 5.43073C2.4862 4.92527 3.17974 4.61377 3.94968 4.61377Z" fill="#A87FFF"/>
<path d="M38.7909 7.14106V28.4232C38.7909 29.8161 37.6565 30.9446 36.2636 30.9446H35.6229V26.6364C36.3282 26.3308 36.8161 25.6314 36.8161 24.8203V20.1889C36.8161 19.3778 36.3282 18.6784 35.6229 18.3728V12.6952C35.6229 11.3023 34.4945 10.1738 33.1015 10.1738H27.8354L27.8295 10.0974C27.7531 8.0932 27.1771 6.23006 26.2308 4.61377H36.2636C37.6565 4.61377 38.7909 5.74223 38.7909 7.14106Z" fill="#A87FFF"/>
<path d="M16.0923 0C10.3971 0 5.75396 4.50798 5.5365 10.1444H13.4122L15.5575 9.18052V10.1444H16.733V9.21578L18.7901 10.1444H26.654C26.4366 4.50798 21.7934 0 16.0923 0ZM15.5575 7.89337L11.6079 9.67422L15.5575 3.12091V7.89337ZM16.733 7.92863V3.2267L20.5886 9.66834L16.733 7.92863Z" fill="#A87FFF"/>
<path d="M26.4425 18.2082H34.4475V13.8472C34.4475 12.4484 33.3191 11.3199 31.9261 11.3199H2.78002C1.24601 11.3199 0 10.0798 0 8.54575V32.4727C0 33.8715 1.12846 35 2.52141 35H31.9261C33.3191 35 34.4475 33.8715 34.4475 32.4727V26.801H26.4425C25.3552 26.801 24.4677 25.9135 24.4677 24.8203V20.1889C24.4677 19.0957 25.3552 18.2082 26.4425 18.2082ZM4.11419 21.7464C4.11419 22.0109 3.89673 22.2284 3.62636 22.2284C3.36188 22.2284 3.14442 22.0109 3.14442 21.7464V21.4643C3.14442 21.1939 3.36188 20.9824 3.62636 20.9824C3.89673 20.9824 4.11419 21.1939 4.11419 21.4643V21.7464ZM13.5416 15.4693H6.36524C5.12511 15.4693 4.11419 16.4803 4.11419 17.7204V19.0428C4.11419 19.3073 3.89673 19.5248 3.62636 19.5248C3.36188 19.5248 3.14442 19.3073 3.14442 19.0428V17.7204C3.14442 15.9454 4.59026 14.4996 6.36524 14.4996H13.5416C13.806 14.4996 14.0235 14.717 14.0235 14.9815C14.0235 15.2519 13.806 15.4693 13.5416 15.4693Z" fill="#A87FFF"/>
<path d="M34.8353 19.3837H26.4424C26.0016 19.3837 25.6431 19.7481 25.6431 20.1889V24.8203C25.6431 25.2611 26.0016 25.6255 26.4424 25.6255H34.8353C35.282 25.6255 35.6405 25.2611 35.6405 24.8203V20.1889C35.6405 19.7481 35.282 19.3837 34.8353 19.3837ZM28.2409 23.3862C27.7531 23.3862 27.3593 22.9924 27.3593 22.5046C27.3593 22.0168 27.7531 21.623 28.2409 21.623C28.7287 21.623 29.1225 22.0168 29.1225 22.5046C29.1225 22.9924 28.7287 23.3862 28.2409 23.3862Z" fill="#A87FFF"/>
</svg>
