<svg width="24" height="26" viewBox="0 0 24 26" fill="none" xmlns="http://www.w3.org/2000/svg">
<path d="M3.49601 25.3627L13.4961 14.3627C13.8305 13.9946 14.0159 13.5151 14.0159 13.0177C14.0159 12.5204 13.8305 12.0408 13.4961 11.6727L3.49601 0.672739C3.32041 0.474759 3.10721 0.313609 2.86891 0.198619C2.63051 0.0836287 2.37161 0.0170988 2.10741 0.00288875C1.84311 -0.0113312 1.57861 0.0270488 1.32931 0.115789C1.07991 0.204539 0.85071 0.341889 0.65481 0.519889C0.45901 0.697889 0.300409 0.912989 0.188309 1.15273C0.0761087 1.39247 0.012709 1.65208 0.00170898 1.91651C-0.00939102 2.18094 0.032209 2.44493 0.123909 2.69319C0.215609 2.94145 0.35571 3.16903 0.53611 3.36274L9.31611 13.0177L0.53911 22.6727C0.18981 23.0664 0.00980883 23.5819 0.0381088 24.1074C0.0663088 24.6329 0.300609 25.1261 0.690109 25.4801C1.07961 25.834 1.59281 26.0202 2.11871 25.9982C2.64451 25.9763 3.14051 25.7479 3.49911 25.3627H3.49601Z" fill="white"/>
<path d="M12.496 25.3627L22.4961 14.3627C22.8305 13.9946 23.0159 13.5151 23.0159 13.0177C23.0159 12.5204 22.8305 12.0408 22.4961 11.6727L12.496 0.672739C12.3204 0.474759 12.1072 0.313609 11.8689 0.198619C11.6305 0.0836287 11.3716 0.0170988 11.1074 0.00288875C10.8431 -0.0113312 10.5786 0.0270488 10.3293 0.115789C10.0799 0.204539 9.85071 0.341889 9.65481 0.519889C9.45901 0.697889 9.30041 0.912989 9.18831 1.15273C9.07611 1.39247 9.01271 1.65208 9.00171 1.91651C8.99061 2.18094 9.03221 2.44493 9.12391 2.69319C9.21561 2.94145 9.35571 3.16903 9.53611 3.36274L18.3161 13.0177L9.53911 22.6727C9.18981 23.0664 9.00981 23.5819 9.03811 24.1074C9.06631 24.6329 9.30061 25.1261 9.69011 25.4801C10.0796 25.834 10.5928 26.0202 11.1187 25.9982C11.6445 25.9763 12.1405 25.7479 12.4991 25.3627H12.496Z" fill="white"/>
</svg>
