<svg width="29" height="23" viewBox="0 0 29 23" fill="none" xmlns="http://www.w3.org/2000/svg">
<path d="M1.06575 1.78825C0.51575 1.78669 0.0644769 2.23542 0.0629186 2.78542C0.0613604 3.33541 0.510084 3.78669 1.06008 3.78824L2.38008 3.79198L2.38574 1.79199L1.06575 1.78825Z" fill="#969696"/>
<path d="M27.0598 3.8619C27.6098 3.86346 28.061 3.41474 28.0626 2.86474C28.0642 2.31474 27.6154 1.86347 27.0654 1.86191L13.3155 1.82296L13.3098 3.82295L27.0598 3.8619Z" fill="#969696"/>
<path d="M12.3108 4.59602L12.3209 1.04004C12.3225 0.487037 11.8767 0.0387727 11.3237 0.0372059L4.38976 0.0175611C3.83676 0.0159944 3.3885 0.461726 3.38693 1.01472L3.37686 4.57071C3.37529 5.12371 3.82102 5.57197 4.37402 5.57354L11.308 5.59318C11.861 5.59475 12.3093 5.14802 12.3108 4.59602Z" fill="#969696"/>
<path d="M24.7212 12.8523L24.7313 9.29736C24.7329 8.74436 24.2871 8.2961 23.7341 8.29453L16.8002 8.27489C16.2472 8.27332 15.7989 8.71905 15.7973 9.27205L15.7873 12.827C15.7857 13.38 16.2314 13.8283 16.7844 13.8299L23.7184 13.8495C24.2704 13.8511 24.7197 13.4053 24.7212 12.8523Z" fill="#969696"/>
<path d="M27.0424 12.0819C27.5954 12.0834 28.0437 11.6377 28.0453 11.0847C28.0468 10.5317 27.6011 10.0835 27.0481 10.0819L25.7291 10.0781L25.7234 12.0781L27.0424 12.0819Z" fill="#969696"/>
<path d="M1.04822 10.0082C0.495223 10.0066 0.0469588 10.4523 0.0453921 11.0053C0.0438253 11.5583 0.489557 12.0066 1.04255 12.0082L14.7895 12.0471L14.7952 10.0471L1.04822 10.0082Z" fill="#969696"/>
<path d="M12.2757 21.0401L12.2857 17.4841C12.2873 16.9311 11.8416 16.4829 11.2886 16.4813L4.35461 16.4617C3.80161 16.4601 3.35334 16.9058 3.35178 17.4588L3.3417 21.0148C3.34014 21.5678 3.78587 22.0161 4.33887 22.0176L11.2728 22.0373C11.8258 22.0388 12.2741 21.5931 12.2757 21.0401Z" fill="#969696"/>
<path d="M1.03037 18.2311C0.477372 18.2296 0.0291078 18.6753 0.0275411 19.2283C0.0259744 19.7813 0.471706 20.2296 1.0247 20.2311L2.3437 20.2349L2.34937 18.2349L1.03037 18.2311Z" fill="#969696"/>
<path d="M27.0249 20.305C27.5779 20.3066 28.0261 19.8609 28.0277 19.3079C28.0293 18.7549 27.5835 18.3066 27.0305 18.305L13.2836 18.2661L13.2779 20.2661L27.0249 20.305Z" fill="#969696"/>
</svg>
