<svg width="29" height="23" viewBox="0 0 29 23" fill="none" xmlns="http://www.w3.org/2000/svg">
<g clip-path="url(#clip0_428_692)">
<path d="M1.06576 1.78833C0.515763 1.78677 0.0644896 2.2355 0.0629313 2.7855C0.0613731 3.33549 0.510097 3.78677 1.06009 3.78832L2.38009 3.79206L2.38575 1.79207L1.06576 1.78833Z" fill="white"/>
<path d="M27.0598 3.86194C27.6098 3.8635 28.061 3.41478 28.0626 2.86478C28.0642 2.31478 27.6154 1.86351 27.0654 1.86195L13.3155 1.823L13.3098 3.82299L27.0598 3.86194Z" fill="white"/>
<path d="M12.3108 4.59604L12.3209 1.04006C12.3225 0.487058 11.8767 0.0387938 11.3237 0.037227L4.38974 0.0175822C3.83674 0.0160155 3.38848 0.461747 3.38691 1.01474L3.37684 4.57073C3.37527 5.12373 3.821 5.57199 4.374 5.57356L11.308 5.5932C11.861 5.59477 12.3093 5.14804 12.3108 4.59604Z" fill="white"/>
<path d="M24.7212 12.8523L24.7313 9.29738C24.7329 8.74438 24.2871 8.29612 23.7341 8.29455L16.8002 8.27491C16.2472 8.27334 15.7989 8.71907 15.7973 9.27207L15.7873 12.827C15.7857 13.38 16.2314 13.8283 16.7844 13.8299L23.7184 13.8495C24.2704 13.8511 24.7197 13.4053 24.7212 12.8523Z" fill="white"/>
<path d="M27.0424 12.0819C27.5954 12.0834 28.0437 11.6377 28.0453 11.0847C28.0468 10.5317 27.6011 10.0835 27.0481 10.0819L25.7291 10.0781L25.7234 12.0781L27.0424 12.0819Z" fill="white"/>
<path d="M1.04824 10.0083C0.495245 10.0067 0.046981 10.4524 0.0454143 11.0054C0.0438475 11.5584 0.489579 12.0067 1.04257 12.0083L14.7895 12.0472L14.7952 10.0472L1.04824 10.0083Z" fill="white"/>
<path d="M12.2757 21.0401L12.2857 17.4841C12.2873 16.9311 11.8416 16.4829 11.2886 16.4813L4.35459 16.4617C3.80159 16.4601 3.35332 16.9058 3.35176 17.4588L3.34168 21.0148C3.34012 21.5678 3.78585 22.0161 4.33885 22.0176L11.2728 22.0373C11.8258 22.0388 12.2741 21.5931 12.2757 21.0401Z" fill="white"/>
<path d="M1.03036 18.2312C0.477362 18.2297 0.0290977 18.6754 0.027531 19.2284C0.0259643 19.7814 0.471696 20.2297 1.02469 20.2312L2.34369 20.235L2.34936 18.235L1.03036 18.2312Z" fill="white"/>
<path d="M27.0249 20.305C27.5779 20.3066 28.0261 19.8609 28.0277 19.3079C28.0293 18.7549 27.5835 18.3066 27.0305 18.305L13.2836 18.2661L13.2779 20.2661L27.0249 20.305Z" fill="white"/>
</g>
<defs>
<clipPath id="clip0_428_692">
<rect width="29" height="23" fill="white"/>
</clipPath>
</defs>
</svg>
