<svg xmlns="http://www.w3.org/2000/svg" width="53" height="57" fill="none"><path fill="url(#a)" d="M46.688 57h-28.5a5.944 5.944 0 0 1-5.938-5.937V15.438A5.944 5.944 0 0 1 18.188 9.5h28.5a5.944 5.944 0 0 1 5.937 5.938v35.625A5.944 5.944 0 0 1 46.688 57Zm-28.5-45.125a3.567 3.567 0 0 0-3.563 3.563v35.625a3.567 3.567 0 0 0 3.563 3.562h28.5a3.567 3.567 0 0 0 3.562-3.562V15.438a3.567 3.567 0 0 0-3.562-3.563h-28.5Z"/><path fill="url(#b)" d="M8.688 49.875H6.312a5.944 5.944 0 0 1-5.937-5.938v-38A5.944 5.944 0 0 1 6.313 0h28.5a5.944 5.944 0 0 1 5.937 5.938 1.188 1.188 0 0 1-2.375 0 3.567 3.567 0 0 0-3.563-3.563h-28.5A3.567 3.567 0 0 0 2.75 5.938v38A3.567 3.567 0 0 0 6.313 47.5h2.375a1.188 1.188 0 0 1 0 2.375Z"/><path fill="url(#c)" d="M41.938 40.375h-19a1.188 1.188 0 0 1 0-2.375h19a1.188 1.188 0 0 1 0 2.375Z"/><path fill="url(#d)" d="M41.938 49.875h-19a1.188 1.188 0 0 1 0-2.375h19a1.188 1.188 0 0 1 0 2.375Z"/><path fill="url(#e)" d="M41.938 30.875h-19a1.188 1.188 0 0 1 0-2.375h19a1.188 1.188 0 0 1 0 2.375Z"/><path fill="url(#f)" d="M41.938 21.375h-19a1.188 1.188 0 0 1 0-2.375h19a1.188 1.188 0 0 1 0 2.375Z"/><defs><linearGradient id="a" x1=".375" x2="51.971" y1="38.644" y2="37.844" gradientUnits="userSpaceOnUse"><stop stop-color="#679FEF"/><stop offset="1" stop-color="#A87FFF"/></linearGradient><linearGradient id="b" x1=".375" x2="51.971" y1="38.644" y2="37.844" gradientUnits="userSpaceOnUse"><stop stop-color="#679FEF"/><stop offset="1" stop-color="#A87FFF"/></linearGradient><linearGradient id="c" x1=".375" x2="51.971" y1="38.644" y2="37.844" gradientUnits="userSpaceOnUse"><stop stop-color="#679FEF"/><stop offset="1" stop-color="#A87FFF"/></linearGradient><linearGradient id="d" x1=".375" x2="51.971" y1="38.644" y2="37.844" gradientUnits="userSpaceOnUse"><stop stop-color="#679FEF"/><stop offset="1" stop-color="#A87FFF"/></linearGradient><linearGradient id="e" x1=".375" x2="51.971" y1="38.644" y2="37.844" gradientUnits="userSpaceOnUse"><stop stop-color="#679FEF"/><stop offset="1" stop-color="#A87FFF"/></linearGradient><linearGradient id="f" x1=".375" x2="51.971" y1="38.644" y2="37.844" gradientUnits="userSpaceOnUse"><stop stop-color="#679FEF"/><stop offset="1" stop-color="#A87FFF"/></linearGradient></defs></svg>