<svg xmlns="http://www.w3.org/2000/svg" width="15" height="14" fill="none"><path fill="#FDFDFD" d="M2.917.779H5.61a.583.583 0 0 1 .08 1.161l-.08.006H2.917a1.75 1.75 0 0 0-1.746 1.63l-.004.12v7.389c0 .926.72 1.684 1.63 1.746l.12.004h7.39a1.75 1.75 0 0 0 1.745-1.63l.004-.12v-.387a.583.583 0 0 1 1.162-.08l.005.08v.387a2.917 2.917 0 0 1-2.762 2.912l-.155.005h-7.39A2.917 2.917 0 0 1 .005 11.24L0 11.085v-7.39A2.917 2.917 0 0 1 2.762.784l.155-.004H5.61 2.917Zm6.03 1.96V.585c0-.486.55-.747.924-.475l.064.054 4.662 4.472a.583.583 0 0 1 .06.776l-.06.066-4.662 4.474a.584.584 0 0 1-.982-.338l-.005-.083V7.41l-.267.023C6.814 7.63 5.025 8.47 3.302 9.97a.583.583 0 0 1-.962-.512c.518-4.137 2.681-6.418 6.375-6.704l.233-.015V.585v2.154Zm1.168-.787v1.355a.583.583 0 0 1-.584.583c-3.013 0-4.88 1.304-5.687 4.011l-.061.217.274-.184c1.74-1.137 3.567-1.71 5.474-1.71.295 0 .54.219.578.504l.005.079v1.355l3.237-3.105-3.237-3.105Z"/></svg>