<svg xmlns="http://www.w3.org/2000/svg" width="32" height="33" fill="none"><path fill="#FFC263" d="M31.24 16.056c0 3.404-1.03 6.56-2.788 9.158-2.822 4.17-7.517 5.893-12.831 5.893-8.626 0-14.658-6.183-14.658-15.05 0-5.463 1.691-10.287 5.745-13.188A15.257 15.257 0 0 1 15.62 0C24.247 0 31.24 7.189 31.24 16.056Z"/><path fill="#FFAA5A" d="M29.431 14.587c-.65-6.663-5.902-12.062-12.384-12.73-3.398-.35-6.57.566-9.137 2.34-.799.552-1.788-.469-1.24-1.283l.036-.046C2.068 6.19-.742 12.034.172 18.47c.98 6.904 6.382 12.457 13.099 13.465 6.26.939 11.948-1.953 15.18-6.721l-.05.037c-.793.563-1.783-.45-1.245-1.271 1.725-2.639 2.616-5.9 2.275-9.393Z"/><path fill="#FFF4D6" d="M15.62 28.545c6.71 0 12.15-5.592 12.15-12.489 0-6.897-5.44-12.488-12.15-12.488-6.708 0-12.147 5.591-12.147 12.489 0 6.896 5.439 12.488 12.148 12.488Z"/><path fill="#fff" d="M15.62 26.76c5.75 0 10.413-4.793 10.413-10.704 0-5.912-4.662-10.704-10.413-10.704S5.207 10.144 5.207 16.056c0 5.911 4.662 10.704 10.413 10.704Z"/><path fill="#4E3D4D" d="M24.296 16.949H15.62a.856.856 0 0 1-.613-.262l-5.207-5.352a.91.91 0 0 1 0-1.261.85.85 0 0 1 1.227 0l4.953 5.09h8.318c.48 0 .867.4.867.893a.88.88 0 0 1-.868.892Z"/><path fill="#FF8B57" d="M15.62 8.92a.88.88 0 0 1-.868-.892v-.892a.88.88 0 0 1 .868-.892c.48 0 .868.4.868.892v.892a.88.88 0 0 1-.868.892ZM15.62 25.867a.88.88 0 0 1-.868-.892v-.892a.88.88 0 0 1 .868-.892c.48 0 .868.4.868.892v.893a.88.88 0 0 1-.868.892ZM7.81 16.948h-.868a.88.88 0 0 1-.868-.892.88.88 0 0 1 .868-.892h.868c.48 0 .867.4.867.892a.88.88 0 0 1-.867.892Z"/><path fill="#FFAA5A" d="M15.62 17.84c.959 0 1.736-.8 1.736-1.785 0-.985-.777-1.784-1.736-1.784-.958 0-1.735.8-1.735 1.784 0 .986.777 1.785 1.735 1.785Z"/></svg>