<svg xmlns="http://www.w3.org/2000/svg" width="176" height="162" fill="none"><path fill="url(#a)" d="M22.221 0h130.722c12.272 0 22.22 9.859 22.22 22.021v117.414c0 12.161-9.948 22.02-22.22 22.02H22.221C9.949 161.455 0 151.596 0 139.435V22.021C0 9.859 9.949 0 22.221 0Z"/><path fill="#AEAFBF" d="M68.134 72.12c.543-.01.988.324 1.45.567l43.92 32.28a3.5 3.5 0 0 1-4.146 5.641L67.47 79.821l-41.066 28.994a3.5 3.5 0 1 1-4.037-5.718l43.125-30.449.988-.485c1.074-.007.522.006 1.654-.043Z"/><path fill="#AEAFBF" d="M120.453 75.84c.543-.01.988.324 1.45.567l30.947 22.732a3.501 3.501 0 0 1-4.144 5.641l-28.915-21.24-22.06 15.586a3.499 3.499 0 0 1-4.878-.84 3.499 3.499 0 0 1 .839-4.877l24.12-17.04.987-.486c1.074-.007.522.006 1.654-.043ZM94.67 48.1c7.964 0 14.42 6.457 14.42 14.42 0 7.965-6.456 14.42-14.42 14.42-7.964 0-14.42-6.455-14.42-14.42 0-7.963 6.456-14.42 14.42-14.42Zm0 7a7.42 7.42 0 1 0 0 14.84 7.42 7.42 0 0 0 0-14.84Z"/><path fill="#AEAFBF" d="M137.802 30.008c10.176 0 18.38 8.249 18.38 18.38v64.8c0 10.093-8.167 18.26-18.26 18.26h-12.72c-.748-.076-.488.02-.822-.12H37.962c-10.506 0-18.98-8.339-18.98-18.86v-63.96c0-10.213 8.287-18.5 18.5-18.5h100.32Zm0 7H37.482c-6.347 0-11.5 5.153-11.5 11.5v63.96c0 6.63 5.315 11.86 11.98 11.86h87.24c.747.075.487-.021.821.12h11.899a11.25 11.25 0 0 0 11.26-11.26v-64.8c0-6.273-5.079-11.38-11.38-11.38Z"/><defs><linearGradient id="a" x1="86.949" x2="86.526" y1="4.183" y2="156.018" gradientUnits="userSpaceOnUse"><stop stop-color="#31394B"/><stop offset="1" stop-color="#262C3B"/></linearGradient></defs></svg>