<svg xmlns="http://www.w3.org/2000/svg" width="199" height="185" fill="none"><g filter="url(#a)"><path fill="#000" fill-opacity=".498" d="M164.943 12c12.272 0 22.22 9.859 22.22 22.021v117.414c0 12.161-9.948 22.02-22.22 22.02H34.221c-12.272 0-22.221-9.859-22.221-22.02V34.021C12 21.859 21.949 12 34.221 12h130.722Z"/></g><path fill="url(#b)" d="M34.221 12h130.722c12.272 0 22.22 9.859 22.22 22.021v117.414c0 12.161-9.948 22.02-22.22 22.02H34.221c-12.272 0-22.221-9.859-22.221-22.02V34.021C12 21.859 21.949 12 34.221 12Z"/><path fill="#AEAFBF" d="M151.983 42.627c7.465.001 13.3 6.781 13.3 14.901v70.399c0 8.12-5.835 14.901-13.3 14.901h-104.8c-7.465 0-13.3-6.781-13.3-14.9V57.527c0-8.119 5.835-14.899 13.3-14.899l104.8-.001Zm6.3 23.7h-117.4v61.6c0 4.468 2.954 7.901 6.3 7.901h104.8c3.346 0 6.3-3.433 6.3-7.9v-61.6Zm-6.3-16.7h-104.8c-3.346.001-6.3 3.433-6.3 7.901v1.8h117.4v-1.801c0-4.467-2.954-7.899-6.3-7.899v-.001Z"/><path fill="#AEAFBF" d="M84.245 75.198c1.646.367.966.115 2.086.622l39.399 20.6.025.013c3.971 2.118 3.971 7.759-.025 9.89l-39.456 20.629c-3.703 1.852-8.065-.803-8.065-4.931V80.722c.078-2.429 1.588-4.57 3.971-5.295.663-.202 1.377-.153 2.065-.229Zm.964 7.934v36.479l34.884-18.239-34.884-18.24Z"/><defs><linearGradient id="b" x1="98.949" x2="98.526" y1="16.183" y2="168.018" gradientUnits="userSpaceOnUse"><stop stop-color="#31394B"/><stop offset="1" stop-color="#262C3B"/></linearGradient><filter id="a" width="198.162" height="184.455" x=".5" y=".5" color-interpolation-filters="sRGB" filterUnits="userSpaceOnUse"><feFlood flood-opacity="0" result="BackgroundImageFix"/><feBlend in="SourceGraphic" in2="BackgroundImageFix" result="shape"/><feGaussianBlur result="effect1_foregroundBlur_309_180" stdDeviation="5.75"/></filter></defs></svg>