<svg xmlns="http://www.w3.org/2000/svg" width="72" height="72" fill="none"><path stroke="#66EACC" stroke-linecap="round" stroke-linejoin="round" stroke-width="7" d="M68 36c0 17.684-14.316 32-32 32C18.316 68 4 53.684 4 36 4 18.316 18.316 4 36 4c17.684 0 32 14.316 32 32Z"/><path fill="#66EACC" d="M31.958 40.379c0-1.067.168-1.965.449-2.751.28-.73.786-1.46 1.46-2.077 1.01-.955 1.908-1.797 2.75-2.526a42.199 42.199 0 0 0 2.19-2.022 9.262 9.262 0 0 0 1.404-1.796c.336-.562.505-1.123.505-1.74 0-1.18-.393-2.078-1.123-2.751-.73-.674-1.684-1.01-2.75-1.01-1.685 0-2.976.448-3.818 1.403-.899.954-1.348 2.077-1.46 3.368l-8.253-.561c.393-3.818 1.797-6.681 4.21-8.702 2.415-1.965 5.503-2.976 9.264-2.976 1.628 0 3.2.225 4.66.674 1.46.45 2.75 1.123 3.817 2.021 1.123.898 1.965 2.021 2.639 3.313.617 1.347.954 2.863.954 4.547 0 1.067-.112 1.965-.337 2.807-.224.842-.561 1.684-1.122 2.47-.506.842-1.18 1.684-2.022 2.526-.842.843-1.908 1.74-3.2 2.751-.842.618-1.403 1.291-1.684 1.853-.28.617-.449 1.235-.449 1.853v1.572h-8.084v-2.246Zm-.954 10.33c0-.674.112-1.348.392-1.91.225-.617.618-1.122 1.067-1.571.45-.45.954-.786 1.572-1.067.618-.224 1.235-.393 1.909-.393.673 0 1.347.113 1.909.393.617.225 1.122.618 1.572 1.067.449.45.786.954 1.066 1.572.225.617.393 1.235.393 1.909 0 .673-.112 1.347-.393 1.908-.224.618-.617 1.123-1.066 1.572-.45.45-.955.786-1.572 1.067-.618.225-1.236.393-1.91.393-.673 0-1.346-.112-1.908-.393-.617-.224-1.123-.617-1.572-1.067a5.183 5.183 0 0 1-1.067-1.572c-.224-.56-.393-1.235-.393-1.908Z"/></svg>