<svg xmlns="http://www.w3.org/2000/svg" width="682" height="1092" fill="none"><g stroke-linecap="round" stroke-linejoin="round" stroke-miterlimit="10" stroke-width=".5" clip-path="url(#a)"><path stroke="url(#b)" d="M543.175 466.988c-24.23-1.703-46.363 15.043-70.515 16.026-30.362 1.067-54.968-22.188-79.614-39.753-24.645-17.565-61.04-29.71-83.055-8.934-16.932 15.814-15.962 43.449-6.23 64.461s25.872 38.109 37.8 58.072c10.74 18.345 17.723 39.181 19.899 60.317 3.283 30.616-3.244 62.148 2.156 92.546 5.4 30.398 28.899 61.752 59.855 59.737 29.61-1.975 48.4-32.013 59.398-59.439 11.254-27.485 22.706-58.802 50.062-70.534 15.032-6.45 32.815-5.691 46.423-14.786 48.144-31.954 25.455-153.565-36.179-157.713Z"/><path stroke="url(#c)" d="M361.856 711.482c1.8 10.133 5.261 20.422 10.404 29.783 10.464 19.49 27.613 33.919 48.283 34.281 12.797.288 24.013-3.927 33.883-11.617 13.568-10.439 24.625-27.059 32.418-43.737 10.938-24.166 20.986-52.184 40.291-68.276 2.928-2.57 6.231-4.686 9.593-6.545 14.222-7.614 31.134-8.277 45.078-18.262 6.943-5.121 13.134-11.15 17.881-18.738 7.18-11.126 9.85-24.186 11.136-38.548 1.285-17.878.098-37.078-4.51-54.676-4.194-15.8-11.097-30.434-20.493-41.786-10.463-12.458-24.072-20.944-40.054-22.119-24.23-1.703-46.225 14.47-70.574 15.77-30.303 1.323-54.078-21.853-79.614-36.237-10.582-5.939-23.261-9.23-35.901-11.178-13.47-2.025-27.434-1.503-39.935 3.009-5.796 1.88-11.097 4.728-15.844 8.801-17.564 15.419-17.109 43.173-8.406 64.423 4.174 9.855 9.515 18.899 15.627 27.764 6.982 10.288 14.162 20.259 20.492 31.238 10.8 18.601 17.268 39.556 20.532 60.711 2.393 16.216 3.837 31.841 4.767 47.584.673 15.803 1.979 32.001 4.946 48.355Z"/><path stroke="url(#d)" d="M360.095 713.242c1.919 10.646 5.182 21.252 10.127 30.928 10.068 20.123 26.822 35.185 47.136 37.522 12.778 1.375 24.665-1.102 35.861-7.747 15.21-9.195 28.443-25.777 37.344-43.522 12.421-24.78 22.37-54.397 40.548-71.852 2.868-2.827 5.854-5.14 9.158-7.256 13.41-8.779 29.452-10.864 43.475-21.678 7.339-5.753 14.499-12.277 20.017-20.044 8.802-12.312 10.978-26.339 12.165-42.301 1.384-19.794 1.127-40.832-3.383-60.346-4.035-17.46-10.781-33.753-21.106-46.784-11.077-13.939-26.327-23.668-43.911-24.744-24.23-1.703-46.285 14.214-70.634 15.513-30.184 1.837-53.188-21.517-79.357-32.78-11.492-5.188-25.12-5.554-38.689-5.664-14.4-.188-29.353 1.915-43.654 6.843-6.25 2.256-12.699 4.828-18.158 9.336-17.94 14.965-18.256 42.898-10.324 64.326 3.659 9.973 8.743 19.077 14.4 28.318 6.468 10.406 13.707 20.634 19.78 31.673 10.602 18.917 17.129 40.129 21.165 61.105 3.402 17.065 6.765 32.787 9.356 48.688 2.394 16.216 5.479 33.084 8.684 50.466Z"/><path stroke="url(#e)" d="M358.394 715.258c1.978 10.903 5.044 21.825 9.851 32.074 9.732 21.012 26.09 36.706 46.246 40.703 13.074 2.658 25.575 1.663 37.522-4.074 16.595-7.892 32.32-24.239 42.328-43.051 13.648-25.334 23.815-56.354 40.865-75.171 2.551-3.024 5.479-5.594 8.722-7.967 12.6-9.944 27.771-13.45 41.874-25.094 7.932-6.702 15.863-13.404 22.351-21.665 10.681-13.558 12.105-28.493 13.193-46.055 1.226-21.652 2.215-44.33-2.256-66.017-3.817-18.863-10.721-37.012-21.916-51.465-11.947-15.361-28.523-26.136-47.769-27.368-24.23-1.703-46.403 13.7-70.633 15.513-30.125 2.093-54.949-16.242-79.416-29.521-13.411-1.769-27.237-1.82-41.736-.092-15.072 1.59-31.331 5.078-47.372 10.678-7.022 2.435-14.301 4.928-20.215 9.811-18.514 14.828-19.463 42.366-12.303 63.972 3.403 10.033 8.031 19.512 13.372 28.556 6.27 10.722 13.055 21.326 19.127 32.364 10.404 19.234 16.932 40.446 21.798 61.5 4.411 17.914 9.633 33.477 13.747 50.108 4.51 15.997 9.119 33.595 12.62 52.261Z"/><path stroke="url(#f)" d="M356.949 717.215c2.294 11.1 4.965 22.655 9.574 33.22 9.138 21.961 25.358 38.228 45.157 44.2 13.372 3.943 26.228 4.487 39.501-.203 18.237-6.649 36.137-22.958 47.253-42.837 14.815-26.145 25.318-58.054 41.379-78.806 2.492-3.281 5.103-6.048 7.971-8.875 11.789-11.109 26.09-16.037 40.272-28.511 8.327-7.334 17.287-14.274 24.487-22.97 12.303-14.745 13.232-30.647 14.221-49.809 1.325-23.568 2.986-48.024-1.128-71.687-3.66-20.522-10.721-40.529-22.47-56.206-12.561-16.842-30.778-28.86-51.428-30.309-24.231-1.703-46.522 13.186-70.693 15.256-30.006 2.607-55.047-14.325-79.159-26.064-14.4-.188-29.096 1.856-44.584 5.165-16.002 3.428-33.507 8.555-50.834 14.453-7.793 2.613-15.586 5.225-22.272 10.287-18.889 14.373-20.61 42.089-14.221 63.874 2.888 10.152 7.259 19.69 12.402 29.05 5.756 10.841 12.343 21.761 18.158 32.859 10.207 19.55 16.794 41.019 22.431 61.895 5.163 18.822 12.561 34.423 18.337 51.21 5.518 16.847 11.591 34.918 15.646 54.808Z"/><path stroke="url(#g)" d="M355.189 718.974c2.413 11.614 5.143 23.425 9.297 34.366 8.743 22.593 24.685 40.006 44.01 47.441 13.668 5.226 27.198 7.509 41.162 3.47 19.622-5.346 39.698-21.617 52.238-42.367 16.041-26.698 26.505-59.951 41.636-82.381 2.433-3.538 4.984-6.562 7.536-9.586 10.978-12.274 24.151-18.564 38.669-31.928 8.664-8.223 18.652-15.4 26.821-24.591 13.925-15.931 14.36-32.801 15.31-53.306 1.166-25.424 4.014-51.778.256-77.417-3.501-22.181-10.662-43.787-23.281-60.886-13.431-18.264-32.974-31.329-55.285-32.934-24.231-1.703-46.641 12.672-70.693 15.256-29.947 2.864-54.889-12.469-79.159-22.548-15.646 1.452-30.956 5.531-47.373 10.678-16.931 5.266-35.485 11.717-54.552 18.288-8.565 2.791-17.189 5.325-24.586 10.821-19.207 14.176-21.758 41.814-16.397 63.836 2.63 10.211 6.488 19.869 11.433 29.545 5.558 11.157 11.887 22.137 17.505 33.551 10.009 19.866 16.655 41.591 23.004 62.033 6.172 19.671 15.488 35.369 22.728 52.63 7.833 16.311 15.429 35.112 19.721 56.029Z"/><path stroke="url(#h)" d="M353.488 720.989c2.473 11.871 5.005 23.998 9.02 35.512 8.407 23.482 23.954 41.528 43.121 50.622 13.964 6.51 27.85 10.333 43.14 7.34 21.263-4.102 43.515-20.335 57.163-42.152 17.267-27.252 27.948-61.907 42.15-86.017 2.116-3.734 4.609-7.015 7.101-10.296 10.166-13.439 22.469-21.151 37.265-35.66 9.316-8.915 20.076-16.271 28.898-26.154 15.546-17.117 15.487-34.955 16.337-57.06 1.266-27.34 4.787-55.472 1.384-83.086-3.086-23.901-10.345-47.107-23.894-65.884-14.044-19.746-35.169-33.797-59.142-35.559-24.231-1.703-46.76 12.159-70.753 14.999-29.828 3.378-54.928-10.296-79.159-19.031-16.892 3.092-33.071 9.266-50.478 15.993-17.92 6.847-37.403 15.136-58.014 22.064-9.019 3.166-18.79 5.424-26.643 11.296-19.78 14.038-22.964 41.281-18.375 63.482 2.117 10.33 5.717 20.047 10.405 29.782 5.044 11.277 11.175 22.572 16.852 34.243 9.811 20.182 16.517 42.164 23.638 62.427 7.18 20.52 18.415 36.316 27.316 53.734 8.961 17.674 18.336 37.145 22.668 59.405Z"/><path stroke="url(#i)" d="M352.046 722.946c2.591 12.384 4.925 24.828 8.743 36.658 8.011 24.115 23.024 43.365 41.973 53.862 14.262 7.794 28.76 13.098 45.059 10.954 22.905-2.859 47.076-18.994 62.148-41.681 18.493-27.806 29.392-63.864 42.466-89.336 2.057-3.991 4.233-7.469 6.409-10.948 9.355-14.604 20.729-23.994 35.662-39.076 9.653-9.805 21.441-17.398 31.292-27.518 17.425-18.363 16.614-37.109 17.623-60.874 1.107-29.197 5.815-59.226 2.57-88.5-2.868-25.303-10.285-50.366-24.448-70.624-14.914-21.167-37.167-36.581-62.742-38.243-24.23-1.703-46.878 11.645-70.811 14.742-29.769 3.634-54.771-8.439-78.962-15.831-18.078 4.99-34.931 12.942-53.266 21.507-18.593 8.625-39.382 18.298-61.733 25.898-9.791 3.344-20.076 5.722-28.7 11.772-20.097 13.841-24.112 41.005-20.294 63.384 1.859 10.389 5.005 20.482 9.178 30.336 4.846 11.593 10.721 22.948 16.141 34.678 9.554 20.242 16.635 42.678 24.27 62.822 8.189 21.369 21.343 37.262 31.905 54.837 9.732 17.495 20.631 37.697 25.517 61.181Z"/><path stroke="url(#j)" d="M350.286 724.705c2.65 12.641 4.846 25.658 8.466 37.804 7.675 25.004 22.351 45.143 40.826 57.103 14.617 9.334 29.413 15.922 46.779 14.884 24.29-1.557 50.894-17.713 67.073-41.468 19.463-28.3 30.836-65.82 42.981-92.97 1.74-4.189 3.798-8.181 5.914-11.916 8.545-15.769 19.048-26.581 34.06-42.493 9.989-10.693 23.123-18.327 33.369-29.08 19.047-19.549 17.742-39.262 18.651-64.627 1.207-31.114 6.587-62.921 3.698-94.17-2.71-26.963-10.226-53.626-25.259-75.306-15.468-22.391-39.362-39.048-66.599-40.868-24.23-1.703-46.937 11.389-70.812 14.743-29.649 4.147-54.869-6.523-78.961-12.316-19.325 6.63-37.047 16.677-56.055 27.021-19.523 10.462-41.558 21.776-65.452 29.732-10.562 3.523-21.678 5.822-31.014 12.307-20.413 13.643-25.259 40.729-22.212 63.287 1.345 10.508 4.233 20.66 8.209 30.83 4.331 11.712 10.008 23.383 15.487 35.37 9.356 20.558 16.438 42.994 24.904 63.217 9.455 22.158 24.27 38.208 36.296 56.256 12.165 17.474 24.528 38.149 29.651 62.66Z"/><path stroke="url(#k)" d="M348.585 726.722c2.71 12.897 4.708 26.23 8.189 38.949 7.022 25.696 21.739 47.179 39.679 60.343 14.657 10.678 30.323 18.688 48.698 18.498 25.931-.313 54.454-16.371 72.058-40.996 20.63-29.111 32.022-67.718 43.237-96.547a201.772 201.772 0 0 1 5.222-12.566c7.734-16.935 17.109-29.109 32.458-45.91 10.385-11.326 24.488-19.454 35.762-30.444 20.927-20.795 18.87-41.417 19.68-68.382 1.048-32.97 7.615-66.675 4.826-99.84-2.552-28.622-10.168-56.885-25.814-80.047-16.338-23.812-41.557-41.516-70.199-43.552-24.23-1.703-47.056 10.876-70.87 14.486-29.591 4.405-54.969-4.606-78.704-8.858-20.571 8.27-38.907 20.352-59.162 32.336-20.452 12.3-43.535 24.938-68.912 33.508-11.334 3.701-23.222 6.178-33.072 12.782-20.67 13.703-26.406 40.454-24.388 63.249 1.088 10.567 3.462 20.838 7.181 31.068 4.134 12.028 9.553 23.758 14.775 35.805 9.159 20.874 16.556 43.507 25.794 63.552 10.463 23.006 27.138 38.898 40.885 57.359 13.371 18.007 27.257 39.411 32.677 65.207Z"/><path stroke="url(#l)" d="M346.882 728.738c2.828 13.411 4.628 27.06 7.912 40.096 6.686 26.584 20.809 49.016 38.789 63.524 14.953 11.961 31.035 21.768 50.419 22.427 27.573.931 58.212-15.346 76.982-40.782 21.857-29.665 33.467-69.674 43.495-100.122 1.622-4.702 3.046-9.089 4.787-13.278 6.923-18.099 15.369-31.952 31.113-49.385 10.978-12.274 25.912-20.324 37.839-32.006 22.608-21.725 19.997-43.571 20.708-72.136 1.147-34.886 8.386-70.369 5.953-105.51-2.393-30.281-10.167-60.401-26.426-85.044-16.952-25.294-43.813-44.241-74.116-46.434-24.23-1.703-47.174 10.362-70.93 14.229-29.472 4.918-54.75-2.493-78.763-5.599-21.817 9.911-40.766 24.028-61.95 37.85-21.441 13.881-45.454 28.356-72.631 37.342-11.848 3.82-24.567 6.219-35.129 13.258-20.986 13.505-27.612 39.921-26.366 62.894.574 10.687 2.749 21.273 6.211 31.563 3.877 12.087 8.842 24.193 14.123 36.497 8.961 21.19 16.675 44.021 26.426 63.946 11.473 23.856 30.066 39.845 45.475 58.463 14.954 18.993 30.362 41.128 36.079 68.207Z"/><path stroke="url(#m)" d="M345.379 730.437c2.888 13.668 4.549 27.89 7.635 41.242 6.35 27.474 19.879 50.854 37.642 66.764 15.052 13.562 31.944 24.534 52.337 26.042 28.958 2.233 61.772-14.006 81.967-40.312 23.083-30.218 34.911-71.631 44.069-103.5 1.305-4.9 2.67-9.543 4.292-14.245 6.112-19.264 13.687-34.539 29.511-52.802 11.314-13.164 27.276-21.451 39.915-33.568 24.23-22.911 20.868-45.665 21.738-75.89.988-36.743 9.414-74.123 7.08-111.18-2.176-31.684-10.108-63.661-27.238-89.725-17.821-26.716-46.008-46.709-77.972-49.059-24.488-1.643-47.294 9.849-70.93 14.229-29.413 5.175-54.85-.577-78.506-2.142-23.004 11.808-42.883 27.763-64.997 43.422-22.37 15.719-47.688 31.578-76.092 41.118-12.56 4.255-26.109 6.575-37.443 13.792-21.303 13.309-28.76 39.646-28.285 62.797.317 10.746 1.978 21.452 4.985 32.117 3.363 12.206 8.13 24.628 13.411 36.932 8.763 21.506 16.794 44.534 27.059 64.341 12.739 24.645 32.993 40.791 49.866 59.882 16.813 18.834 33.745 41.699 39.956 69.745Z"/><path stroke="url(#n)" d="M343.679 732.454c3.007 14.181 4.412 28.463 7.359 42.387 5.954 28.107 19.207 52.633 36.494 70.005 15.409 15.102 32.598 27.358 54.316 29.912 30.599 3.477 65.59-12.724 86.892-40.097 23.993-30.97 36.355-73.588 44.326-107.076 1.246-5.157 2.551-10.057 3.6-14.897 5.301-20.429 11.689-37.323 27.849-56.475 11.71-13.796 28.958-22.38 42.309-34.933 26.109-24.156 21.995-47.819 22.825-79.386 1.088-38.66 10.443-77.878 8.267-116.594-2.018-33.344-9.792-66.98-27.791-94.466-18.436-28.197-48.204-49.176-81.573-51.743-24.487-1.643-47.412 9.335-71.247 14.032-29.293 5.688-54.691 1.28-78.506 1.374-23.992 13.389-44.741 31.438-67.844 48.678-23.043 17.498-49.607 34.997-79.811 44.953-13.332 4.433-27.395 6.872-39.56 14.011-21.619 13.111-29.906 39.37-30.203 62.699-.198 10.865 1.207 21.63 3.956 32.355 3.165 12.522 7.675 25.004 12.502 37.683 8.564 21.822 16.852 44.791 27.692 64.736 13.747 25.493 35.92 41.737 54.454 60.985 18.791 19.189 37.187 42.526 43.694 71.857Z"/><path stroke="url(#o)" d="M341.976 734.47c3.066 14.438 4.332 29.292 7.081 43.533 5.618 28.995 18.337 54.727 35.605 73.186 15.448 16.445 33.566 30.38 56.036 33.842 32.301 4.977 69.15-11.384 91.818-39.883 25.219-31.524 37.798-75.545 44.839-110.711.93-5.354 2.176-10.511 3.165-15.608 4.49-21.594 10.008-39.91 26.247-59.892 12.046-14.685 30.323-23.507 44.386-36.494 27.731-25.343 23.122-49.973 24.111-83.2.929-40.516 11.214-81.572 9.394-122.264-1.602-35.062-9.732-70.239-28.602-99.147-19.306-29.619-50.459-51.901-85.43-54.367-24.487-1.644-47.471 9.077-71.247 14.031-29.234 5.945-54.79 3.196-78.308 4.574-25.239 15.03-46.858 35.173-70.633 54.192-24.032 19.078-51.585 38.158-83.53 48.787-14.103 4.612-28.997 6.972-41.616 14.487-21.877 13.17-31.114 38.836-32.439 62.404-.455 10.924.436 21.808 2.987 32.849 2.651 12.641 6.963 25.439 11.789 38.118 8.367 22.139 16.972 45.305 28.326 65.13 15.013 26.283 38.848 42.684 58.786 62.148 20.512 19.603 40.43 43.67 47.235 74.285Z"/><path stroke="url(#p)" d="M340.475 736.169c3.383 14.636 4.51 30.063 6.805 44.679 5.222 29.628 17.407 56.565 34.457 76.426 15.547 18.046 34.219 33.205 57.955 37.456 33.685 6.28 72.711-10.042 96.802-39.412 26.386-32.335 39.302-77.244 45.097-114.287.871-5.61 1.8-10.964 2.73-16.318 3.679-22.759 8.07-42.437 24.902-63.368 12.639-15.633 31.746-24.377 46.779-37.859 29.61-26.588 24.249-52.127 25.139-86.954 1.028-42.432 12.303-85.068 10.522-127.934-1.444-36.722-9.673-73.498-29.156-103.887-19.919-31.1-52.398-54.428-89.287-56.992-24.487-1.644-47.59 8.564-71.306 13.774-29.116 6.459-54.83 5.369-78.308 8.091-26.485 16.67-48.718 38.848-73.739 59.507-24.962 20.916-53.761 41.637-86.991 52.562-14.617 4.731-30.283 7.27-43.931 15.022-22.193 12.973-32.26 38.561-34.357 62.307-.969 11.043-.276 22.243 2.018 33.343 2.453 12.957 6.508 25.815 11.136 38.81 8.17 22.455 17.091 45.818 28.959 65.525 16.219 26.816 41.716 43.373 63.434 63.508 21.343 19.681 43.298 44.36 50.34 76.001Z"/><path stroke="url(#q)" d="M338.774 738.185c3.502 15.149 4.372 30.636 6.528 45.825 4.629 30.576 16.477 58.402 33.31 79.667 15.646 19.645 35.129 35.969 59.676 41.385 35.327 7.524 76.528-8.76 101.727-39.198 27.613-32.888 40.489-79.141 45.414-117.605.811-5.868 1.424-11.419 1.978-17.227 2.868-23.924 6.329-45.281 23.3-66.784 12.975-16.523 33.111-25.504 48.855-39.421 31.292-27.518 25.378-54.281 26.168-90.708 1.127-44.348 13.074-88.763 11.65-133.604-1.227-38.125-9.614-76.758-29.77-108.885-20.73-32.265-54.652-57.153-92.887-59.676-24.487-1.644-47.708 8.05-71.365 13.518-29.057 6.715-54.671 7.225-78.308 11.606-27.731 18.31-50.893 42.327-76.528 65.021-25.891 22.753-55.739 44.798-90.709 56.397-15.33 5.165-31.826 7.626-45.988 15.497-22.51 12.775-33.408 38.285-36.276 62.209-1.226 11.103-.791 22.362.732 33.641 1.939 13.076 5.796 26.249 10.484 39.501 7.971 22.771 17.149 46.075 29.532 65.663 17.485 27.605 44.643 44.319 68.023 64.611 23.637 20.233 47.116 45.642 54.454 78.567Z"/><path stroke="url(#r)" d="M337.073 740.201c3.56 15.406 4.292 31.466 6.508 46.912 4.292 31.465 15.547 60.24 32.419 82.847 15.686 20.989 35.782 38.794 61.595 45 36.969 8.767 80.029-7.677 106.712-38.728 28.522-33.639 41.932-81.097 45.928-121.24.494-6.065.988-12.13 1.542-17.938 2.057-25.089 4.648-47.867 21.698-70.2 13.371-17.155 34.535-26.374 51.19-41.042 32.913-28.704 26.504-56.435 27.196-94.462.91-46.462 14.102-92.517 12.777-139.274-1.069-39.784-9.614-80.275-30.581-113.567-21.342-33.746-56.848-59.62-96.803-62.558-24.487-1.643-47.827 7.538-71.365 13.519-28.938 7.228-54.77 9.141-78.051 15.063-28.918 20.207-52.753 46.002-79.317 70.533-26.821 24.592-57.657 48.218-94.428 60.232-16.101 5.344-33.428 7.726-48.045 15.973-23.024 12.894-34.614 37.752-38.194 62.111-1.741 11.222-1.563 22.541-.237 34.135 1.74 13.393 5.341 26.625 9.771 39.937 7.715 22.831 17.268 46.589 30.165 66.058 18.752 28.394 47.571 45.265 72.355 65.774 24.527 20.568 49.529 46.706 57.165 80.915Z"/><path stroke="url(#s)" d="M335.312 741.96c3.679 15.92 4.214 32.296 6.231 48.058 3.897 32.098 14.678 62.335 31.273 86.088 15.784 22.588 36.751 41.815 63.573 48.87 38.353 10.07 83.589-6.336 111.637-38.513 29.748-34.194 43.376-83.054 46.184-124.816.436-6.322.614-12.584 1.108-18.649 1.246-26.254 2.65-50.651 20.096-73.616 13.707-18.045 36.157-27.561 53.326-42.348 34.792-29.95 27.631-58.589 28.224-98.216 1.009-48.378 14.874-96.212 13.904-144.944-.91-41.444-9.297-83.593-31.134-118.307-21.956-35.227-59.043-62.089-100.403-65.242-24.487-1.644-47.946 7.023-71.425 13.261-28.878 7.486-56.214 7.582-78.11 18.323-33.27 16.615-54.869 49.736-82.422 75.849-27.81 26.173-59.893 51.439-97.89 64.007-16.872 5.523-34.713 8.023-50.359 16.508-23.34 12.697-35.761 37.476-40.429 61.816-1.998 11.281-2.275 22.976-1.206 34.63 1.226 13.511 4.628 27.06 9.118 40.628 7.517 23.147 17.328 46.846 30.798 66.453 20.018 29.183 50.498 46.212 77.004 67.134 26.564 21.179 53.03 47.79 60.902 83.026Z"/><path stroke="url(#t)" d="M333.866 743.917c3.739 16.177 4.075 32.869 5.954 49.204 3.561 32.987 13.491 64.231 30.126 89.328 15.824 23.932 37.404 44.64 65.234 52.544 39.995 11.313 87.407-5.055 116.621-38.043 30.916-35.004 44.821-85.011 46.699-128.451a278.05 278.05 0 0 0 .416-19.3c.435-27.419.968-53.238 18.691-77.349 14.043-18.934 37.581-28.431 55.66-43.969 36.414-31.136 28.759-60.743 29.313-101.713.85-50.235 15.902-99.966 15.09-150.358-.752-43.103-9.238-86.853-31.688-123.047-22.826-36.649-61.298-64.814-104.26-67.868-24.487-1.643-48.065 6.511-71.484 13.005-28.76 7.999-56.194 10.012-77.853 21.78-34.397 18.769-56.728 53.412-85.211 81.362-28.483 27.951-61.811 54.858-101.608 67.842-17.644 5.701-36.257 8.379-52.417 16.983-23.597 12.756-36.908 37.201-42.348 61.719-2.512 11.4-3.046 23.154-2.234 34.867 1.028 13.828 3.916 27.495 8.406 41.064 7.319 23.463 17.447 47.359 31.431 66.847 21.283 29.973 53.426 47.158 81.335 68.297 27.712 21.454 55.701 48.796 64.127 85.256Z"/><path stroke="url(#u)" d="M332.167 745.933c3.798 16.433 3.996 33.698 5.678 50.349 3.165 33.62 12.56 66.069 29.235 92.509 15.923 25.532 38.314 47.405 67.212 56.414 41.38 12.616 90.968-3.713 121.547-37.828 32.142-35.558 46.264-86.967 47.015-131.77.06-6.776.119-13.552-.079-20.268-.435-28.84-1.029-56.022 17.089-80.765 14.38-19.823 38.946-29.558 57.796-45.274 38.353-32.126 29.828-63.154 30.599-105.527.949-52.151 16.93-103.719 16.475-156.087-.594-44.763-9.179-90.112-32.559-127.986-23.696-38.07-63.494-67.281-108.117-70.491-24.487-1.644-48.124 6.253-71.484 13.004-28.958 8.316-56.175 12.442-77.853 25.296-35.841 20.725-59.22 56.693-88.633 86.481-29.471 29.532-63.789 58.019-105.069 71.617-18.099 6.076-37.602 8.42-54.474 17.458-23.914 12.559-38.313 36.985-44.267 61.622-2.769 11.459-3.817 23.332-3.461 35.421.772 13.887 3.462 27.871 7.497 41.815 7.121 23.779 17.565 47.872 32.064 67.242 22.49 30.505 56.353 48.104 85.924 69.4 29.63 21.552 59.142 49.623 67.865 87.368Z"/><path stroke="url(#v)" d="M330.407 747.692c3.916 16.946 3.917 34.527 5.4 51.495 2.829 34.509 11.631 67.907 28.088 95.75 15.963 26.875 39.026 50.486 68.874 60.087 43.081 14.116 94.726-2.688 126.531-37.357 33.052-36.31 47.708-88.924 47.273-135.346 0-7.033-.257-14.006-.515-20.979-1.246-30.005-2.71-58.608 15.487-84.182 14.716-20.712 40.371-30.427 60.13-46.895 39.975-33.311 30.955-65.307 31.627-109.28.791-54.008 17.702-107.414 17.603-161.758-.119-46.224-9.119-93.371-33.113-132.726-24.309-39.552-65.689-69.749-111.974-73.117-24.487-1.643-48.243 5.74-71.543 12.748-28.839 8.829-55.957 14.556-77.655 28.496-36.336 23.274-60.704 60.823-91.105 92.192-30.402 31.369-65.708 61.438-108.789 75.451-18.87 6.255-39.144 8.777-56.787 17.993-24.171 12.619-39.52 36.452-46.186 61.525-3.283 11.578-4.588 23.51-4.43 35.915.257 14.006 2.75 28.306 6.785 42.25 6.923 24.095 17.881 48.07 32.696 67.636 23.756 31.295 59.222 48.794 90.573 70.761 31.034 21.768 62.069 50.569 71.03 89.341Z"/><path stroke="url(#w)" d="M328.963 749.649c3.976 17.203 4.035 35.041 5.123 52.641 2.493 35.397 10.702 69.744 26.941 98.99 16.062 28.475 39.679 53.31 70.852 63.957 44.465 15.419 98.286-1.347 131.457-37.143 34.278-36.863 49.211-90.624 47.786-138.981-.316-7.23-.633-14.459-1.206-21.63-2.058-31.17-4.709-61.392 13.884-87.598 15.369-21.404 41.735-31.554 62.207-48.457 41.597-34.498 32.083-67.461 32.656-113.034.889-55.925 18.73-111.169 18.73-167.428.039-47.884-9.06-96.631-33.924-137.407-25.18-40.974-67.687-72.533-115.574-75.801-24.487-1.644-48.362 5.226-71.603 12.491-28.779 9.085-55.937 16.985-77.655 32.012-37.146 25.625-62.82 64.557-93.894 97.705-31.588 33.266-67.943 64.659-112.507 79.286-19.641 6.433-40.43 9.073-58.845 18.468-24.487 12.422-40.667 36.176-48.42 61.23-3.54 11.637-5.301 23.945-5.459 36.153.06 14.322 2.295 28.682 6.132 42.941 6.726 24.412 18 48.584 33.33 68.032 25.219 31.768 62.148 49.74 94.904 71.922 33.072 22.38 65.571 51.655 75.085 91.651Z"/><path stroke="url(#x)" d="M327.26 751.664c4.095 17.717 3.956 35.871 4.847 53.788 2.097 36.03 9.514 71.641 25.793 102.23 15.844 29.878 40.589 56.075 72.514 67.631 46.107 16.662 101.846-.007 136.441-36.673 35.445-37.674 50.655-92.58 48.103-142.299-.376-7.487-1.009-14.914-1.701-22.598-3.126-32.276-6.39-63.979 12.539-91.074 15.705-22.293 43.417-32.484 64.601-49.822 43.475-35.743 32.952-69.556 33.684-116.788.731-57.781 19.502-114.863 19.857-173.098.197-49.543-8.803-100.207-34.477-142.148-25.794-42.454-69.883-75-119.491-78.682-24.547-1.901-48.48 4.713-71.603 12.491-28.661 9.599-55.66 19.355-77.655 35.528-38.017 27.72-64.679 68.233-96.742 102.961-32.32 34.788-69.921 67.822-116.226 83.121-20.412 6.611-41.972 9.43-60.901 18.944-24.804 12.224-41.874 35.644-50.34 61.132-4.054 11.756-6.072 24.124-6.428 36.648-.454 14.44 1.583 29.116 5.42 43.376 6.528 24.728 18.06 48.84 33.963 68.426 26.485 32.558 65.076 50.687 99.552 73.283 34.417 22.339 68.439 52.344 78.25 93.623Z"/><path stroke="url(#y)" d="M325.501 753.424c4.154 17.974 3.877 36.701 4.57 54.933 1.503 36.979 8.585 73.48 24.903 105.412 15.943 31.477 41.301 59.156 74.492 71.501 47.748 17.91 105.663 1.275 141.366-36.458 36.414-38.169 52.099-94.537 48.617-145.935-.435-7.743-1.385-15.368-2.136-23.309-3.937-33.441-8.387-66.763 10.937-94.49 16.041-23.182 44.841-33.354 66.677-51.384 45.415-36.732 34.08-71.709 34.713-120.542.83-59.697 20.53-118.617 20.985-178.768.355-51.203-8.744-103.466-35.091-147.145-26.347-43.679-72.138-77.726-123.09-81.367-24.547-1.9-48.599 4.199-71.663 12.234-28.601 9.856-55.383 21.726-77.398 38.986-38.827 30.07-66.538 71.908-99.788 108.533-33.249 36.626-71.839 71.24-119.687 86.897-20.927 6.729-43.258 9.727-63.216 19.478-25.061 12.284-43.021 35.368-52.258 61.034-4.311 11.816-6.843 24.302-7.654 37.202-.653 14.757 1.128 29.492 4.767 44.069 6.33 25.044 18.119 49.096 34.596 68.82 27.692 33.09 68.003 51.633 103.884 74.446 35.881 22.812 71.425 53.546 81.474 95.853Z"/><path stroke="url(#z)" d="M323.8 755.44c4.213 18.23 3.739 37.273 4.293 56.079 1.108 37.611 7.655 75.317 23.756 108.652 15.983 32.821 42.211 61.921 76.41 75.115 49.134 19.204 109.165 2.359 146.351-35.988 37.581-38.979 53.286-96.434 48.875-149.51-.752-7.941-1.761-15.822-2.829-23.96-4.748-34.606-10.069-69.35 9.276-98.164 16.377-24.071 46.205-34.481 68.813-52.689 47.036-37.918 35.208-73.863 36.058-124.098.672-61.554 21.361-122.055 22.171-184.182.573-52.605-8.684-106.725-35.901-151.826-27.218-45.101-74.334-80.193-126.948-83.992-24.547-1.9-48.718 3.686-71.919 12.294-28.483 10.37-55.107 24.096-77.458 42.245-39.638 32.422-68.714 75.386-102.577 114.047-33.783 37.831-73.877 74.145-122.95 90.355-21.639 7.165-44.802 10.084-65.274 19.954-25.634 12.146-44.168 35.092-54.492 60.739-4.827 11.935-7.556 24.737-8.683 37.44-1.167 14.876.415 29.927 4.114 44.76 6.132 25.36 18.238 49.611 35.229 69.215 29.215 33.82 70.93 52.58 108.473 75.549 37.799 22.91 74.867 54.374 85.212 97.965Z"/><path stroke="url(#A)" d="M322.354 757.397c4.332 18.744 3.66 38.103 4.016 57.225.772 38.5 6.469 77.214 22.61 111.892 16.081 34.421 42.863 64.746 78.131 79.046 50.774 20.45 112.725 3.7 151.275-35.774 38.749-39.79 54.73-98.391 49.132-153.086-.811-8.198-2.196-16.533-3.264-24.671-5.558-35.771-12.066-72.134 7.674-101.58 16.713-24.96 47.629-35.351 71.147-54.31 48.658-39.105 36.335-76.018 37.086-127.853.771-63.47 22.39-125.808 23.299-189.851.732-54.265-8.625-109.985-36.455-156.567-27.89-46.839-76.331-82.978-130.607-86.933-24.804-1.84-48.777 3.43-71.979 12.037-28.423 10.626-54.829 26.466-77.2 45.701-40.192 34.714-70.574 79.062-105.683 119.363-34.851 40.242-75.993 77.88-126.866 94.506-22.411 7.344-46.087 10.381-67.331 20.43-25.634 12.145-45.315 34.816-56.411 60.642-5.084 11.994-8.327 24.915-9.652 37.934-1.365 15.192-.297 30.362 3.402 45.195 5.934 25.676 18.554 49.808 35.802 69.353 30.422 34.353 73.799 53.269 113.122 76.909 39.065 23.699 78.111 55.518 88.752 100.392Z"/><path stroke="url(#B)" d="M770.206 310.113c.89-55.924-8.566-113.244-37.267-161.248-28.7-48.003-78.783-85.385-134.404-89.3-55.107-4.034-108.235 23.932-148.981 60.938-40.746 37.006-72.75 82.54-108.531 124.619-35.841 41.823-77.912 81.299-130.585 98.341-23.182 7.522-47.689 10.481-69.645 20.964-38.155 17.744-64.284 57.052-69.01 98.716-4.728 41.665 10.879 84.58 39.184 115.635 31.885 34.826 76.726 54.215 117.453 78.072 40.984 23.797 81.296 56.405 92.175 102.306 4.649 18.941 3.581 38.933 3.739 58.371.435 39.389 5.539 79.052 21.719 115.073 15.864 35.824 43.774 67.51 80.109 82.92 52.16 21.75 116.543 4.98 156.26-35.307 39.718-40.284 56.174-100.347 49.706-156.464-5.084-44.266-22.372-93.284 2.313-130.635 17.05-25.85 49.251-36.538 73.224-55.873 50.597-40.093 37.462-78.171 38.115-131.606.612-65.327 23.101-129.76 24.426-195.522Z"/><path stroke="url(#C)" d="M316.301 762.853c5.598 19.533 7.359 38.871 9.001 57.696 3.283 37.649 9.317 75.474 26.426 109.657 17.367 34.124 46.068 64.547 82.602 79.634 50.953 21.22 113.338 5.18 152.7-33.126 39.559-38.625 57.004-96.753 51.861-151.824-4.135-43.673-19.702-92.278 3.638-129.589 16.417-26.244 46.087-38.51 68.853-58.378 47.412-40.98 35.227-78.466 36.255-131.447 1.345-63.332 22.904-125.927 24.704-189.635 1.641-55.016-6.489-111.29-33.726-158.821-27.237-47.53-75.342-84.558-129.658-89.857C554.899 61.805 501.81 87.6 460.51 123.38c-41.3 35.782-73.56 81.375-109.084 123.395-35.327 41.704-76.31 81.199-128.469 98.122-22.984 7.206-47.867 9.711-69.942 19.681-38.847 17.092-64.461 56.281-70.276 97.926-6.013 41.962 6.844 84.701 32.776 116.035 28.997 35.222 71.326 55.463 110.372 80.248 39.105 25.043 77.735 58.581 90.414 104.066Z"/><path stroke="url(#D)" d="M312.207 766.233c6.606 20.382 11.453 39.007 14.519 56.962 6.072 35.652 12.778 71.699 31.332 103.925 18.553 32.227 48.303 61.325 85.41 76.55 49.746 20.69 110.193 5.64 148.882-30.891 39.401-36.965 57.578-93.098 54.017-147.183-2.927-43.141-17.229-90.956 4.964-128.543 15.982-26.954 42.862-40.74 64.482-60.884 44.346-41.354 32.992-78.761 34.396-131.288 1.759-61.535 22.449-122.035 24.92-184.005 2.196-53.792-4.669-109.276-30.442-156.334-25.774-47.057-72.217-83.928-124.97-90.67-52.752-6.741-106.059 16.939-147.913 51.496-41.853 34.557-74.49 79.696-109.697 121.913-34.872 41.329-74.708 81.1-126.294 98.161-23.439 7.581-48.381 9.829-70.831 19.345-39.48 16.698-64.64 55.511-71.602 96.881-7.041 42.199 2.75 84.565 26.17 116.749 26.366 35.56 66.243 56.908 103.607 82.624 37.364 25.715 74.689 60.636 89.05 105.192Z"/><path stroke="url(#E)" d="M307.857 769.673c7.556 20.974 15.231 38.945 19.78 56.286 8.862 33.656 16.497 67.865 36.297 98.451 19.8 30.586 50.538 58.104 88.219 73.468 48.797 20.102 107.048 6.092 145.381-28.461 38.986-35.246 58.469-89.247 56.233-142.285-1.662-42.352-14.559-89.951 6.23-127.753 15.289-27.607 39.697-42.715 60.11-63.39 40.964-41.925 30.757-79.056 32.596-130.872 2.235-59.481 21.994-118.144 25.198-178.119 2.689-52.824-2.849-107.263-27.159-153.847S681.65 89.853 630.519 81.925c-51.704-8.066-105.03 13.184-147.122 46.714-42.091 33.53-75.419 78.018-110.37 120.176-34.1 41.15-73.363 81.059-124.177 97.942-23.439 7.581-48.5 9.315-71.326 18.377-40.429 16.106-64.818 54.741-72.927 95.835-8.386 42.239-1.542 84.746 19.761 117.148 23.736 35.898 61.101 58.097 96.586 85.059 35.426 26.704 71.326 62.495 86.913 106.497Z"/><path stroke="url(#F)" d="M303.822 773.31c8.565 21.823 19.009 38.884 25.042 55.612 11.65 31.658 19.958 64.089 41.202 92.718 21.303 28.887 52.773 54.883 90.77 70.444 47.59 19.566 104.101 6.235 141.821-26.285 38.828-33.587 59.042-85.593 58.132-137.585-.713-41.76-11.889-88.945 7.554-126.707 14.598-28.258 36.533-44.688 55.68-66.153 37.898-42.298 28.522-79.351 30.737-130.713 2.65-57.683 21.539-114.251 25.217-172.173 3.185-51.856-1.029-105.249-23.875-151.36-22.846-46.111-65.65-82.47-115.475-91.782-50.657-9.39-103.943 9.687-146.588 41.993-42.645 32.306-76.29 76.596-110.984 118.695-33.586 41.031-71.701 81.215-122.06 97.722-23.696 7.641-48.876 8.862-71.82 17.411-41.123 15.454-64.996 53.97-74.194 95.045-9.415 42.477-5.636 84.61 13.353 117.547 20.848 36.295 55.957 59.286 89.504 87.236 34.378 28.029 68.656 65.006 85.984 108.335Z"/><path stroke="url(#G)" d="M299.472 776.75c9.772 22.356 22.728 38.565 30.561 54.877 14.123 29.464 23.677 60.255 46.166 87.244 22.49 26.989 55.009 51.661 93.579 67.36 46.384 19.029 100.957 6.691 138.004-24.05 38.669-31.928 59.873-81.998 60.347-132.688.494-41.227-9.475-87.879 9.137-125.72 13.964-28.653 33.368-46.661 51.308-68.659 34.832-42.671 26.287-79.645 29.135-130.613 3.065-55.886 21.282-110.676 25.435-166.543 3.995-50.691 1.048-103.295-20.533-148.616-21.639-45.579-62.524-81.841-110.728-92.339-49.608-10.714-102.855 6.19-146.054 37.272-42.941 31.021-77.219 74.917-111.596 117.213-32.874 40.596-70.099 81.116-119.944 97.504-23.894 7.957-49.252 8.408-72.513 16.759-41.874 14.546-64.976 52.884-75.261 93.94-10.701 42.774-9.731 84.474 6.944 117.947 18.217 36.632 50.814 60.474 82.482 89.669 31.866 28.88 65.235 66.609 83.531 109.443Z"/><path stroke="url(#H)" d="M295.436 780.388c10.78 23.204 26.189 38.306 35.762 53.945 16.279 27.073 27.139 56.479 51.132 81.769 23.736 25.349 57.243 48.44 96.071 64.08 45.118 18.243 98.068 7.087 134.502-21.619 38.511-30.268 60.704-78.403 62.503-128.047 1.503-40.378-6.805-86.874 10.403-124.931 13.272-29.304 30.263-48.378 46.937-71.165 31.766-43.044 23.795-79.881 27.275-130.453 3.541-53.832 20.828-106.784 25.713-160.657 4.489-49.724 2.867-101.281-17.249-146.129-20.176-45.106-59.4-81.211-105.982-92.895-48.559-12.038-102.083 2.496-145.262 32.49-43.436 30.054-78.15 73.239-112.21 115.733-32.557 40.793-68.437 81.272-117.827 97.285-23.894 7.957-49.628 7.954-73.008 15.791-42.961 14.527-65.609 52.49-76.725 93.467-11.729 43.012-13.825 84.339.535 118.346 15.528 36.713 45.732 61.919 75.659 91.788 29.986 30.125 61.991 68.981 81.771 111.202Z"/><path stroke="url(#I)" d="M291.086 783.828c11.986 23.737 29.907 37.988 41.023 53.27 18.238 24.997 30.857 52.644 55.78 76.096 24.923 23.452 59.479 45.219 98.88 60.996 43.911 17.711 94.923 7.545 130.942-19.443 38.096-28.549 61.277-74.749 64.719-123.149 2.709-39.846-4.392-85.809 11.728-123.885 12.58-29.955 26.841-50.292 42.566-73.671 28.502-43.102 21.559-80.176 25.475-130.037 3.955-52.035 20.629-102.952 25.989-154.77 4.984-48.757 4.746-99.011-13.966-143.643-18.712-44.632-56.017-80.64-101.234-93.451-47.57-13.619-100.995-1.001-144.728 27.769-43.733 28.77-79.079 71.561-112.566 114.192-31.905 40.101-66.895 80.916-115.711 97.067-24.151 8.016-49.944 7.756-73.7 15.139-43.713 13.619-65.589 51.403-77.852 92.104-13.015 43.31-17.92 84.204-5.814 119.003 12.837 36.793 40.331 63.167 68.636 94.222 27.93 30.601 59.143 70.721 79.833 112.191Z"/><path stroke="url(#J)" d="M287.051 787.465c13.252 24.526 30.698 40.239 46.285 52.595 15.784 26.105 34.318 48.869 60.744 70.621 26.426 21.752 61.714 41.997 101.432 57.972 42.704 17.179 92.035 7.942 127.382-17.268 37.937-26.89 62.108-71.154 66.874-118.508 3.916-39.313-1.722-84.803 13.054-122.839 11.887-30.607 23.735-52.008 38.134-76.433 25.496-43.219 19.325-80.471 23.616-129.879 4.431-49.98 20.175-99.06 26.207-149.14 5.736-47.848 6.566-96.997-10.682-141.156-17.189-43.902-52.892-80.009-96.546-94.263-46.522-14.944-99.967-4.756-144.195 23.047-44.227 27.802-79.949 70.139-113.179 112.71-31.133 39.924-65.233 81.073-113.594 96.849-24.092 8.272-50.004 7.499-74.135 14.428-44.406 12.968-65.767 50.633-79.118 91.315-14.301 43.606-22.074 83.811-12.223 119.401 10.206 37.132 35.189 64.356 61.555 96.4 26.367 32.044 56.413 72.975 78.389 114.148Z"/><path stroke="url(#K)" d="M282.697 790.905c14.459 25.059 34.021 40.553 51.803 51.861 17.803 24.286 38.037 45.035 65.71 65.146 27.612 19.855 64.205 38.716 104.24 54.889 41.498 16.645 89.088 8.081 123.623-14.777 37.78-25.23 62.939-67.56 69.09-113.61 5.182-38.524.692-83.738 14.32-122.05 11.195-31.258 20.63-53.725 33.763-78.939 22.549-43.079 16.832-80.707 21.757-129.72 4.845-48.183 19.917-95.484 26.484-143.253 6.23-46.881 8.386-94.983-7.399-138.669-15.725-43.429-49.51-79.439-91.799-94.82-45.533-16.524-98.879-8.253-143.661 18.326-44.524 26.518-80.879 68.46-113.792 111.229-30.678 39.548-63.631 80.973-111.478 96.63-24.151 8.016-50.439 6.788-74.629 13.461-45.355 12.375-66.203 49.921-80.444 90.268-15.388 43.588-25.911 83.616-18.631 119.801 7.516 37.212 30.046 65.544 54.533 98.834 24.686 32.973 53.624 74.972 76.51 115.393Z"/><path stroke="url(#L)" d="M278.604 794.286c15.468 25.907 37.542 40.55 57.065 51.185 19.622 22.784 41.498 41.26 70.614 59.415 28.859 18.214 66.441 35.494 107.049 51.805 40.292 16.113 85.944 8.537 120.064-12.602 37.878-23.63 63.769-63.965 71.245-108.969 6.389-37.992 3.046-82.93 15.645-121.004 10.444-32.166 17.525-55.441 29.392-81.445 19.602-42.938 14.538-81.258 19.898-129.56 5.003-46.327 19.719-91.652 26.76-137.367 7.042-45.716 10.463-93.029-3.798-135.985-14.262-42.956-46.701-79.006-87.052-95.376-44.485-17.849-97.792-11.75-142.87 13.545-45.078 25.294-81.808 66.782-114.405 109.748-30.164 39.429-62.029 80.873-109.362 96.411-24.665 8.135-50.814 6.334-75.381 12.553-46.047 11.724-66.38 49.151-81.768 89.222-16.674 43.885-30.006 83.48-25.298 120.26 5.084 37.233 24.904 66.732 47.71 100.952 22.352 34.594 50.38 77.344 74.492 117.212Z"/><path stroke="url(#M)" d="M274.311 797.983c16.932 26.38 42.982 37.13 62.327 50.511 25.041 16.932 45.276 37.681 75.579 53.939 30.303 16.258 68.676 32.273 109.6 48.781 39.085 15.58 83.115 9.191 116.563-10.169 37.72-21.971 64.6-60.371 73.402-104.329 7.595-37.459 5.458-81.865 16.97-119.958 9.751-32.818 14.162-57.098 25.02-83.951 16.971-42.601 12.303-81.553 18.098-129.144 5.478-44.273 19.522-87.82 26.721-131.678 7.536-44.748 12.283-91.015-.515-133.498-12.798-42.483-43.319-78.435-82.305-95.932-43.496-19.43-96.763-15.504-142.335 8.823-45.316 24.268-82.937 65.42-115.019 108.267-29.452 38.994-60.427 80.774-107.245 96.193-24.666 8.134-51.19 5.88-75.876 11.585-46.739 11.072-66.618 48.124-82.777 88.373-17.96 44.182-34.159 83.088-31.647 120.916 2.394 37.314 19.82 68.178 40.688 103.386 20.749 34.695 47.611 78.255 72.751 117.885Z"/><path stroke="url(#N)" d="M270.215 801.363c18.198 27.17 45.988 37.247 67.588 49.836 26.288 15.292 48.738 33.906 80.287 48.523 31.549 14.618 70.97 29.309 112.35 45.441 37.878 15.048 80.227 9.589 112.744-7.934 37.621-20.055 65.432-56.776 75.618-99.432 8.544-36.866 7.871-80.799 18.236-119.168 9.059-33.469 11.373-58.618 20.59-86.714 14.28-42.52 9.81-81.788 16.238-128.985 5.894-42.475 19.324-83.987 26.998-125.791 8.288-43.84 14.102-89.001 2.768-131.011-11.334-42.01-40.252-78.062-77.557-96.488-42.507-21.011-95.933-18.942-141.802 4.101-45.869 23.043-83.866 63.741-115.691 106.529-28.937 38.875-58.824 80.674-105.129 95.974-24.922 8.194-51.566 5.426-76.567 10.934-47.689 10.48-66.796 47.354-84.103 87.327-19.246 44.479-37.997 82.893-38.056 121.315-.039 37.335 14.678 69.367 33.607 105.564 19.503 36.335 45.831 81.1 71.881 119.979Z"/><path stroke="url(#O)" d="M265.923 805.06c19.404 27.702 49.252 37.303 73.107 49.101 27.79 13.592 52.456 30.071 85.192 42.792 32.795 12.977 73.205 26.087 114.901 42.417 36.672 14.515 77.339 9.985 109.184-5.76 37.463-18.395 66.262-53.181 77.774-94.791 9.81-36.077 10.225-79.99 19.561-118.122 8.367-34.12 8.267-60.334 16.219-89.219 11.65-42.183 7.575-82.084 14.636-128.885 6.052-40.619 19.067-80.412 27.275-119.905 9.039-42.932 15.922-86.988 6.051-128.524-10.127-41.477-36.929-77.748-72.869-97.301-41.518-22.592-94.845-22.439-141.011-.68-46.165 21.759-84.795 62.063-116.304 105.048-28.483 38.499-57.163 80.831-103.012 95.755-24.923 8.194-51.942 4.972-77.062 9.966-48.382 9.829-67.232 46.643-85.429 86.282-20.333 44.459-41.893 82.441-44.464 121.713-2.472 37.357 9.535 70.556 26.585 107.998 17.051 37.443 42.844 83.414 69.666 122.115Z"/><path stroke="url(#P)" d="M261.829 808.44c20.611 28.235 52.318 37.677 78.368 48.426 29.354 12.15 56.175 26.237 90.157 37.317 33.982 11.08 75.44 22.866 117.71 39.334 35.465 13.982 74.451 10.382 105.683-3.328 37.562-16.795 67.093-49.586 79.732-89.833 11.017-35.545 12.639-78.926 20.886-117.076 7.675-34.772 5.222-61.794 11.848-91.726 9.019-41.845 5.082-82.319 12.776-128.726 6.27-38.505 18.87-76.579 27.493-114.275 9.791-42.023 17.999-85.033 9.335-126.037-8.664-41.004-33.804-77.118-68.122-97.857-40.529-24.173-93.816-26.193-140.477-5.401-46.66 20.791-85.725 60.384-116.917 103.566-27.711 38.321-55.561 80.731-100.896 95.537-25.18 8.253-52.06 4.458-77.497 9.255-49.39 8.98-67.409 45.873-86.694 85.492-21.619 44.757-45.731 82.246-50.873 122.113-4.905 37.378 4.135 71.803 19.761 110.116s39.936 84.897 67.727 123.103Z"/><path stroke="url(#Q)" d="M257.479 811.881c22.075 28.708 55.325 37.793 83.63 47.751 30.915 10.707 59.636 22.462 95.121 31.842 35.485 9.38 77.675 19.644 120.261 36.309 34.259 13.45 71.623 11.036 101.866-1.093 37.463-14.879 67.983-45.735 81.888-85.192 12.481-35.072 14.993-78.118 22.41-116.347 6.665-35.62 2.432-63.313 7.416-94.488 6.705-41.31 2.591-82.554 10.977-128.31 6.685-36.707 18.671-72.746 27.77-108.388 10.285-41.056 19.878-82.763 12.678-123.294-7.201-40.53-30.482-76.804-63.376-98.413-39.283-25.813-92.728-29.69-139.942-10.123-46.957 19.508-86.596 58.963-117.531 102.086-26.94 38.143-53.701 80.572-98.463 95.515-25.437 8.313-52.436 4.004-78.249 8.347-50.082 8.329-67.646 44.846-88.019 84.446-22.905 45.054-49.31 81.991-57.222 122.769-7.338 37.399-1.008 72.992 12.739 112.55 13.688 39.302 37.286 86.321 66.046 124.033Z"/><path stroke="url(#R)" d="M253.442 815.518c23.34 29.498 58.647 38.107 89.089 46.76 32.478 9.263 63.354 18.627 100.026 26.11 36.672 7.482 79.911 16.423 123.071 33.226 33.052 12.917 68.735 11.433 98.305 1.082 37.621-13.022 69.071-42.2 84.103-80.295 13.747-34.282 17.406-77.052 23.735-115.3 5.973-36.272-.357-64.833 3.045-96.995 4.332-41.032.356-82.848 9.118-128.15 6.843-34.851 18.473-68.914 28.047-102.502 11.096-39.891 21.697-80.749 15.961-120.807-5.737-40.057-27.416-76.43-58.628-98.969-38.294-27.394-91.641-33.187-139.152-14.904-47.511 18.283-87.525 57.284-118.143 100.604-26.742 37.827-52.357 80.532-96.604 95.356-25.378 8.57-52.812 3.551-78.744 7.38-51.031 7.737-68.081 44.135-89.285 83.656-24.25 45.095-53.148 81.797-63.631 123.169-9.454 37.617-6.091 74.437 5.659 114.728 11.551 40.606 34.299 88.634 64.028 125.851Z"/><path stroke="url(#S)" d="M249.091 818.959c24.804 29.97 61.772 38.737 94.35 46.084 34.041 7.821 66.816 14.852 104.734 20.694 37.918 5.843 82.146 13.202 125.879 30.143 31.845 12.385 65.155 7.662 94.805 3.514 38.827-5.457 69.901-38.604 86.259-75.654 14.953-33.749 19.759-76.243 25.06-114.254 5.023-36.864-3.205-66.608-1.326-99.5 2.215-40.813-2.137-83.084 7.258-127.991 7.001-32.994 18.533-65.142 28.323-96.616 12.105-39.042 23.518-78.735 19.245-118.32-4.273-39.584-24.092-76.116-53.881-99.525-37.107-29.291-90.612-36.941-138.617-19.626-47.748 17.257-88.455 55.606-118.757 99.124-26.287 37.451-50.754 80.431-94.487 95.137-25.635 8.629-53.188 3.096-79.436 6.728-51.724 7.085-68.26 43.364-90.354 82.551-25.535 45.392-56.985 81.601-70.039 123.567-11.887 37.639-11.234 75.626-1.364 117.163 9.752 41.023 31.906 89.998 62.348 126.781Z"/><path stroke="url(#T)" d="M245.058 822.595c26.011 30.504 65.096 39.052 99.612 45.41 35.663 6.634 70.535 11.017 109.64 14.962 39.362 3.886 84.44 10.238 128.371 26.862 30.639 11.853 62.643 8.513 90.987 5.749 38.729-3.541 70.732-35.01 88.475-70.756 16.159-33.217 21.915-75.119 26.325-113.465 4.273-37.772-5.736-68.187-5.697-102.006-.099-40.279-4.629-83.32 5.458-127.576 7.16-31.137 18.335-61.308 28.284-90.926 12.857-38.134 25.595-76.781 22.529-115.833-2.81-39.111-20.77-75.802-49.134-100.082-36.119-30.872-89.781-40.378-138.083-24.346-48.303 16.031-89.385 53.926-119.371 97.642-25.001 37.154-48.895 80.272-91.856 94.799-25.635 8.63-53.564 2.642-79.93 5.761-52.674 6.493-68.755 42.397-91.679 81.505-26.821 45.688-60.565 81.347-76.705 124.026-14.004 37.858-16.377 76.814-8.188 119.28 8.249 42.723 29.492 92.45 60.962 128.994Z"/><path stroke="url(#U)" d="M240.961 825.976c27.474 30.977 68.221 39.682 104.873 44.735 37.482 5.132 73.996 7.241 114.604 9.487 40.608 2.246 86.675 7.016 131.18 23.778 29.432 11.32 59.873 9.424 87.427 7.925 38.313-1.822 71.879-31.218 90.63-66.116 17.426-32.428 24.269-74.311 27.651-112.419 3.323-38.364-8.268-69.766-10.128-104.769-2.215-40.059-7.121-83.555 3.599-127.416 7.318-29.28 18.395-57.535 28.561-85.04 13.668-36.968 27.414-74.767 26.128-113.148-1.345-38.638-17.446-75.489-44.446-100.895-34.931-32.769-88.693-43.876-137.292-29.128-48.796 15.065-90.512 52.565-119.983 96.161-25.061 36.897-47.748 80.549-90.255 94.7-25.891 8.689-53.939 2.188-80.622 5.109-53.425 5.585-68.932 41.627-92.945 80.716-28.166 45.729-64.402 81.151-83.054 124.682-16.377 38.136-21.52 78.003-15.21 121.714 6.508 43.396 26.842 93.874 59.282 129.924Z"/><path stroke="url(#V)" d="M236.669 829.673c28.938 31.449 71.603 40.252 110.392 44 39.104 3.945 77.714 3.407 119.569 4.012 41.794.348 88.91 3.795 133.731 20.754 28.226 10.788 57.678 13.989 83.926 10.357 37.74-5.477 72.71-27.624 92.786-61.475 18.949-31.698 26.426-73.186 28.977-111.373 2.63-39.016-10.8-71.345-14.5-107.275-4.332-39.841-9.93-83.988 1.74-127.257 7.219-27.364 18.454-53.762 28.838-79.153 14.676-36.12 29.234-72.753 29.412-110.661.177-37.909-14.124-75.175-39.699-101.452-33.686-34.409-87.665-47.629-136.758-33.849-49.094 13.78-91.442 50.886-120.656 94.423-24.547 36.778-46.146 80.449-88.138 94.481-25.892 8.689-54.058 1.675-81.117 4.142-54.375 4.993-69.17 40.599-94.27 79.669-29.452 46.026-67.983 80.897-89.463 125.081-18.494 38.355-26.86 79.508-22.291 123.892 4.629 44.642 24.251 95.555 57.521 131.684Z"/><path stroke="url(#W)" d="M232.577 833.053c30.402 31.923 74.926 40.566 115.653 43.325 40.984 2.7 81.176-.368 124.474-1.72 43.041-1.292 91.146.574 136.541 17.671 27.019 10.255 54.908 14.899 80.108 12.591 37.957-3.362 73.798-24.088 95.002-56.577 20.155-31.165 28.779-72.378 30.242-110.583 1.622-39.865-13.391-73.18-18.871-109.781-6.251-39.939-12.422-84.223.138-127.157 7.377-25.507 18.513-49.99 29.055-73.524 15.745-35.014 31.054-70.739 32.696-108.174 1.384-37.376-10.86-75.118-34.952-102.007-32.499-36.307-86.577-51.127-136.224-38.571-49.647 12.556-92.371 49.207-121.269 92.942-23.835 36.343-44.544 80.348-86.022 94.262-26.149 8.748-54.434 1.22-81.552 3.43-55.067 4.342-69.605 39.889-95.595 78.624-30.797 46.066-71.503 80.899-95.872 125.48-20.927 38.376-32.003 80.696-29.312 126.327 2.809 46.143 21.778 97.748 55.76 133.442Z"/><path stroke="url(#X)" d="M228.225 836.493c31.865 32.396 78.309 41.137 120.914 42.65 42.863 1.454 84.955-3.946 129.182-7.135 44.485-3.249 93.44-2.391 139.092 14.647 25.813 9.722 52.08 15.552 76.607 15.023 37.918-1.19 74.689-20.237 97.158-51.937 21.422-30.376 30.935-71.253 31.568-109.537.672-40.457-15.666-74.818-23.499-112.227-8.368-39.72-15.232-84.656-1.663-126.741 7.536-23.651 18.632-45.96 29.333-67.637 16.812-33.909 33.19-68.529 35.978-105.688 2.848-36.902-7.279-74.863-30.204-102.563-30.996-38.007-85.489-54.625-135.433-43.352-49.885 11.529-93.301 47.529-121.883 91.46-23.32 36.225-42.941 80.249-83.905 94.044-26.406 8.808-54.81.766-82.303 2.523-55.819 3.433-69.843 38.861-96.861 77.834-32.083 46.363-75.282 80.961-102.281 125.879-23.3 38.654-37.146 81.885-36.077 128.701 1.207 46.244 19.583 98.798 54.277 134.056Z"/><path stroke="url(#Y)" d="M224.189 840.131c33.27 32.612 81.691 41.707 126.176 41.975 44.742.208 88.415-7.721 134.146-12.61 45.731-4.889 95.675-5.613 141.901 11.563 24.606 9.19 49.311 16.463 73.047 17.199 37.937 1.239 75.835-16.445 99.373-47.04 22.944-29.646 33.289-70.444 32.893-108.49-.337-41.306-18-76.714-27.93-114.991-10.286-39.817-18.04-85.089-3.522-126.581 7.437-21.735 18.692-42.187 29.61-61.751 17.88-32.803 35.009-66.515 39.262-103.201 4.311-36.429-3.957-74.549-25.458-103.119-29.808-39.904-84.46-58.378-134.898-48.074-50.439 10.305-94.231 45.851-122.496 89.98-22.865 35.848-41.28 80.406-81.789 93.825-26.406 8.808-55.185.312-82.798 1.555-56.768 2.841-70.277 38.15-97.929 76.728-33.428 46.404-78.862 80.707-108.63 126.536C189.671 612.251 172.74 656.194 171.87 704c-.87 47.805 16.596 101.11 52.319 136.131Z"/><path stroke="url(#Z)" d="M219.839 843.57c34.733 33.086 85.073 42.279 131.694 41.241 46.562-1.294 92.134-11.556 139.052-18.342 46.917-6.786 97.91-8.834 144.65 8.223 23.399 8.657 46.285 17.433 69.486 19.374 37.898 3.412 76.667-12.85 101.273-42.339 24.151-29.114 35.444-69.32 34.158-107.702-1.286-41.897-20.334-78.608-32.301-117.496-12.205-39.915-20.849-85.521-5.381-126.422 7.595-19.878 18.81-38.158 29.827-56.121 19.008-31.441 36.83-64.501 42.605-100.457 5.775-35.956-.634-74.236-20.71-103.676-28.306-41.603-83.63-61.816-134.365-52.795-50.735 9.021-95.418 44.231-123.109 88.498-22.41 35.473-39.677 80.307-79.672 93.607-26.663 8.867-55.562-.142-83.491.903-57.46 2.19-70.455 37.381-99.195 75.939-34.713 46.702-82.639 80.769-115.038 126.935-27.731 39.408-47.431 84.262-50.18 133.313-2.749 49.051 14.202 102.475 50.697 137.317Z"/><path stroke="url(#aa)" d="M215.802 847.208c36.198 33.558 88.456 42.849 136.956 40.565 48.441-2.539 95.596-15.331 144.017-23.817 48.42-8.486 99.947-11.739 147.201 5.199 22.193 8.125 43.456 18.087 65.728 21.865 37.661 5.902 77.814-9.058 103.488-37.441 25.674-28.383 37.542-68.452 35.484-106.655-2.235-42.49-22.668-80.503-36.673-120.002-14.123-40.013-23.914-85.895-7.24-126.264 7.496-17.961 19.186-34.187 29.847-50.174 20.393-30.138 38.649-62.488 45.888-97.971 7.24-35.483 2.947-73.981-16.022-104.488-26.862-43.56-82.601-65.57-133.574-57.576-51.229 8.053-96.347 42.553-123.722 87.017-21.896 35.354-38.075 80.206-77.555 93.388-26.664 8.867-55.681-.656-83.986-.065-58.469 1.342-70.949 36.413-100.52 74.893-36.058 46.742-86.16 80.771-121.447 127.334-29.847 39.626-52.515 85.707-57.261 135.491-3.976 49.605 11.869 104.096 49.391 138.701Z"/><path stroke="url(#ab)" d="M228.675 572.401c-32.221 39.904-57.915 86.955-64.026 137.865-6.369 50.97 8.823 106.153 47.057 140.323 37.602 33.775 91.838 43.419 142.158 39.634 50.577-3.846 99.314-19.167 148.981-29.293 49.667-10.126 102.183-14.96 150.011 2.116 20.986 7.592 40.43 19.056 62.168 24.04 37.68 8.332 78.704-5.206 105.643-32.8 26.94-27.594 39.955-67.387 37.008-105.926-3.185-43.081-24.746-82.457-41.045-122.508-16.042-40.11-27.039-86.525-9.04-125.847 7.338-16.302 19.305-30.157 30.124-44.288 21.837-28.579 40.469-60.474 49.172-95.484 8.703-35.01 6.527-73.726-11.276-105.045-25.615-45.2-81.513-69.067-133.039-62.297-51.526 6.769-97.218 41.131-124.335 85.536-21.184 34.919-36.474 80.106-75.44 93.169-26.92 8.927-56.056-1.11-84.42-.775-59.161.69-71.187 35.386-101.845 73.847-37.147 46.722-89.939 80.832-127.856 127.733Z"/></g><defs><linearGradient id="b" x1="432.929" x2="492.607" y1="406.042" y2="758.403" gradientUnits="userSpaceOnUse"><stop offset=".001" stop-color="#4F5FEB"/><stop offset="1" stop-color="#DC0574"/></linearGradient><linearGradient id="c" x1="430.429" x2="497.334" y1="400.671" y2="763.095" gradientUnits="userSpaceOnUse"><stop offset=".001" stop-color="#4F5FEB"/><stop offset="1" stop-color="#DC0574"/></linearGradient><linearGradient id="d" x1="428.038" x2="502.638" y1="395.127" y2="768.309" gradientUnits="userSpaceOnUse"><stop offset=".001" stop-color="#4F5FEB"/><stop offset="1" stop-color="#DC0574"/></linearGradient><linearGradient id="e" x1="425.63" x2="508.549" y1="389.284" y2="774.106" gradientUnits="userSpaceOnUse"><stop offset=".001" stop-color="#4F5FEB"/><stop offset="1" stop-color="#DC0574"/></linearGradient><linearGradient id="f" x1="423.073" x2="515.014" y1="382.76" y2="780.398" gradientUnits="userSpaceOnUse"><stop offset=".001" stop-color="#4F5FEB"/><stop offset="1" stop-color="#DC0574"/></linearGradient><linearGradient id="g" x1="420.101" x2="521.976" y1="374.617" y2="787.013" gradientUnits="userSpaceOnUse"><stop offset=".001" stop-color="#4F5FEB"/><stop offset="1" stop-color="#DC0574"/></linearGradient><linearGradient id="h" x1="416.57" x2="529.433" y1="364.838" y2="793.767" gradientUnits="userSpaceOnUse"><stop offset=".001" stop-color="#4F5FEB"/><stop offset="1" stop-color="#DC0574"/></linearGradient><linearGradient id="i" x1="412.64" x2="537.282" y1="354.335" y2="800.604" gradientUnits="userSpaceOnUse"><stop offset=".001" stop-color="#4F5FEB"/><stop offset="1" stop-color="#DC0574"/></linearGradient><linearGradient id="j" x1="408.41" x2="545.547" y1="343.734" y2="807.414" gradientUnits="userSpaceOnUse"><stop offset=".001" stop-color="#4F5FEB"/><stop offset="1" stop-color="#DC0574"/></linearGradient><linearGradient id="k" x1="403.977" x2="554.167" y1="333.405" y2="814.146" gradientUnits="userSpaceOnUse"><stop offset=".001" stop-color="#4F5FEB"/><stop offset="1" stop-color="#DC0574"/></linearGradient><linearGradient id="l" x1="399.354" x2="563.072" y1="323.357" y2="820.775" gradientUnits="userSpaceOnUse"><stop offset=".001" stop-color="#4F5FEB"/><stop offset="1" stop-color="#DC0574"/></linearGradient><linearGradient id="m" x1="394.505" x2="572.299" y1="313.622" y2="827.217" gradientUnits="userSpaceOnUse"><stop offset=".001" stop-color="#4F5FEB"/><stop offset="1" stop-color="#DC0574"/></linearGradient><linearGradient id="n" x1="389.481" x2="581.766" y1="304.192" y2="833.485" gradientUnits="userSpaceOnUse"><stop offset=".001" stop-color="#4F5FEB"/><stop offset="1" stop-color="#DC0574"/></linearGradient><linearGradient id="o" x1="384.22" x2="591.487" y1="295.108" y2="839.51" gradientUnits="userSpaceOnUse"><stop offset=".001" stop-color="#4F5FEB"/><stop offset="1" stop-color="#DC0574"/></linearGradient><linearGradient id="p" x1="378.717" x2="601.368" y1="286.389" y2="845.319" gradientUnits="userSpaceOnUse"><stop offset=".001" stop-color="#4F5FEB"/><stop offset="1" stop-color="#DC0574"/></linearGradient><linearGradient id="q" x1="373.222" x2="611.59" y1="277.942" y2="850.822" gradientUnits="userSpaceOnUse"><stop offset=".001" stop-color="#4F5FEB"/><stop offset="1" stop-color="#DC0574"/></linearGradient><linearGradient id="r" x1="367.753" x2="622.225" y1="269.773" y2="855.936" gradientUnits="userSpaceOnUse"><stop offset=".001" stop-color="#4F5FEB"/><stop offset="1" stop-color="#DC0574"/></linearGradient><linearGradient id="s" x1="362.332" x2="633.202" y1="261.804" y2="860.685" gradientUnits="userSpaceOnUse"><stop offset=".001" stop-color="#4F5FEB"/><stop offset="1" stop-color="#DC0574"/></linearGradient><linearGradient id="t" x1="356.953" x2="644.562" y1="254.066" y2="864.997" gradientUnits="userSpaceOnUse"><stop offset=".001" stop-color="#4F5FEB"/><stop offset="1" stop-color="#DC0574"/></linearGradient><linearGradient id="u" x1="351.64" x2="656.263" y1="246.525" y2="868.879" gradientUnits="userSpaceOnUse"><stop offset=".001" stop-color="#4F5FEB"/><stop offset="1" stop-color="#DC0574"/></linearGradient><linearGradient id="v" x1="346.398" x2="668.248" y1="239.155" y2="872.344" gradientUnits="userSpaceOnUse"><stop offset=".001" stop-color="#4F5FEB"/><stop offset="1" stop-color="#DC0574"/></linearGradient><linearGradient id="w" x1="341.214" x2="680.565" y1="231.958" y2="875.334" gradientUnits="userSpaceOnUse"><stop offset=".001" stop-color="#4F5FEB"/><stop offset="1" stop-color="#DC0574"/></linearGradient><linearGradient id="x" x1="336.1" x2="693.118" y1="224.885" y2="877.868" gradientUnits="userSpaceOnUse"><stop offset=".001" stop-color="#4F5FEB"/><stop offset="1" stop-color="#DC0574"/></linearGradient><linearGradient id="y" x1="331.041" x2="705.957" y1="217.939" y2="879.894" gradientUnits="userSpaceOnUse"><stop offset=".001" stop-color="#4F5FEB"/><stop offset="1" stop-color="#DC0574"/></linearGradient><linearGradient id="z" x1="326.037" x2="719.038" y1="211.092" y2="881.416" gradientUnits="userSpaceOnUse"><stop offset=".001" stop-color="#4F5FEB"/><stop offset="1" stop-color="#DC0574"/></linearGradient><linearGradient id="A" x1="321.099" x2="732.263" y1="204.303" y2="882.484" gradientUnits="userSpaceOnUse"><stop offset=".001" stop-color="#4F5FEB"/><stop offset="1" stop-color="#DC0574"/></linearGradient><linearGradient id="B" x1="316.228" x2="745.753" y1="197.642" y2="883.031" gradientUnits="userSpaceOnUse"><stop offset=".001" stop-color="#4F5FEB"/><stop offset="1" stop-color="#DC0574"/></linearGradient><linearGradient id="C" x1="322.794" x2="757.788" y1="210.8" y2="867.404" gradientUnits="userSpaceOnUse"><stop stop-color="#545CE6"/><stop offset=".001" stop-color="#545CE6"/><stop offset=".999" stop-color="#D70879"/><stop offset="1" stop-color="#D70879"/></linearGradient><linearGradient id="D" x1="326.094" x2="767.136" y1="226.976" y2="852.087" gradientUnits="userSpaceOnUse"><stop stop-color="#5A58E2"/><stop offset=".001" stop-color="#5A58E2"/><stop offset=".999" stop-color="#D10C7D"/><stop offset="1" stop-color="#D10C7D"/></linearGradient><linearGradient id="E" x1="328.208" x2="775.696" y1="245.343" y2="835.598" gradientUnits="userSpaceOnUse"><stop stop-color="#5F55DD"/><stop offset=".001" stop-color="#5F55DD"/><stop offset=".999" stop-color="#CC0F82"/><stop offset="1" stop-color="#CC0F82"/></linearGradient><linearGradient id="F" x1="318.357" x2="784.322" y1="251.368" y2="816.707" gradientUnits="userSpaceOnUse"><stop stop-color="#6551D9"/><stop offset=".001" stop-color="#6551D9"/><stop offset=".999" stop-color="#C61386"/><stop offset="1" stop-color="#C61386"/></linearGradient><linearGradient id="G" x1="306.057" x2="792.716" y1="259.482" y2="794.883" gradientUnits="userSpaceOnUse"><stop stop-color="#6A4ED4"/><stop offset=".001" stop-color="#6A4ED4"/><stop offset=".999" stop-color="#C1168B"/><stop offset="1" stop-color="#C1168B"/></linearGradient><linearGradient id="H" x1="290.838" x2="800.421" y1="270.752" y2="769.222" gradientUnits="userSpaceOnUse"><stop stop-color="#704AD0"/><stop offset=".001" stop-color="#704AD0"/><stop offset=".999" stop-color="#BB1A8F"/><stop offset="1" stop-color="#BB1A8F"/></linearGradient><linearGradient id="I" x1="272.507" x2="806.505" y1="286.761" y2="738.778" gradientUnits="userSpaceOnUse"><stop stop-color="#7547CB"/><stop offset=".001" stop-color="#7547CB"/><stop offset=".999" stop-color="#B61D94"/><stop offset="1" stop-color="#B61D94"/></linearGradient><linearGradient id="J" x1="251.288" x2="809.286" y1="309.84" y2="702.671" gradientUnits="userSpaceOnUse"><stop stop-color="#7A43C6"/><stop offset=".001" stop-color="#7A43C6"/><stop offset=".999" stop-color="#B12199"/><stop offset="1" stop-color="#B12199"/></linearGradient><linearGradient id="K" x1="228.115" x2="805.853" y1="343.51" y2="660.538" gradientUnits="userSpaceOnUse"><stop stop-color="#8040C2"/><stop offset=".001" stop-color="#8040C2"/><stop offset=".999" stop-color="#AB249D"/><stop offset="1" stop-color="#AB249D"/></linearGradient><linearGradient id="L" x1="205.058" x2="791.626" y1="392.868" y2="615.689" gradientUnits="userSpaceOnUse"><stop stop-color="#853CBD"/><stop offset=".001" stop-color="#853CBD"/><stop offset=".999" stop-color="#A628A2"/><stop offset="1" stop-color="#A628A2"/></linearGradient><linearGradient id="M" x1="178.607" x2="767.992" y1="460.601" y2="575.354" gradientUnits="userSpaceOnUse"><stop stop-color="#8B39B9"/><stop offset=".001" stop-color="#8B39B9"/><stop offset=".999" stop-color="#A02BA6"/><stop offset="1" stop-color="#A02BA6"/></linearGradient><linearGradient id="N" x1="164.783" x2="812.681" y1="548.7" y2="543.082" gradientUnits="userSpaceOnUse"><stop stop-color="#9035B4"/><stop offset=".001" stop-color="#9035B4"/><stop offset=".999" stop-color="#9B2FAB"/><stop offset="1" stop-color="#9B2FAB"/></linearGradient><linearGradient id="O" x1="179.73" x2="864.747" y1="648.343" y2="488.245" gradientUnits="userSpaceOnUse"><stop stop-color="#9632B0"/><stop offset=".001" stop-color="#9532B0"/><stop offset=".999" stop-color="#9632B0"/><stop offset="1" stop-color="#9632AF"/></linearGradient><linearGradient id="P" x1="220.054" x2="895.42" y1="742.809" y2="416.174" gradientUnits="userSpaceOnUse"><stop stop-color="#9B2FAB"/><stop offset=".001" stop-color="#9B2FAB"/><stop offset=".999" stop-color="#9035B4"/><stop offset="1" stop-color="#9035B4"/></linearGradient><linearGradient id="Q" x1="261.947" x2="893.586" y1="818.013" y2="336.384" gradientUnits="userSpaceOnUse"><stop stop-color="#A02BA6"/><stop offset=".001" stop-color="#A02BA6"/><stop offset=".999" stop-color="#8B39B9"/><stop offset="1" stop-color="#8B39B9"/></linearGradient><linearGradient id="R" x1="298.304" x2="855.877" y1="858.988" y2="258.725" gradientUnits="userSpaceOnUse"><stop stop-color="#A628A2"/><stop offset=".001" stop-color="#A628A2"/><stop offset=".999" stop-color="#853CBD"/><stop offset="1" stop-color="#853CBD"/></linearGradient><linearGradient id="S" x1="338.848" x2="811.763" y1="886.33" y2="209.173" gradientUnits="userSpaceOnUse"><stop stop-color="#AB249D"/><stop offset=".001" stop-color="#AB249D"/><stop offset=".999" stop-color="#8040C2"/><stop offset="1" stop-color="#8040C2"/></linearGradient><linearGradient id="T" x1="372.514" x2="765.474" y1="899.967" y2="177.837" gradientUnits="userSpaceOnUse"><stop stop-color="#B12199"/><stop offset=".001" stop-color="#B12199"/><stop offset=".999" stop-color="#7A43C6"/><stop offset="1" stop-color="#7A43C6"/></linearGradient><linearGradient id="U" x1="398.394" x2="721.982" y1="905.825" y2="159.78" gradientUnits="userSpaceOnUse"><stop stop-color="#B61D94"/><stop offset=".001" stop-color="#B61D94"/><stop offset=".999" stop-color="#7547CB"/><stop offset="1" stop-color="#7547CB"/></linearGradient><linearGradient id="V" x1="420.217" x2="685.674" y1="908.63" y2="151.603" gradientUnits="userSpaceOnUse"><stop stop-color="#BB1A8F"/><stop offset=".001" stop-color="#BB1A8F"/><stop offset=".999" stop-color="#704AD0"/><stop offset="1" stop-color="#704AD0"/></linearGradient><linearGradient id="W" x1="438.38" x2="655.859" y1="909.743" y2="149.433" gradientUnits="userSpaceOnUse"><stop stop-color="#C1168B"/><stop offset=".001" stop-color="#C1168B"/><stop offset=".999" stop-color="#6A4ED4"/><stop offset="1" stop-color="#6A4ED4"/></linearGradient><linearGradient id="X" x1="453.491" x2="631.393" y1="909.991" y2="150.862" gradientUnits="userSpaceOnUse"><stop stop-color="#C61386"/><stop offset=".001" stop-color="#C61386"/><stop offset=".999" stop-color="#6551D9"/><stop offset="1" stop-color="#6551D9"/></linearGradient><linearGradient id="Y" x1="466.14" x2="611.109" y1="909.835" y2="154.445" gradientUnits="userSpaceOnUse"><stop stop-color="#CC0F82"/><stop offset=".001" stop-color="#CC0F82"/><stop offset=".999" stop-color="#5F55DD"/><stop offset="1" stop-color="#5F55DD"/></linearGradient><linearGradient id="Z" x1="476.784" x2="594.253" y1="909.571" y2="159.307" gradientUnits="userSpaceOnUse"><stop stop-color="#D10C7D"/><stop offset=".001" stop-color="#D10C7D"/><stop offset=".999" stop-color="#5A58E2"/><stop offset="1" stop-color="#5A58E2"/></linearGradient><linearGradient id="aa" x1="485.859" x2="580.107" y1="909.349" y2="164.926" gradientUnits="userSpaceOnUse"><stop stop-color="#D70879"/><stop offset=".001" stop-color="#D70879"/><stop offset=".999" stop-color="#545CE6"/><stop offset="1" stop-color="#545CE6"/></linearGradient><linearGradient id="ab" x1="493.693" x2="568.22" y1="909.267" y2="170.964" gradientUnits="userSpaceOnUse"><stop stop-color="#DC0574"/><stop offset=".999" stop-color="#4F5FEB"/></linearGradient><clipPath id="a"><path fill="#fff" d="M0 190.05 822.324 0l208.29 901.244-822.325 190.05z"/></clipPath></defs></svg>