<svg width="818" height="150" viewBox="0 0 818 150" fill="none" xmlns="http://www.w3.org/2000/svg">
<path d="M926.841 110.595C902.715 99.0227 864.693 100.235 831.966 108.903C799.238 117.571 770.753 132.612 744.223 148.029C717.693 163.445 691.959 179.83 661.84 192.232C633.124 204.079 602.601 211.345 571.552 209.079C531.406 206.159 500.158 193.044 462.44 187.264C428.85 182.12 382.406 191.239 349.46 202.783C332.063 208.91 315.796 216.579 297.833 221.699C279.869 226.819 258.815 229.076 244.104 223.703" stroke="#6FDDBC" stroke-width="0.5855" stroke-miterlimit="10"/>
<path d="M928.133 108.008C904.512 98.0057 867.056 100.226 834.202 109.073C832.237 109.566 830.362 110.123 828.41 110.693C798.084 119.582 771.407 133.21 746.171 146.513C731.705 154.111 716.996 161.672 701.93 169.451C687.808 176.754 674.018 184.158 659.049 190.659C631.011 202.784 600.654 210.1 569.874 208.025C565.888 207.76 562.042 207.392 558.182 206.947C528.891 203.434 504.151 194.727 476.97 188.803C472.137 187.736 467.164 186.772 462.051 185.911C447.045 183.427 429.458 183.83 411.495 186.189C389.907 189.01 368.165 194.618 350.258 200.99C333.09 207.078 316.99 214.798 299.179 219.892C280.553 225.283 258.744 227.274 243.864 221.378" stroke="#6CD3B9" stroke-width="0.5855" stroke-miterlimit="10"/>
<path d="M929.502 105.408C906.461 96.9627 869.496 100.203 836.591 109.217C834.626 109.71 832.751 110.267 830.799 110.837C800.397 119.739 773.704 132.817 748.182 144.907C733.012 152.073 717.317 158.935 701.216 166.655C685.995 173.988 671.838 182.006 656.398 188.982C628.949 201.322 598.847 208.753 568.413 206.855C564.503 206.577 560.594 206.298 556.811 205.84C527.699 202.455 503.239 193.542 476.594 187.527C471.838 186.447 466.929 185.393 461.892 184.518C447.103 181.919 429.719 182.129 411.897 184.385C390.462 187.18 369.039 192.813 351.361 199.145C334.36 205.284 318.463 212.811 300.909 218.019C281.619 223.681 258.966 225.343 243.994 218.91" stroke="#69C9B6" stroke-width="0.5855" stroke-miterlimit="10"/>
<path d="M930.87 102.808C908.425 95.9964 871.936 100.181 838.904 109.374C836.952 109.944 835.063 110.424 833.111 110.994C802.633 119.909 775.925 132.438 750.194 143.302C734.319 150.036 717.561 156.212 700.502 163.859C684.183 171.222 669.657 179.855 653.671 187.319C626.873 199.784 597.041 207.405 566.799 205.711C562.902 205.51 559.056 205.142 555.363 204.747C526.43 201.489 502.264 192.447 476.129 186.187C471.436 185.017 466.603 183.95 461.643 183.062C447.07 180.347 429.877 180.288 412.285 182.505C391.067 185.184 369.963 190.841 352.452 197.224C335.68 203.323 319.937 210.824 302.535 216.006C282.583 221.939 259.175 223.336 244.111 216.367" stroke="#66BFB4" stroke-width="0.5855" stroke-miterlimit="10"/>
<path d="M932.162 100.221C910.221 94.9796 874.312 100.248 841.14 109.544C839.188 110.114 837.313 110.671 835.361 111.241C804.895 120.232 778.07 132.071 752.065 141.799C735.397 148.038 717.652 153.515 699.635 161.089C682.14 168.495 667.31 177.654 650.866 185.669C624.644 198.272 595.081 206.084 565.108 204.581C561.288 204.366 557.455 204.074 553.762 203.68C525.008 200.549 501.148 191.455 475.51 184.873C470.894 183.69 466.125 182.533 461.241 181.633C446.885 178.802 429.972 178.537 412.456 180.741C391.468 183.381 370.684 189.061 353.262 195.508C336.733 201.645 321.143 209.12 303.971 214.262C283.356 220.466 259.18 221.521 243.961 214.105" stroke="#63B5B1" stroke-width="0.5855" stroke-miterlimit="10"/>
<path d="M933.531 97.6215C912.171 93.9365 876.751 100.225 843.529 109.687C841.577 110.258 839.702 110.815 837.75 111.385C807.208 120.389 780.278 131.615 754.167 140.257C736.78 145.988 717.972 150.779 699.087 158.343C680.494 165.779 665.296 175.553 648.292 183.979C622.645 196.721 593.427 204.71 563.737 203.474C559.93 203.336 556.173 203.031 552.48 202.637C523.83 199.646 500.339 190.41 475.224 183.66C470.684 182.464 465.992 181.294 461.159 180.227C446.93 177.216 430.297 176.746 412.934 178.924C392.086 181.461 371.621 187.166 354.442 193.65C338.067 199.761 322.706 207.196 305.688 212.313C284.409 218.788 259.478 219.577 244.079 211.561" stroke="#60ABAE" stroke-width="0.5855" stroke-miterlimit="10"/>
<path d="M934.887 94.945C914.108 92.8169 879.178 100.126 845.829 109.768C843.877 110.338 842.001 110.895 840.049 111.465C809.521 120.546 782.383 131.019 756.165 138.575C737.985 143.81 718.203 147.979 698.359 155.471C678.655 162.86 663.09 173.248 645.551 182.239C620.556 195.106 591.531 203.299 562.11 202.254C558.379 202.103 554.636 201.875 551.019 201.467C522.548 198.603 499.351 189.238 474.745 182.243C470.269 180.957 465.653 179.775 460.897 178.694C446.884 175.568 430.455 174.905 413.232 176.98C392.614 179.478 372.469 185.207 355.367 191.679C339.234 197.826 323.937 205.172 307.238 210.313C285.296 217.059 259.534 217.596 244.119 209.031" stroke="#5DA1AB" stroke-width="0.5855" stroke-miterlimit="10"/>
<path d="M936.255 92.3451C915.982 91.787 881.618 100.104 848.154 110.001C846.202 110.571 844.327 111.128 842.375 111.699C811.77 120.792 784.501 130.499 758.113 137.059C739.139 141.799 718.371 145.269 697.569 152.688C676.69 160.12 660.82 171.034 642.823 180.576C618.391 193.505 589.711 201.875 560.495 201.11C556.778 201.035 553.111 200.794 549.494 200.387C521.216 197.727 498.299 188.156 474.216 180.993C469.817 179.694 465.264 178.421 460.585 177.328C446.789 174.086 430.64 173.217 413.48 175.203C393.079 177.585 373.253 183.338 356.317 189.86C340.414 195.969 325.27 203.288 308.724 208.402C286.119 215.42 259.59 215.615 244.006 206.526" stroke="#5A97A8" stroke-width="0.5855" stroke-miterlimit="10"/>
<path d="M937.547 89.7583C917.855 90.7571 884.07 100.158 850.467 110.158C848.515 110.728 846.64 111.285 844.688 111.855C814.006 120.962 787.029 133.301 760.124 135.453C739.988 137.08 718.678 142.456 696.854 149.892C674.877 157.354 658.626 168.806 640.096 178.912C616.225 191.903 587.828 200.541 558.958 199.953C555.317 199.865 551.65 199.624 548.123 199.281C519.947 196.76 497.387 186.971 473.828 179.64C469.492 178.251 465.016 176.965 460.399 175.782C446.807 172.348 430.861 171.287 413.855 173.246C393.607 175.602 374.1 181.379 357.331 187.952C341.594 194.111 326.68 201.391 310.364 206.466C287.096 213.754 259.811 213.684 244.06 204.072" stroke="#578DA5" stroke-width="0.5855" stroke-miterlimit="10"/>
<path d="M938.916 87.1586C919.805 89.7142 886.51 100.135 852.78 110.315C850.828 110.885 848.952 111.442 847 112.013C816.332 121.196 788.981 132.731 762.149 133.924C741.268 134.889 718.936 139.81 696.153 147.172C673.077 154.664 656.445 166.655 637.381 177.326C614.073 190.378 586.034 199.27 557.357 198.886C553.716 198.798 550.138 198.621 546.625 198.354C518.628 195.96 496.438 186.029 473.312 178.466C469.052 177.064 464.64 175.689 460.1 174.493C446.725 170.942 431.059 169.676 414.193 171.532C394.161 173.772 374.974 179.574 358.371 186.197C342.864 192.316 328.103 199.571 311.953 204.696C288.022 212.255 259.97 211.843 244.14 201.772" stroke="#5483A3" stroke-width="0.5855" stroke-miterlimit="10"/>
<path d="M940.285 84.5586C921.678 88.6842 888.95 100.113 855.169 110.459C853.217 111.029 851.342 111.586 849.403 112.233C818.657 121.43 790.996 132.071 764.174 132.395C742.549 132.699 719.18 137.086 695.439 144.376C671.188 151.911 654.252 164.427 634.73 175.649C611.984 188.763 584.228 197.922 555.819 197.729C552.268 197.705 548.69 197.527 545.177 197.26C517.36 194.994 495.462 184.934 472.859 177.203C468.677 175.788 464.328 174.323 459.865 173.114C446.705 169.447 431.23 167.911 414.518 169.742C394.715 171.942 375.848 177.769 359.398 184.365C344.044 190.458 329.513 197.673 313.593 202.76C288.998 210.59 260.115 209.926 244.18 199.241" stroke="#5179A0" stroke-width="0.5855" stroke-miterlimit="10"/>
<path d="M941.577 81.9719C923.565 87.731 891.313 100.103 857.405 110.629C855.53 111.186 853.591 111.833 851.639 112.403C820.906 121.676 792.909 131.271 766.108 130.803C743.741 130.445 719.334 134.3 694.648 141.593C669.286 149.082 651.982 162.212 631.926 173.999C609.729 187.098 582.268 196.601 554.205 196.585C550.654 196.561 547.166 196.447 543.729 196.167C516.014 194.041 494.487 183.839 472.471 175.849C468.351 174.345 464.155 172.854 459.679 171.568C446.724 167.709 431.466 166.057 414.893 167.785C395.231 169.882 376.683 175.733 360.399 182.38C345.288 188.511 330.91 195.7 315.143 200.76C289.885 208.861 260.234 207.855 244.144 196.723" stroke="#4E6E9D" stroke-width="0.5855" stroke-miterlimit="10"/>
<path d="M942.932 79.2954C925.502 86.6114 893.739 100.004 859.704 110.709C857.829 111.266 855.89 111.913 853.938 112.483C823.129 121.77 794.808 127.161 768.12 129.197C745.084 130.925 719.565 131.5 693.934 138.797C667.473 146.316 649.775 159.908 629.275 172.323C607.627 185.407 580.538 195.241 552.667 195.428C549.206 195.468 545.718 195.354 542.281 195.074C514.746 193.075 493.512 182.744 472.018 174.586C467.976 173.068 463.843 171.487 459.444 170.189C446.705 166.214 431.714 164.28 415.217 165.994C395.785 168.053 377.556 173.928 361.426 180.548C346.545 186.64 332.319 193.803 316.782 198.823C290.875 207.272 260.456 205.924 244.274 194.256" stroke="#4B649A" stroke-width="0.5855" stroke-miterlimit="10"/>
<path d="M944.301 76.6956C927.375 85.5816 896.192 100.058 862.094 110.853C860.218 111.41 858.279 112.057 856.404 112.614C825.519 121.914 797.027 126.309 770.208 127.579C746.352 128.658 719.873 128.687 693.296 135.988C665.661 143.55 647.658 157.667 626.624 170.646C605.462 183.805 578.731 193.893 551.219 194.335C547.758 194.375 544.347 194.248 540.923 194.044C513.567 192.172 492.626 181.712 471.643 173.309C467.663 171.702 463.621 170.185 459.285 168.796C446.762 164.705 431.975 162.579 415.632 164.267C396.339 166.223 378.507 172.109 362.479 178.87C347.764 185.012 333.756 192.059 318.385 197.13C291.814 205.85 260.564 204.249 244.278 191.969" stroke="#485A97" stroke-width="0.5855" stroke-miterlimit="10"/>
<path d="M945.67 74.0956C929.325 84.5385 898.631 100.036 864.419 111.087C862.557 111.72 860.605 112.29 858.73 112.848C827.857 122.224 799.119 125.636 772.233 126.05C747.543 126.404 720.193 125.951 692.659 133.179C663.912 140.694 645.452 155.362 623.972 168.97C603.36 182.114 577.001 192.532 549.681 193.178C546.297 193.205 542.899 193.154 539.551 192.937C512.375 191.193 491.714 180.527 471.254 171.956C467.351 170.336 463.372 168.729 459.099 167.25C446.794 163.044 432.286 160.712 416.083 162.297C397.021 164.214 379.431 170.137 363.633 176.859C349.148 182.962 335.306 190.059 320.151 195.014C292.918 204.005 260.9 202.063 244.458 189.335" stroke="#455095" stroke-width="0.5855" stroke-miterlimit="10"/>
<path d="M946.962 71.509C931.198 83.5087 900.994 100.026 866.732 111.244C864.87 111.877 862.918 112.448 861.042 113.005C830.093 122.394 801.185 124.81 774.244 124.444C748.811 124.137 720.437 123.228 691.944 130.383C662.099 137.928 643.245 153.058 621.321 167.293C601.245 180.346 575.194 191.185 548.144 192.021C544.772 192.124 541.451 192.061 538.103 191.844C511.03 190.24 490.739 179.432 470.801 170.693C466.975 169.059 463.059 167.363 458.864 165.871C446.762 161.472 432.458 158.947 416.408 160.507C397.562 162.307 380.292 168.255 364.66 175.027C350.418 181.167 336.639 188.175 321.728 193.168C293.844 202.506 261.058 200.222 244.512 186.881" stroke="#424692" stroke-width="0.5855" stroke-miterlimit="10"/>
<path d="M948.33 68.9089C933.148 82.4655 903.434 100.004 869.045 111.4C867.182 112.034 865.23 112.604 863.368 113.238C832.432 122.704 803.264 124.06 776.205 123.005C749.926 121.895 720.618 120.594 691.18 127.753C660.146 135.264 640.898 150.856 618.543 165.796C598.94 178.847 573.337 190.004 546.556 191.031C543.261 191.121 539.952 191.134 536.605 190.917C509.711 189.44 489.713 178.503 470.285 169.519C466.523 167.796 462.684 166.086 458.564 164.581C446.603 160.079 432.579 157.349 416.669 158.806C397.976 160.58 381.102 166.539 365.547 173.298C351.458 179.412 337.922 186.457 323.24 191.411C294.694 201.02 261.14 198.394 244.439 184.606" stroke="#3F3C8F" stroke-width="0.5855" stroke-miterlimit="10"/>
<path d="M949.686 66.2326C935.009 81.3592 905.874 99.9813 871.344 111.481C869.482 112.115 867.53 112.685 865.668 113.318C834.655 122.797 805.316 123.157 778.204 121.323C751.167 119.475 720.836 117.718 690.439 124.804C658.308 132.345 638.589 148.412 615.866 163.967C596.811 177.002 571.504 188.503 544.992 189.721C541.71 189.887 538.478 189.887 535.207 189.658C508.506 188.384 488.788 177.241 469.884 168.089C466.274 166.34 462.422 164.553 458.443 162.946C446.697 158.328 432.941 155.316 417.108 156.759C398.632 158.418 382 164.414 366.688 171.211C352.841 177.362 339.446 184.304 324.917 189.231C295.708 199.112 261.322 196.233 244.529 181.909" stroke="#3C328C" stroke-width="0.5855" stroke-miterlimit="10"/>
<path d="M950.978 63.6456C936.895 80.4058 908.313 99.9587 873.657 111.638C871.795 112.271 869.856 112.918 867.98 113.475C836.891 122.967 807.459 122.318 780.138 119.73C752.332 117.068 720.977 114.854 689.649 122.021C656.329 129.528 636.292 146.044 613.062 162.316C594.48 175.35 569.621 187.169 543.301 188.59C540.096 188.743 536.864 188.743 533.619 188.667C507.02 187.533 487.736 176.159 469.278 166.852C465.732 165.013 461.956 163.213 458.054 161.593C446.512 156.782 432.972 153.654 417.279 154.995C399.033 156.614 382.721 162.635 367.498 169.495C353.805 175.62 340.652 182.599 326.353 187.487C296.494 197.716 261.341 194.495 244.443 179.558" stroke="#392889" stroke-width="0.5855" stroke-miterlimit="10"/>
<path d="M952.347 61.0457C938.845 79.3627 910.753 99.9362 875.97 111.795C874.107 112.428 872.168 113.075 870.293 113.632C839.217 123.201 809.601 121.478 782.15 118.125C753.574 114.647 721.208 112.054 688.934 119.225C654.503 126.685 634.009 143.752 610.334 160.653C592.288 173.595 567.738 185.834 541.764 187.433C538.571 187.663 535.416 187.65 532.171 187.574C505.752 186.567 486.761 175.064 468.813 165.512C465.343 163.66 461.631 161.77 457.805 160.137C446.48 155.21 433.13 151.813 417.591 153.128C399.484 154.644 383.568 160.676 368.512 167.586C355.062 173.749 342.049 180.626 327.904 185.487C297.381 195.987 261.46 192.424 244.407 177.04" stroke="#361E86" stroke-width="0.5855" stroke-miterlimit="10"/>
<path d="M953.715 58.4458C940.718 78.3328 913.193 99.9136 878.359 111.938C876.496 112.572 874.558 113.219 872.682 113.776C841.53 123.358 811.744 120.639 784.251 116.582C754.905 112.29 721.542 109.395 688.297 116.416C652.767 123.906 631.789 141.371 607.76 158.963C590.186 171.903 566.008 184.473 540.315 186.34C537.2 186.557 534.058 186.62 530.89 186.531C504.649 185.651 485.939 173.942 468.526 164.299C465.121 162.357 461.498 160.531 457.722 158.731C446.614 153.689 433.545 150.086 418.145 151.298C400.255 152.698 384.595 158.844 369.692 165.728C356.472 171.852 343.625 178.779 329.709 183.601C298.55 194.525 261.848 190.544 244.614 174.56" stroke="#331484" stroke-width="0.5855" stroke-miterlimit="10"/>
<path d="M955.084 55.8462C942.668 77.29 915.632 99.8913 880.684 112.172C878.822 112.806 876.883 113.453 875.008 114.01C843.868 123.668 813.886 119.8 786.199 115.067C756.071 109.883 721.786 106.672 687.519 113.71C650.814 121.243 629.34 139.03 604.968 157.39C587.855 170.251 564.138 183.216 538.638 185.286C535.522 185.503 532.47 185.63 529.302 185.54C503.164 184.801 484.9 172.937 467.921 163.062C464.592 161.107 461.033 159.191 457.334 157.378C446.442 152.22 433.576 148.425 418.317 149.534C400.657 150.895 385.303 156.988 370.566 163.923C357.512 170.097 344.882 176.908 331.119 181.705C299.297 192.899 261.75 188.589 244.514 172.133" stroke="#300A81" stroke-width="0.5855" stroke-miterlimit="10"/>
<path d="M956.376 53.2593C943.883 77.4768 915.119 102.424 877.244 114.179C846.028 123.851 816.028 118.961 788.134 113.474C757.312 107.463 721.941 103.885 686.805 110.913C649.002 118.477 627.044 136.662 602.317 155.713C583.652 170.102 556.647 185.048 527.93 184.434C501.972 183.822 484.001 171.829 467.545 161.785C454.867 154.014 439.034 146.23 418.718 147.73C385.785 150.123 361.687 169.62 332.785 179.921C300.299 191.387 261.998 186.811 244.594 169.832" stroke="#2D007E" stroke-width="0.5855" stroke-miterlimit="10"/>
<path d="M27.0659 131.913C40.6962 116.527 66.663 105.459 88.0092 109.169C106.047 112.304 122.851 129.432 135.319 141.187C164.804 168.893 193.952 200.076 232.454 216.916C275.11 235.637 326.474 225.928 358.385 191.461C380.94 167.09 392.807 135.323 416.962 112.44C447.252 83.6391 486 91.0072 520.337 107.108C554.792 123.292 589.446 138.82 628.828 125.045C653.161 116.535 674.277 101.322 694.671 86.1278C733.151 57.3779 770.954 31.3342 821.676 32.408C864.391 33.2954 906.823 50.7071 933.386 81.9178" stroke="#2D007E" stroke-width="0.3903" stroke-miterlimit="10"/>
<path d="M26.6102 135.307C39.9929 120.896 65.2579 110.569 86.1182 114.466C103.753 117.67 120.253 134.228 132.652 145.58C161.663 172.331 190.538 202.525 228.466 218.426C263.721 233.23 304.248 228.585 335.512 207.907C342.39 203.313 348.829 197.964 354.711 191.778C377.553 167.876 390.48 136.86 415.058 114.631C445.939 86.8684 484.486 94.2709 518.89 110.153C522.152 111.668 525.515 113.166 528.777 114.681C559.967 128.729 592.036 140.036 627.596 127.535C649.583 119.841 668.459 106.668 686.627 92.9942C689.02 91.2383 691.395 89.3817 693.771 87.5252C705.967 78.2914 718.197 69.259 730.97 61.5846C758.592 45.052 787.598 34.1895 822.408 34.8734C865.224 35.7437 907.766 51.375 933.781 79.9852" stroke="#360879" stroke-width="0.3903" stroke-miterlimit="10"/>
<path d="M26.1716 138.801C39.3066 125.366 63.887 115.881 84.3448 119.846C101.577 123.119 117.755 139.007 130.103 150.057C158.741 175.835 187.125 204.973 224.579 219.92C260.05 234.169 300.54 228.701 331.703 208.04C338.581 203.446 345.138 198.18 351.138 192.078C374.35 168.527 388.137 138.297 413.372 116.888C444.929 90.0462 483.191 97.601 517.661 113.264C521.024 114.762 524.286 116.277 527.649 117.775C558.704 131.639 591.158 142.777 626.718 130.276C649.191 122.395 667.98 108.719 685.997 94.76C688.372 92.9034 690.748 91.0468 693.123 89.1903C705.285 79.7551 717.616 70.7056 730.808 63.063C759.086 46.7294 788.499 37.0407 823.611 37.673C866.527 38.5261 909.197 52.4777 934.765 78.4701" stroke="#3F1073" stroke-width="0.3903" stroke-miterlimit="10"/>
<path d="M25.6153 142.212C38.5027 129.751 62.3985 121.109 82.4538 125.143C99.2839 128.485 115.157 143.803 127.335 154.467C155.6 179.273 183.611 207.439 220.39 221.464C256.177 235.141 296.429 228.885 327.71 208.308C334.689 203.696 341.246 198.431 347.279 192.53C370.762 169.347 385.609 139.869 411.402 119.297C443.634 93.3761 481.611 101.083 516.064 116.646C519.427 118.144 522.689 119.659 526.052 121.157C557.073 134.819 589.894 145.687 625.354 133.203C648.195 125.052 667.034 111.056 684.898 96.8129C687.273 94.9563 689.632 92.9991 692.007 91.1425C704.051 81.6239 716.548 72.3385 730.178 64.8286C759.01 48.711 788.932 40.1789 824.345 40.7597C867.345 41.4949 910.243 53.7496 935.162 77.1587" stroke="#48196E" stroke-width="0.3903" stroke-miterlimit="10"/>
<path d="M25.1595 145.606C37.8164 134.221 61.1111 126.303 80.6632 130.423C97.0909 133.833 112.66 148.582 124.786 158.944C152.678 182.778 180.298 209.87 216.519 223.058C252.623 236.163 292.62 229.018 323.918 208.542C330.914 204.03 337.471 198.765 343.723 192.93C367.577 170.099 383.401 141.49 409.733 121.654C442.658 96.7552 480.451 104.597 514.852 119.858C518.215 121.356 521.578 122.854 524.923 124.251C555.809 137.729 589.016 148.427 624.56 135.826C647.886 127.488 666.538 113.006 684.368 98.5614C686.726 96.6041 689.085 94.6469 691.543 92.6724C703.553 82.9525 716.151 73.6499 730.1 66.1891C759.605 50.3711 789.916 42.9122 825.531 43.4585C868.632 44.1765 911.639 54.6509 936.011 75.4594" stroke="#522168" stroke-width="0.3903" stroke-miterlimit="10"/>
<path d="M24.7039 148.999C37.1131 138.589 59.706 131.413 78.8729 135.703C94.898 139.182 110.263 153.343 122.22 163.32C149.739 186.181 176.985 212.301 212.615 224.451C249.035 236.983 288.794 229.05 320.192 208.556C327.188 204.045 333.863 198.863 340.115 193.028C364.339 170.548 381.023 142.725 407.896 123.626C441.495 99.6479 479.004 107.642 513.471 122.684C516.834 124.182 520.179 125.579 523.542 127.077C554.394 140.354 587.969 150.782 623.412 138.198C647.224 129.674 665.807 114.789 683.485 100.059C685.843 98.1021 688.184 96.0441 690.643 94.0696C702.635 84.249 715.3 74.7279 729.685 67.3997C759.863 51.8812 790.548 45.3947 826.482 45.9902C869.784 46.6738 912.818 55.4857 936.742 73.6765" stroke="#5B2963" stroke-width="0.3903" stroke-miterlimit="10"/>
<path d="M24.2481 152.393C36.4097 142.958 58.2174 136.642 77.0824 140.982C92.705 144.53 107.765 158.122 119.654 167.696C146.799 189.585 173.756 214.615 208.627 225.961C245.347 237.821 284.967 229.082 316.3 208.807C323.296 204.296 330.071 199.097 336.458 193.446C360.953 171.334 378.713 144.363 406.127 126.001C440.318 103.061 477.625 111.09 512.176 126.015C515.539 127.512 518.884 128.91 522.331 130.29C553.047 143.382 587.007 153.641 622.433 140.956C646.631 132.262 665.246 116.958 682.754 101.842C685.095 99.7843 687.436 97.7264 689.895 95.752C701.852 85.7299 714.718 76.1745 729.423 68.8953C760.256 53.5758 791.449 48.2459 827.484 48.8241C870.886 49.4906 914.03 56.5221 937.406 72.1123" stroke="#64315D" stroke-width="0.3903" stroke-miterlimit="10"/>
<path d="M23.7923 155.787C35.7233 147.428 56.8293 141.853 75.1912 146.279C90.4113 149.896 105.15 162.817 116.886 172.107C143.557 193.04 170.224 216.98 204.521 227.388C241.557 238.676 280.94 229.149 312.373 208.856C319.369 204.345 326.262 199.23 332.667 193.68C357.531 171.919 376.252 145.716 404.222 128.192C439.089 106.173 476.112 114.354 510.628 129.077C513.973 130.474 517.437 131.955 520.782 133.352C551.465 146.243 585.692 156.249 621.219 143.547C645.902 134.666 664.331 118.875 681.805 103.559C684.145 101.501 686.57 99.3251 689.011 97.2499C700.952 87.1272 713.884 77.3532 728.925 70.2239C760.43 55.2039 792.014 50.9471 828.351 51.4738C871.955 52.1058 915.326 57.4404 938.155 70.4301" stroke="#6D3A58" stroke-width="0.3903" stroke-miterlimit="10"/>
<path d="M23.3365 159.181C35.0199 151.796 55.4414 147.063 73.4007 151.559C88.2184 155.244 102.653 167.596 114.32 176.483C140.618 196.444 166.995 219.293 200.634 228.881C237.986 239.597 277.113 229.181 308.681 209.072C315.778 204.544 322.588 199.546 329.194 193.962C354.446 172.653 374.026 147.236 402.638 130.431C438.196 109.434 475.018 117.649 509.5 132.171C512.845 133.568 516.309 135.049 519.755 136.429C550.302 149.136 585.016 158.955 620.424 146.169C645.594 137.102 663.953 120.909 681.375 105.29C683.699 103.131 686.141 101.056 688.565 98.8804C700.471 88.5563 713.504 78.7651 728.947 71.567C761.108 56.7459 793.1 53.6629 829.637 54.1552C873.241 54.7872 916.723 58.3415 939.003 68.7306" stroke="#764252" stroke-width="0.3903" stroke-miterlimit="10"/>
<path d="M22.7803 162.592C34.216 156.182 54.0535 152.274 71.5098 156.856C85.9249 160.61 100.055 172.392 111.653 180.876C137.578 199.865 163.547 221.54 196.629 230.291C234.381 240.316 273.187 229.23 304.755 209.122C311.851 204.593 318.762 199.579 325.402 194.196C350.925 173.255 371.565 148.59 400.716 132.521C436.95 112.445 473.487 120.812 508.052 135.216C511.499 136.596 514.844 137.993 518.29 139.373C548.786 151.778 583.802 161.546 619.21 148.76C644.747 139.423 663.038 122.827 680.409 106.906C682.733 104.747 685.157 102.572 687.581 100.396C699.47 89.971 712.569 79.9612 728.45 72.8956C761.283 58.3741 793.665 56.3643 830.505 56.805C874.192 57.3191 917.801 59.1937 939.533 66.9824" stroke="#7F4A4D" stroke-width="0.3903" stroke-miterlimit="10"/>
<path d="M22.3415 166.086C33.5296 160.651 52.6826 157.586 69.7363 162.237C83.749 166.06 97.5743 177.272 109.021 185.471C134.471 203.504 160.251 224.072 192.574 232.02C230.626 241.372 269.294 229.481 300.896 209.574C307.993 205.045 315.021 200.114 321.779 194.814C347.673 174.225 369.273 150.328 398.881 135.114C435.773 115.858 472.126 124.361 506.639 138.462C510.085 139.842 513.532 141.222 516.978 142.602C547.439 154.806 582.823 164.303 618.231 151.518C644.255 141.994 662.477 124.995 679.695 108.789C682.019 106.631 684.426 104.354 686.833 102.078C698.587 91.4689 711.87 81.324 728.087 74.4083C761.575 60.0856 794.348 59.1488 831.507 59.6387C875.294 60.1356 919.031 60.3305 940.198 65.4179" stroke="#885247" stroke-width="0.3903" stroke-miterlimit="10"/>
<path d="M21.8859 169.48C32.8435 165.121 51.2775 162.696 67.946 167.516C81.5561 171.408 95.077 182.051 106.455 189.847C131.549 207.009 157.005 226.285 188.67 233.413C227.122 242.075 265.468 229.513 297.07 209.606C304.167 205.077 311.212 200.247 318.088 195.031C344.352 174.793 366.829 151.782 397.078 137.288C434.578 119.171 470.647 127.826 505.327 141.692C508.773 143.072 512.219 144.452 515.666 145.832C545.992 157.851 581.761 167.179 617.152 154.293C643.661 144.582 661.797 127.08 678.881 110.69C681.187 108.431 683.594 106.154 686.102 103.861C697.839 93.1512 711.306 82.8712 727.842 76.0046C761.986 61.8808 795.166 62.1178 832.509 62.4726C876.397 62.9524 920.344 61.3497 940.981 63.9373" stroke="#915A42" stroke-width="0.3903" stroke-miterlimit="10"/>
<path d="M21.4302 172.874C32.1401 169.489 49.8895 167.907 66.1555 172.796C79.3631 176.757 92.5796 186.829 103.888 194.223C128.509 210.429 153.758 228.497 184.783 234.906C223.634 242.878 261.659 229.645 293.379 209.822C300.593 205.377 307.639 200.546 314.615 195.313C341.149 175.443 364.686 153.184 395.493 139.527C433.668 122.331 469.553 131.121 504.098 144.803C507.544 146.183 510.99 147.563 514.52 148.825C544.812 160.643 580.848 169.718 616.239 156.832C643.134 146.952 661.201 129.047 678.233 112.355C680.54 110.096 682.93 107.719 685.437 105.425C697.14 94.514 710.69 84.1161 727.663 77.3821C762.379 63.575 796.05 64.868 833.695 65.1712C877.684 65.6338 921.741 62.2508 941.829 62.2378" stroke="#9B633C" stroke-width="0.3903" stroke-miterlimit="10"/>
<path d="M20.9745 176.267C31.4368 173.858 48.5016 173.118 64.2645 178.093C77.0697 182.122 89.9816 191.625 101.222 198.616C125.469 213.85 150.411 230.727 180.694 236.433C219.845 243.733 257.732 229.695 289.369 209.989C296.583 205.544 303.729 200.696 310.74 195.664C337.645 176.146 362.159 154.756 393.488 141.735C432.356 125.56 467.939 134.402 502.567 147.966C506.014 149.346 509.543 150.608 512.989 151.988C543.146 163.622 579.668 172.51 615.042 159.523C642.423 149.457 660.404 131.048 677.284 114.072C679.573 111.712 681.963 109.334 684.454 106.94C696.139 95.9284 709.755 85.3121 727.064 78.7278C762.435 65.1196 796.514 67.5864 834.36 67.8552C878.551 68.2834 922.634 63.2379 942.158 60.5237" stroke="#A46B37" stroke-width="0.3903" stroke-miterlimit="10"/>
<path d="M20.5187 179.661C30.7505 178.327 47.1136 178.329 62.474 183.373C74.8767 187.471 87.4669 196.303 98.5547 203.01C122.328 217.288 147.064 232.957 176.689 237.843C216.24 244.452 253.805 229.744 285.542 210.021C292.757 205.576 300.021 200.812 307.149 195.864C334.425 176.696 359.798 156.092 391.684 143.908C431.228 128.655 466.526 137.649 501.221 150.994C504.65 152.273 508.196 153.636 511.643 155.016C541.765 166.449 578.555 175.084 613.929 162.097C641.795 151.844 659.607 133.05 676.435 115.771C678.724 113.411 681.097 110.933 683.688 108.522C695.339 97.3086 709.056 86.6751 726.768 80.022C762.794 66.6128 797.364 70.1355 835.429 70.4706C879.72 70.8816 924.014 64.0385 943.007 58.8244" stroke="#AD7331" stroke-width="0.3903" stroke-miterlimit="10"/>
<path d="M20.0631 183.055C30.0472 182.696 45.7085 183.44 60.6835 188.652C72.6837 192.819 84.9695 201.082 96.0057 207.486C119.423 220.893 143.817 235.17 172.819 239.437C212.752 245.255 249.996 229.876 281.868 210.338C289.083 205.893 296.364 201.229 303.593 196.264C331.156 177.565 357.572 157.612 390.016 146.266C430.151 132.051 465.265 141.18 500.009 154.206C503.438 155.485 506.985 156.848 510.514 158.11C540.501 169.358 577.677 177.824 613.05 164.837C641.285 154.314 659.129 135.1 675.822 117.637C678.094 115.177 680.567 112.682 683.058 110.287C694.691 98.9735 708.475 88.1214 726.623 81.6009C763.322 68.4912 798.283 73.087 836.548 73.3877C880.94 73.7815 925.344 65.1581 943.789 57.3435" stroke="#B67B2C" stroke-width="0.3903" stroke-miterlimit="10"/>
<path d="M19.5067 186.466C29.2432 187.082 44.2199 188.668 58.7925 193.95C70.3902 198.185 82.3715 205.878 93.3388 211.88C116.282 224.332 140.47 237.4 168.814 240.847C209.13 245.874 246.069 229.926 277.941 210.388C285.257 205.925 292.538 201.262 299.902 196.48C327.835 178.133 355.229 159.049 388.195 148.339C429.006 135.045 463.835 144.326 498.561 157.251C502.091 158.513 505.537 159.893 509.067 161.155C539.02 172.202 576.58 180.499 611.836 167.429C640.557 156.718 658.332 137.102 674.872 119.354C677.245 116.876 679.601 114.298 682.074 111.803C693.673 100.288 707.54 89.3176 726.025 82.9469C763.379 70.0361 798.747 75.8056 837.315 76.0548C881.79 76.3307 926.339 66.1283 944.319 55.5953" stroke="#BF8326" stroke-width="0.3903" stroke-miterlimit="10"/>
<path d="M19.0681 189.96C28.5569 191.551 42.849 193.98 57.0191 199.33C68.2143 203.634 79.8912 210.758 90.6891 216.374C113.259 227.853 137.224 239.612 164.742 242.475C205.424 246.611 242.159 230.076 274.066 210.739C281.381 206.277 288.78 201.696 296.162 197.016C324.365 179.037 352.718 160.721 386.343 150.831C427.845 138.559 462.473 147.874 497.166 160.598C500.695 161.86 504.225 163.122 507.772 164.485C537.589 175.348 575.518 183.374 610.875 170.287C640.081 159.39 657.669 139.287 674.158 121.237C676.514 118.659 678.87 116.08 681.444 113.568C693.025 101.952 707.059 90.7467 725.88 84.5258C763.772 71.7304 799.666 78.7572 838.535 78.9548C883.111 79.2135 927.77 67.2307 945.219 54.1978" stroke="#C88C21" stroke-width="0.3903" stroke-miterlimit="10"/>
<path d="M18.6123 193.354C27.8707 196.021 41.4611 199.19 55.2287 204.61C66.0041 208.882 77.2931 215.554 88.1228 220.75C110.236 231.375 133.96 241.724 160.838 243.867C201.902 247.213 238.333 230.108 270.239 210.771C277.555 206.308 284.971 201.829 292.554 197.114C321.128 179.486 350.458 162.04 384.522 152.904C426.7 141.552 461.043 151.02 495.802 163.525C499.331 164.788 502.861 166.05 506.391 167.312C536.174 177.973 574.488 185.83 609.727 172.659C639.419 161.575 656.821 140.987 673.275 122.735C675.631 120.157 677.986 117.578 680.543 114.965C692.091 103.148 706.225 91.9254 725.466 85.7364C764.03 73.2406 800.314 81.3406 839.385 81.5037C884.061 81.7452 928.931 67.9649 945.732 52.3486" stroke="#D1941B" stroke-width="0.3903" stroke-miterlimit="10"/>
<path d="M18.1567 196.748C27.268 200.372 40.056 204.301 53.3377 209.907C63.7107 214.248 74.6952 220.35 85.4561 225.143C107.096 234.813 130.595 243.854 156.85 245.378C198.38 247.815 234.406 230.157 266.448 211.004C273.78 206.643 281.28 202.045 288.897 197.532C317.842 180.255 348.132 163.577 382.753 155.278C425.623 144.948 459.665 154.468 494.489 166.755C498.019 168.017 501.549 169.279 505.179 170.524C534.827 181.001 573.509 188.588 608.748 175.417C638.826 164.164 656.259 143.155 672.662 124.602C675 121.922 677.356 119.344 679.896 116.63C691.426 104.713 705.626 93.2711 725.203 87.2319C764.423 74.935 801.098 84.108 840.488 84.3203C885.265 84.5446 930.261 69.0846 946.598 50.75" stroke="#DA9C16" stroke-width="0.3903" stroke-miterlimit="10"/>
<path d="M17.7008 200.142C26.5645 204.741 38.6679 209.512 51.5471 215.186C61.5176 219.596 72.1976 225.129 82.7891 229.536C103.972 238.351 127.231 245.983 152.845 246.787C194.723 248.232 230.479 230.206 262.521 211.053C269.853 206.692 277.47 202.178 285.206 197.748C314.421 180.839 345.688 165.031 380.933 157.351C424.394 148.06 458.269 157.815 493.059 169.9C496.589 171.163 500.219 172.407 503.731 173.569C533.345 183.845 572.312 191.279 607.634 177.99C638.198 166.551 655.545 145.038 671.813 126.301C674.152 123.622 676.49 120.943 679.03 118.229C690.543 106.211 704.809 94.5505 724.823 88.6439C764.698 76.5458 801.781 86.8928 841.372 87.0706C886.35 87.2606 931.356 70.0373 947.162 49.2028" stroke="#E4A410" stroke-width="0.3903" stroke-miterlimit="10"/>
<path d="M17.2452 203.535C25.8784 209.21 37.28 214.723 49.7567 220.466C59.3247 224.945 69.7175 230.008 80.2402 234.013C101.067 241.956 123.967 248.095 148.874 248.398C191.101 248.851 226.687 230.44 258.729 211.287C266.162 206.908 273.796 202.495 281.549 198.165C311.152 181.709 343.361 166.568 379.164 159.726C423.283 151.254 456.974 161.145 491.73 173.029C495.259 174.291 498.872 175.435 502.503 176.68C531.981 186.772 571.417 193.919 606.656 180.748C637.688 169.021 654.883 147.224 671.082 128.084C673.421 125.405 675.742 122.625 678.382 119.894C689.861 107.674 704.228 95.9969 724.644 90.0215C765.192 78.223 802.665 89.6431 842.558 89.7693C887.637 89.9421 932.753 70.9385 948.011 47.5035" stroke="#EDAD0B" stroke-width="0.3903" stroke-miterlimit="10"/>
<path d="M16.6888 206.946C25.0743 213.596 35.7741 219.85 47.8655 225.763C57.1317 230.293 67.1194 234.804 77.5732 238.406C97.9262 245.394 120.603 250.224 144.886 249.909C187.461 249.369 222.76 230.489 254.836 211.537C262.269 207.159 269.904 202.746 277.875 198.482C307.848 182.377 341.018 168.005 377.277 162.017C422.089 154.567 455.477 164.509 490.3 176.175C493.812 177.336 497.442 178.581 501.072 179.826C530.517 189.716 570.237 196.711 605.459 183.44C636.876 171.543 654.086 149.225 670.15 129.901C672.471 127.121 674.893 124.324 677.415 121.51C688.877 109.189 703.411 97.2763 724.063 91.4679C765.266 79.8683 803.247 92.445 843.241 92.5541C888.504 92.5918 933.848 71.8913 948.558 45.8557" stroke="#F6B505" stroke-width="0.3903" stroke-miterlimit="10"/>
<path d="M16.2331 210.34C42.2816 234.903 88.8126 253.273 140.881 251.318C183.787 249.686 218.833 230.538 251.01 211.57C286.586 190.673 328.862 170.807 375.473 164.19C425.624 157.072 460.77 170.029 499.726 182.854C529.136 192.543 569.123 199.285 604.446 185.996C636.349 173.913 653.389 151.21 669.402 131.583C681.724 116.422 697.951 99.8673 723.784 92.8628C765.642 81.4621 804.014 95.1118 844.326 95.27C889.69 95.2905 935.161 72.9104 949.306 44.1736" stroke="#FFBD00" stroke-width="0.3903" stroke-miterlimit="10"/>
</svg>
