<svg xmlns="http://www.w3.org/2000/svg" width="130" height="65" fill="none"><path fill="#284CCB" d="M32.175 6.197v.888l-3.662.867-.498.108.108.498 1.799 7.649-8.039 1.885-.498.108.13.498 2.015 8.645.13.499.477-.109 8.038-1.885v7.41H18.893V6.197h13.282Z"/><path fill="#C126CE" d="m37.7 6.305 1.907 8.168 8.515-1.993 2.015 8.645-8.515 1.993 1.906 8.147-9.035 2.102-1.906-8.147-8.515 1.993-2.015-8.645 8.515-1.993-1.907-8.147L37.7 6.305Z"/><path fill="#fff" d="M58.89 32.327a9.296 9.296 0 0 1-2.058-.737 7.595 7.595 0 0 1-1.777-1.213 7.891 7.891 0 0 1-1.387-1.669 7.852 7.852 0 0 1-.91-2.123 9.892 9.892 0 0 1-.325-2.578c0-.802.087-1.56.26-2.297.174-.737.434-1.43.759-2.058a6.674 6.674 0 0 1 1.256-1.755 8.514 8.514 0 0 1 1.712-1.344 7.811 7.811 0 0 1 2.167-.866 11.058 11.058 0 0 1 2.578-.304c1.213 0 2.427.26 3.662.802a8.558 8.558 0 0 1 3.163 2.427l-3.272 2.816a5.81 5.81 0 0 0-.65-.606 5.742 5.742 0 0 0-.801-.542 3.717 3.717 0 0 0-.997-.412 4.849 4.849 0 0 0-1.105-.151c-.412 0-.823.065-1.213.173-.39.108-.759.282-1.105.542-.347.238-.65.541-.889.866a4.235 4.235 0 0 0-.606 1.214 4.982 4.982 0 0 0-.217 1.538c0 .563.087 1.105.282 1.625.195.52.433.975.78 1.365.346.39.758.693 1.278.932a4 4 0 0 0 1.69.346c.65 0 1.3-.151 1.95-.476a4.55 4.55 0 0 0 1.603-1.235l3.272 2.816c-.78.954-1.755 1.712-2.925 2.319-1.17.606-2.47.888-3.9.888a12.797 12.797 0 0 1-2.275-.303ZM76.223 20.54v4.507c-.238-.022-.52-.022-.888-.022-.78 0-1.387.195-1.777.607-.39.411-.606.953-.606 1.646v5.049h-4.204V20.8h4.204v1.582h.043c.412-.585.888-1.04 1.452-1.344.563-.303 1.148-.476 1.776-.476v-.022Z"/><path fill="#fff" d="M88.487 20.8 82.55 37.007h-4.095l1.95-5.504L76.007 20.8h4.333l1.95 5.46h.043l1.842-5.46h4.312ZM97.695 20.757c.433.13.867.325 1.235.563.368.238.715.542 1.018.91a5.904 5.904 0 0 1 1.279 2.665 8.4 8.4 0 0 1 .173 1.668c0 1.17-.217 2.21-.672 3.142-.455.932-1.083 1.625-1.906 2.123-.824.499-1.734.759-2.795.759-1.192 0-2.145-.412-2.86-1.235v5.655h-4.204V20.8h4.225v1.17h.044c.801-.932 1.841-1.408 3.098-1.408.455-.022.91.065 1.365.195Zm-1.083 7.496c.39-.433.585-.996.585-1.69 0-.693-.195-1.235-.585-1.668-.39-.433-.867-.65-1.474-.65-.628 0-1.126.217-1.538.65-.412.433-.607.997-.607 1.668 0 .694.195 1.257.607 1.69.39.434.91.629 1.538.629a1.82 1.82 0 0 0 1.474-.629ZM104.888 32.348a2.998 2.998 0 0 1-1.083-.693 3.207 3.207 0 0 1-.737-1.213c-.173-.499-.26-1.062-.26-1.712v-4.572h-1.256V20.8h1.256v-3.64l4.204-.433V20.8h2.513v3.337h-2.513v3.661c0 .152 0 .304.021.412.022.13.044.238.087.368s.13.217.238.282a.775.775 0 0 0 .412.108c.303 0 .585-.065.845-.195l1.018 2.925a6.273 6.273 0 0 1-1.495.629c-.498.151-1.126.216-1.885.216a3.122 3.122 0 0 1-1.365-.195Z"/><path fill="#fff" d="M112.493 31.828a5.603 5.603 0 0 1-2.253-2.123c-.542-.91-.802-1.95-.802-3.12 0-1.17.26-2.21.802-3.12a5.467 5.467 0 0 1 2.253-2.123c.954-.499 2.059-.759 3.294-.759 1.235 0 2.318.26 3.271.759a5.6 5.6 0 0 1 2.254 2.123c.541.91.801 1.95.801 3.12 0 1.17-.26 2.21-.801 3.12a5.47 5.47 0 0 1-2.254 2.123c-.975.499-2.058.759-3.271.759-1.235 0-2.319-.26-3.294-.759Zm4.789-3.618c.39-.433.606-.975.606-1.647 0-.671-.195-1.235-.585-1.646-.39-.434-.888-.629-1.516-.629-.304 0-.585.065-.845.174-.26.108-.477.281-.672.476a2.334 2.334 0 0 0-.433.715 2.495 2.495 0 0 0-.152.91c0 .26.043.499.108.737s.174.455.282.628c.13.195.282.347.455.477.173.13.368.238.585.325.217.065.433.108.672.108a1.864 1.864 0 0 0 1.495-.628Z"/><path fill="#C126CE" d="M4.94 35.165h11.375v4.095H9.382v2.578h5.438v3.987H9.36v2.405h7.453v4.073H4.94V35.165ZM36.898 45.392v6.911h-4.29v-5.936c0-.195 0-.369-.021-.52-.022-.152-.022-.325-.065-.477a2.53 2.53 0 0 0-.109-.433c-.043-.13-.108-.239-.173-.369a.747.747 0 0 0-.26-.26 1.725 1.725 0 0 0-.347-.173 1.398 1.398 0 0 0-.433-.065 1.34 1.34 0 0 0-1.127.585c-.281.39-.433.953-.433 1.733v5.937h-4.312v-5.958c0-.347-.021-.629-.065-.91a2.5 2.5 0 0 0-.216-.715 1.23 1.23 0 0 0-.434-.499c-.173-.108-.433-.173-.693-.173a1.43 1.43 0 0 0-1.192.585c-.303.39-.455.953-.455 1.733v5.937H17.94V40.517h4.312v1.343h.021c.412-.52.889-.91 1.43-1.192a3.998 3.998 0 0 1 1.734-.411c1.56 0 2.708.563 3.38 1.668h.043c.932-1.105 2.21-1.668 3.813-1.668 2.817 0 4.225 1.711 4.225 5.135ZM49.682 47.45h-7.735c.086.542.368.975.801 1.257.434.281.997.433 1.647.433.975 0 1.885-.433 2.73-1.3l2.232 2.448c-.542.672-1.279 1.214-2.21 1.625-.932.412-1.994.629-3.207.629-1.17 0-2.232-.26-3.163-.78-.932-.52-1.69-1.235-2.21-2.189-.542-.953-.802-2.015-.802-3.206 0-1.17.26-2.232.78-3.164a5.594 5.594 0 0 1 2.188-2.188c.932-.52 1.994-.78 3.164-.78.845 0 1.625.152 2.361.455a5.696 5.696 0 0 1 1.885 1.235c.52.52.932 1.17 1.235 1.928.304.759.455 1.56.455 2.449a10.72 10.72 0 0 1-.151 1.148Zm-7.085-3.51c-.347.282-.564.672-.65 1.17h3.661a2.117 2.117 0 0 0-.238-.65 1.81 1.81 0 0 0-.39-.498 1.564 1.564 0 0 0-.52-.304 2.043 2.043 0 0 0-.65-.108 1.853 1.853 0 0 0-1.213.39ZM58.392 40.257v4.593c-.239-.022-.542-.022-.91-.022-.802 0-1.409.217-1.82.629-.412.411-.629.975-.629 1.69v5.156h-4.311V40.495h4.311v1.603h.044a4.47 4.47 0 0 1 1.473-1.386 3.57 3.57 0 0 1 1.82-.477h.022v.022ZM71.023 40.495v10.097c0 .823-.065 1.56-.195 2.231a5.854 5.854 0 0 1-.671 1.842 4.844 4.844 0 0 1-1.214 1.43c-.498.39-1.105.693-1.863.91-.758.217-1.603.325-2.578.325-1.019 0-1.907-.087-2.644-.238a8.224 8.224 0 0 1-2.253-.845l.953-3.38c.434.26.954.498 1.604.671.65.195 1.256.282 1.798.282.91 0 1.625-.173 2.123-.542.499-.368.759-.823.759-1.365v-1.061h-.044c-.758.823-1.798 1.235-3.12 1.235a5.2 5.2 0 0 1-2.751-.759c-.824-.498-1.43-1.191-1.885-2.08a6.55 6.55 0 0 1-.672-2.946 7.4 7.4 0 0 1 .39-2.427 6.339 6.339 0 0 1 1.062-1.928c.433-.542.975-.932 1.603-1.235a4.55 4.55 0 0 1 1.993-.455c1.322 0 2.405.455 3.229 1.408h.043v-1.148l4.333-.022Zm-4.701 7.193c.39-.39.585-.888.585-1.516 0-.607-.195-1.105-.607-1.517a2.044 2.044 0 0 0-1.473-.585c-.585 0-1.084.195-1.495.585-.412.39-.607.91-.607 1.517 0 .628.195 1.126.607 1.516.411.39.888.585 1.495.585.606 0 1.083-.195 1.495-.585ZM83.893 47.45h-7.735c.087.542.369.975.802 1.257.433.281.997.433 1.647.433.975 0 1.885-.433 2.708-1.3l2.232 2.448c-.542.672-1.279 1.214-2.21 1.625-.932.412-1.994.629-3.207.629-1.17 0-2.232-.26-3.163-.78-.932-.52-1.69-1.235-2.21-2.189-.542-.953-.802-2.015-.802-3.206 0-1.17.26-2.232.78-3.164a5.594 5.594 0 0 1 2.188-2.188c.932-.52 1.994-.78 3.164-.78.845 0 1.625.152 2.361.455a5.696 5.696 0 0 1 1.885 1.235c.52.52.932 1.17 1.235 1.928.304.759.455 1.56.455 2.449a7.341 7.341 0 0 1-.13 1.148Zm-7.085-3.51c-.346.282-.563.672-.65 1.17h3.684a2.118 2.118 0 0 0-.239-.65 1.81 1.81 0 0 0-.39-.498 1.563 1.563 0 0 0-.52-.304 2.042 2.042 0 0 0-.65-.108 1.874 1.874 0 0 0-1.235.39ZM93.773 40.343c.347.065.694.174.997.325.325.152.607.347.845.607s.455.563.628.91c.174.347.325.78.412 1.278.087.499.13 1.062.13 1.69v7.15h-4.312v-6.11c0-.541-.065-.975-.173-1.3-.108-.325-.282-.52-.498-.65-.217-.13-.499-.173-.867-.173-.542 0-.953.195-1.257.563-.303.39-.455.954-.455 1.734v5.936h-4.29V40.495h4.312v1.3h.022a4.337 4.337 0 0 1 3.358-1.538c.412 0 .78.021 1.148.086ZM100.685 51.783c-.953-.52-1.69-1.235-2.21-2.188-.542-.932-.802-1.993-.802-3.207 0-1.191.282-2.275.824-3.206a5.597 5.597 0 0 1 2.296-2.189c.997-.52 2.102-.78 3.359-.78 1.018 0 1.971.217 2.903.629a5.737 5.737 0 0 1 2.253 1.798l-2.86 2.427c-.606-.715-1.321-1.062-2.188-1.062-.672 0-1.213.217-1.625.65-.412.433-.628.975-.628 1.668 0 .694.216 1.257.65 1.69.433.434.975.65 1.646.65.867 0 1.582-.325 2.124-.953l2.925 2.557c-.542.671-1.279 1.213-2.232 1.625-.953.411-2.037.628-3.272.628-1.17.022-2.231-.238-3.163-.737ZM121.767 40.495 115.7 57.07h-4.182l1.994-5.633-4.529-10.942h4.442l1.993 5.59h.044l1.885-5.59h4.42Z"/></svg>