<svg xmlns="http://www.w3.org/2000/svg" width="34" height="32" fill="none"><path fill="url(#a)" d="M33.128 15.82c0 1.64-2.936 2.794-3.416 4.272-.498 1.533 1.181 4.19.253 5.466-.938 1.288-3.99.507-5.278 1.445-1.276.928-1.47 4.078-3.003 4.574-1.48.48-3.48-1.937-5.12-1.937-1.64 0-3.64 2.417-5.12 1.937-1.532-.497-1.728-3.646-3.003-4.574-1.288-.938-4.34-.157-5.278-1.446-.928-1.275.75-3.932.253-5.465C2.936 18.614 0 17.46 0 15.82c0-1.639 2.936-2.793 3.416-4.272.498-1.533-1.181-4.19-.253-5.465.938-1.289 3.99-.508 5.278-1.445C9.717 3.709 9.911.56 11.444.063 12.924-.417 14.924 2 16.564 2c1.64 0 3.64-2.417 5.12-1.937 1.532.498 1.727 3.646 3.003 4.575 1.288.937 4.34.156 5.278 1.445.928 1.275-.751 3.932-.253 5.465.48 1.479 3.416 2.633 3.416 4.272Z"/><path fill="#F8F9E8" d="M15.114 21.453a1.824 1.824 0 0 1-1.293-.534L9.743 16.84a1.83 1.83 0 0 1 2.586-2.587l2.785 2.785 5.682-5.683a1.827 1.827 0 0 1 3.123 1.293 1.828 1.828 0 0 1-.536 1.293l-6.975 6.977a1.824 1.824 0 0 1-1.294.534Z"/><defs><linearGradient id="a" x1="16.564" x2="-15.043" y1="-15.82" y2="17.273" gradientUnits="userSpaceOnUse"><stop stop-color="#72FFB6"/><stop offset="1" stop-color="#10D194"/></linearGradient></defs></svg>