<svg xmlns="http://www.w3.org/2000/svg" width="774" height="866" fill="none"><path fill="url(#a)" d="M696.181 565.188v-264.88a81.659 81.659 0 0 0-40.684-70.636L427.745 97.544a81.667 81.667 0 0 0-81.956 0L118.037 229.672a81.656 81.656 0 0 0-40.684 70.636v264.88a81.665 81.665 0 0 0 40.754 70.676l227.752 131.824a81.661 81.661 0 0 0 81.816 0l227.752-131.824a81.665 81.665 0 0 0 40.754-70.676Z"/><path fill="url(#b)" d="M773.534 598.335a102.078 102.078 0 0 1-50.942 88.346l-284.69 164.78a102.075 102.075 0 0 1-102.27 0l-284.69-164.78A102.078 102.078 0 0 1 0 598.335v-331.1a102.072 102.072 0 0 1 50.854-88.294l284.69-165.16a102.085 102.085 0 0 1 102.446 0l284.69 165.16a102.076 102.076 0 0 1 50.854 88.294v331.1Zm-77.353-33.147v-264.88a81.66 81.66 0 0 0-40.684-70.636L427.745 97.544a81.668 81.668 0 0 0-81.957 0L118.037 229.672a81.654 81.654 0 0 0-40.684 70.636v264.88a81.663 81.663 0 0 0 40.754 70.676l227.752 131.824a81.661 81.661 0 0 0 81.816 0l227.752-131.824a81.664 81.664 0 0 0 40.753-70.676h.001Z"/><path fill="url(#c)" d="M470.553 418.102c56.811 0 102.866 38.824 102.866 86.715v135.918h-364.68V504.817c0-47.891 46.055-86.715 102.866-86.715h158.948Z"/><path fill="url(#d)" d="M391.079 387.301c-59.444 0-107.632-47.507-107.632-106.109 0-58.603 48.188-106.109 107.632-106.109 59.443 0 107.632 47.506 107.632 106.109 0 58.602-48.189 106.109-107.632 106.109Z"/><path stroke="#1B0930" stroke-linecap="round" stroke-linejoin="round" stroke-width="44" d="M488.401 506.989v100.297M538.549 557.138H438.252"/><path fill="#fff" fill-opacity=".293" d="m620.463 745.54-92.103 53.309v-89.692l92.103-53.31v89.693ZM190.767 97.926l92.102-53.309v89.693l-92.102 53.309V97.926Z"/><defs><linearGradient id="a" x1="574.41" x2="162.728" y1="231.025" y2="615.345" gradientUnits="userSpaceOnUse"><stop stop-color="#19062D"/><stop offset="1" stop-color="#211940"/></linearGradient><linearGradient id="b" x1="617.274" x2="123.584" y1="133.744" y2="753.276" gradientUnits="userSpaceOnUse"><stop stop-color="#703EAC"/><stop offset=".578" stop-color="#FF7BD2"/><stop offset="1" stop-color="#54BCE5"/></linearGradient><linearGradient id="c" x1="208.739" x2="573.419" y1="529.419" y2="529.419" gradientUnits="userSpaceOnUse"><stop stop-color="#723AC0"/><stop offset="1" stop-color="#5D8DFE"/></linearGradient><linearGradient id="d" x1="348.418" x2="453.139" y1="244.082" y2="319.542" gradientUnits="userSpaceOnUse"><stop stop-color="#8540F8"/><stop offset="1" stop-color="#608EFE"/></linearGradient></defs></svg>